<svg width="24" height="24" viewBox="0 0 24 24" fill="none" xmlns="http://www.w3.org/2000/svg">
<path fill-rule="evenodd" clip-rule="evenodd" d="M2 13.9878H7.80303V12.4204H4.42944L6.28319 10.6939L6.31355 10.6657C7.28421 9.76562 7.80303 9.28451 7.80303 7.98775C7.80303 6.21224 6.59407 5 4.9706 5C3.19745 5 2 6.13878 2 7.95102H3.61195C3.58893 7.21633 4.14159 6.56735 4.93606 6.56735C5.69598 6.56735 6.19108 7.1551 6.19108 7.96326C6.19108 8.34286 5.99534 8.77143 5.47721 9.26122L2 12.5429V13.9878ZM9.17913 14H10.745V10.4245H13.5544V8.75918H10.745V6.84898H14.2453V5.18367H9.17913V14ZM16.2085 14H14.5965L17.1296 5.18367H19.4669L22 14H20.388L19.8526 12.1633H16.7324L16.2085 14ZM18.281 6.7449L17.1757 10.6082H19.4036L18.281 6.7449ZM22 17H2V19H22V17Z" fill="#1A2147"/>
</svg>
