<svg width="24" height="24" viewBox="0 0 24 24" fill="none" xmlns="http://www.w3.org/2000/svg">
<path d="M16 8H14V11H11V13H14V16H16V13H19V11H16V8ZM2 12C2 9.21 3.64 6.8 6.01 5.68V3.52C2.52 4.76 0 8.09 0 12C0 15.91 2.52 19.24 6.01 20.48V18.32C4.81125 17.755 3.7978 16.8609 3.08781 15.742C2.37783 14.623 2.00056 13.3252 2 12ZM15 3C10.04 3 6 7.04 6 12C6 16.96 10.04 21 15 21C19.96 21 24 16.96 24 12C24 7.04 19.96 3 15 3ZM15 19C11.14 19 8 15.86 8 12C8 8.14 11.14 5 15 5C18.86 5 22 8.14 22 12C22 15.86 18.86 19 15 19Z" fill="#1A2147"/>
</svg>
