<svg width="24" height="24" viewBox="0 0 24 24" fill="none" xmlns="http://www.w3.org/2000/svg">
<path fill-rule="evenodd" clip-rule="evenodd" d="M2.84096 14.7366C2.07562 13.8179 1.45125 12.7822 0.999953 11.6616L2.71558 11C4.17705 14.6291 7.7827 17.1955 12 17.1955C16.2172 17.1955 19.8229 14.6291 21.2843 11L23 11.6616C22.5487 12.7822 21.9243 13.8179 21.1589 14.7366L23.3282 16.6316L22.0123 18.1378L19.7498 16.1612C19.0477 16.7596 18.2728 17.2782 17.4398 17.7024L18.6963 20.539L16.8677 21.349L15.5866 18.4569C14.7603 18.7146 13.8944 18.8857 13 18.9591V22H11V18.9591C10.1055 18.8857 9.23963 18.7146 8.41333 18.4569L7.13222 21.349L5.3036 20.539L6.56013 17.7024C5.72709 17.2782 4.95222 16.7596 4.25013 16.1612L1.98758 18.1378L0.671753 16.6316L2.84096 14.7366Z" fill="#1A2147"/>
</svg>
