<svg width="24" height="24" viewBox="0 0 24 24" fill="none" xmlns="http://www.w3.org/2000/svg">
<path d="M9.21818 20V18.9085L10.3964 18.6298C10.4109 18.0724 10.4182 17.4686 10.4182 16.8183C10.4182 16.168 10.4182 15.6029 10.4182 15.1229V14.0082C10.4182 13.3734 10.4109 12.847 10.3964 12.429C10.3964 11.9954 10.3818 11.5464 10.3527 11.082L9 10.873V9.96721L13.5818 8.4112L13.9527 8.66667L13.8873 12.0342V15.1229C13.8873 15.6029 13.8873 16.1758 13.8873 16.8415C13.8873 17.4918 13.8945 18.1034 13.9091 18.6762L15 18.9085V20H9.21818ZM12.12 6.69262C11.6109 6.69262 11.1745 6.52231 10.8109 6.18169C10.4473 5.82559 10.2655 5.38434 10.2655 4.85792C10.2655 4.31603 10.4473 3.87477 10.8109 3.53415C11.1745 3.17805 11.6109 3 12.12 3C12.6291 3 13.0655 3.17805 13.4291 3.53415C13.7927 3.87477 13.9745 4.31603 13.9745 4.85792C13.9745 5.38434 13.7927 5.82559 13.4291 6.18169C13.0655 6.52231 12.6291 6.69262 12.12 6.69262Z" fill="#1A2147"/>
</svg>
