<svg width="24" height="24" viewBox="0 0 24 24" fill="none" xmlns="http://www.w3.org/2000/svg">
<path d="M3.59998 4.20002C3.59998 3.72263 3.78962 3.2648 4.12718 2.92723C4.46475 2.58967 4.92259 2.40002 5.39998 2.40002H13.6548C14.132 2.40044 14.5895 2.59036 14.9268 2.92802L19.8732 7.87202C20.0404 8.03939 20.1731 8.2381 20.2635 8.45678C20.3538 8.67545 20.4002 8.9098 20.4 9.14642V19.8C20.4 20.2774 20.2103 20.7353 19.8728 21.0728C19.5352 21.4104 19.0774 21.6 18.6 21.6H5.39998C4.92259 21.6 4.46475 21.4104 4.12718 21.0728C3.78962 20.7353 3.59998 20.2774 3.59998 19.8V4.20002Z" fill="#1A2147"/>
</svg>
