<svg width="24" height="24" viewBox="0 0 24 24" fill="none" xmlns="http://www.w3.org/2000/svg">
<g clip-path="url(#clip0_613_9123)">
<path d="M18.754 10.518C18.754 11.143 16.516 11.666 13.516 11.798L13.518 11.799C13.0185 11.826 12.5182 11.837 12.018 11.832C11.239 11.832 10.688 11.809 10.494 11.799C7.48801 11.667 5.24401 11.144 5.24401 10.518C5.24401 9.89199 7.48801 9.36799 10.494 9.23399V11.278C10.69 11.293 11.253 11.326 12.031 11.326C12.964 11.326 13.431 11.286 13.516 11.279V9.23599C16.516 9.36899 18.754 9.89299 18.754 10.518ZM23.944 11.064L12.124 22.39C12.0905 22.4221 12.0459 22.44 11.9995 22.44C11.9531 22.44 11.9085 22.4221 11.875 22.39L0.056007 11.064C0.0282712 11.0379 0.00961525 11.0037 0.00277627 10.9662C-0.00406272 10.9288 0.00127525 10.8902 0.018007 10.856L4.39401 1.66299C4.40846 1.63209 4.43153 1.60603 4.46045 1.58793C4.48937 1.56983 4.5229 1.56048 4.55701 1.56099H19.445C19.4787 1.56114 19.5117 1.57092 19.54 1.58916C19.5684 1.60741 19.5909 1.63337 19.605 1.66399L23.982 10.856C23.9987 10.8902 24.0041 10.9288 23.9972 10.9662C23.9904 11.0037 23.9717 11.0379 23.944 11.064ZM19.466 10.66C19.466 9.85399 16.914 9.17999 13.519 9.02299V7.19499H17.705V4.40499H6.30801V7.19499H10.493V9.02399C7.09101 9.17999 4.53301 9.85399 4.53301 10.661C4.53301 11.469 7.09101 12.141 10.493 12.299V18.161H13.518V12.297C16.912 12.14 19.466 11.467 19.466 10.66Z" fill="#1A2147"/>
</g>
<defs>
<clipPath id="clip0_613_9123">
<rect width="24" height="24" fill="white"/>
</clipPath>
</defs>
</svg>
