<svg width="240" height="240" viewBox="0 0 240 240" fill="none" xmlns="http://www.w3.org/2000/svg">
<path d="M38.3421 71.3608C37.3503 70.0935 36.2473 68.9495 35.5805 67.4492C33.415 62.5767 34.164 56.9 40.5085 59.773C42.8711 60.8428 48.242 67.5424 50.3779 65.6438C54.081 63.2287 51.4825 59.6473 48.9403 57.1051C47.9932 56.158 47.0514 55.2299 46.0517 54.3301C44.9584 53.3462 43.7933 52.4876 42.5546 51.709C41.3058 50.9241 40.177 49.9619 38.9439 49.1547C37.8298 48.4255 36.6511 47.7396 35.5738 46.9615C34.5483 46.2208 33.3858 45.4673 32.2306 44.9422C30.3527 44.0886 27.9804 42.4002 27.209 40.4288C26.8638 39.5467 26.8102 38.5278 26.9147 37.587C27.0171 36.6654 27.4122 35.9514 27.6302 35.0795C28.1166 33.1339 28.9269 31.7694 30.8732 31.1612C32.5277 30.6442 34.075 30.9717 35.3933 31.997C35.5693 32.1339 35.5622 30.646 35.8146 30.3789C38.348 27.6964 41.0888 28.4451 44.0591 29.3491C44.5972 29.5129 45.1204 29.6981 45.6572 29.8707C45.9682 29.9707 45.9244 29.657 46.1052 29.4762C48.8028 26.7786 54.591 25.326 57.1848 29.1485C57.6561 29.8431 58.1792 30.3688 58.8297 30.8603C59.3487 31.2524 60.0937 32.2343 60.7287 31.9168C61.148 31.7071 61.5407 31.3496 61.959 31.1946C63.2416 30.7196 64.4933 30.0738 65.9041 30.7399C66.9417 31.23 68.0369 32.1774 68.7325 33.0869C69.6629 34.3036 70.662 35.4559 71.5609 36.7044C73.5342 39.4451 75.0765 42.4888 76.8567 45.3568C78.6561 48.2559 79.5362 51.4938 81.0692 54.5174C82.6276 57.5908 84.907 60.6126 85.4957 64.0791C86.7498 71.4644 82.9972 78.9808 77.2779 83.4568C74.5976 85.5544 71.8659 85.9843 68.6188 85.9843C58.0514 85.9843 44.6786 79.4575 38.3421 71.3608Z" stroke="#1A2147" stroke-width="3" stroke-linecap="round"/>
<path d="M35.2061 32.1902C35.5582 32.4204 35.9555 32.6465 36.2097 32.9931C36.3918 33.2414 36.4769 33.4484 36.7346 33.6493C36.9446 33.8129 37.1372 33.9824 37.3252 34.1704C37.9194 34.7646 38.6979 35.28 39.3749 35.7877C40.2872 36.4719 41.1698 37.1117 41.9804 37.9223C42.5622 38.5041 43.1364 39.0915 43.7907 39.5937C44.5958 40.2115 45.4442 40.7871 46.2225 41.4388C47.5758 42.5717 48.7552 43.8885 50.0748 45.0595C50.6244 45.5471 51.1559 46.1231 51.6381 46.6768C52.3091 47.4472 53.049 48.1765 53.6492 49.0044C54.1658 49.717 54.6189 50.4693 55.1855 51.1428C55.6256 51.666 56.0517 52.1325 56.5365 52.6174C56.9133 52.9942 57.3472 53.2967 57.7254 53.6673C57.9262 53.8641 58.1488 54.197 58.4125 54.2849" stroke="#1A2147" stroke-width="3" stroke-linecap="round"/>
<path d="M65.569 51.9921C65.1323 51.8101 64.7175 51.0016 64.3879 50.672C63.7536 50.0377 63.0983 49.4199 62.4501 48.7998C61.7986 48.1766 61.1498 47.5557 60.5201 46.9123C59.9221 46.3012 59.2595 45.7129 58.7252 45.0402C58.4708 44.7198 58.1835 44.3909 58.0111 44.0173C57.8501 43.6685 57.7202 43.3166 57.5055 42.9944C57.0952 42.379 56.8642 41.7065 56.3436 41.1686C55.8486 40.6571 55.4244 40.172 55.008 39.5937C54.5888 39.0115 54.0186 38.5573 53.6184 37.9571C53.2849 37.4567 52.8397 37.0669 52.5067 36.5675C52.1489 36.0308 51.6669 35.5364 51.2522 35.0389C50.8578 34.5655 50.4882 34.0808 50.0904 33.6107C49.765 33.2261 49.4531 32.7572 49.1022 32.4064C48.8565 32.1606 48.6109 31.8878 48.3418 31.6691C48.0216 31.4089 47.7903 30.9888 47.4501 30.762C47.0901 30.522 46.6895 30.1501 46.323 29.9668" stroke="#1A2147" stroke-width="3" stroke-linecap="round"/>
<path d="M59.4556 31.7733C60.4725 32.7902 61.4972 33.7692 62.4278 34.869C62.9617 35.5 63.4201 36.158 63.8328 36.8608C64.464 37.9355 65.2011 38.9371 65.8477 40.0028C66.3726 40.8678 66.9694 41.7156 67.6002 42.5041C68.0032 43.0079 68.3284 43.6019 68.6733 44.1485C69.1523 44.9075 69.4948 45.7867 70.032 46.5031C70.4297 47.0333 70.8823 47.4825 71.3367 47.9621C71.6189 48.26 71.7183 48.8825 72.101 49.0738" stroke="#1A2147" stroke-width="3" stroke-linecap="round"/>
<path d="M187.612 120.818C184.176 120.474 180.75 120.099 177.474 121.395C170.072 124.321 162.598 128.736 160.833 136.898C160.502 138.427 160.673 140.43 160.936 141.955C161.771 146.8 163.544 151.274 166.522 155.103C169.139 158.468 172.788 161.461 176.336 163.748C178.611 165.214 180.659 166.917 182.981 168.33C184.444 169.221 185.786 170.277 187.09 171.381C188.101 172.236 188.977 173.114 190.164 173.767C191.587 174.55 193.184 175.538 194.857 175.584C197.932 175.67 200.686 171.703 198.729 169.042C196.198 165.599 193.847 163.655 190.456 160.942C189.863 160.468 189.115 160.2 188.536 159.726C187.027 158.491 185.25 157.75 185.328 155.64C185.363 154.711 187.147 153.965 187.975 153.965C189.474 153.965 190.939 154.5 192.361 154.898C197.392 156.306 218.604 175.846 222.166 173.514C225.568 171.287 222.875 166.789 223.335 166.687C225.301 166.25 229.649 175.889 232.97 170.401C234.006 169.182 233.168 166.718 232.375 165.375C231.627 164.111 231.288 163.432 232.335 162.151C232.918 161.439 233.436 160.938 233.797 160.081C234.747 157.825 233.022 155.182 232.059 153.254C230.708 150.554 228.245 148.357 225.872 146.577C225.459 146.268 225.6 146.127 225.753 145.684C226.09 144.711 226.433 143.928 226.433 142.879C226.433 139.183 221.244 135.399 218.61 133.626C212.157 129.283 204.088 124.746 196.533 122.675C193.698 121.897 190.535 121.11 187.612 120.818Z" stroke="#1A2147" stroke-width="3" stroke-linecap="round"/>
<path d="M209.344 135.224C209.883 135.331 210.457 135.892 210.941 136.16C211.377 136.4 211.935 136.624 212.408 136.782C212.815 136.918 213.222 137.334 213.521 137.633C213.895 138.007 214.376 138.253 214.758 138.635C216.306 140.182 218.39 141.727 220.304 142.766C221.57 143.454 222.783 144.262 224.004 145.006C224.377 145.233 224.878 145.336 225.195 145.654C225.493 145.952 225.831 146.355 226.197 146.538" stroke="#1A2147" stroke-width="3" stroke-linecap="round"/>
<path d="M208.517 141.824C210.709 144.258 214.015 145.771 216.885 147.245C217.169 147.391 217.304 147.598 217.501 147.834C217.774 148.163 218.243 148.408 218.594 148.653C219.154 149.042 219.656 149.427 220.139 149.91C221.249 151.019 222.309 152.266 223.537 153.249C224.571 154.076 225.411 155.129 226.314 156.084C227.306 157.134 228.531 158.208 229.312 159.437C229.821 160.235 230.381 160.905 231.028 161.623C231.375 162.009 231.552 163.182 231.971 163.391" stroke="#1A2147" stroke-width="3" stroke-linecap="round"/>
<path d="M195.907 145.713C196.227 145.713 196.386 145.958 196.654 146.119C197.112 146.395 197.609 146.594 198.055 146.891C198.602 147.256 199.146 147.655 199.679 148.044C201.352 149.265 203.305 150.103 205.028 151.252C206.557 152.271 207.821 153.636 209.343 154.67C210.681 155.579 211.791 156.656 212.996 157.728C213.957 158.581 215.006 159.237 216.008 160.032C216.439 160.374 217.135 160.804 217.652 161.034C218.01 161.193 218.787 161.596 219.007 161.885C219.719 162.822 221.15 163.257 221.829 164.275C222.344 165.047 223.2 165.767 223.603 166.573" stroke="#1A2147" stroke-width="3" stroke-linecap="round"/>
<path d="M62.2023 128.526C60.3138 128.526 59.8519 128.526 57.9743 128.526C47.4712 128.526 35.161 126.567 24.7674 125.399C24.7674 125.399 25.2096 123.999 25.3891 123.461C25.6783 122.593 25.9782 121.752 26.2486 120.873C26.4676 120.162 26.5777 119.203 26.5777 118.487C26.5777 118.01 26.498 117.46 26.66 117.006C26.8762 116.401 26.4636 115.833 26.66 115.205C26.8697 114.534 26.4602 112.971 26.1663 112.325C25.8466 111.622 25.6666 110.775 25.2611 110.131C24.1373 108.346 23.1204 105.999 20.9457 105.193C19.8334 104.781 18.8491 104.053 17.6909 103.712C16.6275 103.4 15.5502 103.497 14.4817 103.264C12.4139 102.815 9.76781 103.339 7.89886 104.169C6.00524 105.011 7.1873 107.166 6.86571 108.613C6.70623 109.331 6.82914 110.181 6.82914 110.917C6.82914 111.809 6.68831 112.672 6.66457 113.55C6.61582 115.354 6.68221 117.069 6.372 118.853C6.10589 120.383 6.17086 122.196 6.17086 123.753C6.17086 125.299 6.03755 126.718 6.16171 128.27C6.29306 129.912 5.80882 131.629 6.08857 133.308C6.33587 134.792 6.17086 136.406 6.17086 137.907C6.17086 139.669 6.0062 145.971 6.0062 145.971C6.0062 145.971 12.351 145.477 15.5422 145.477H26.9799C30.6633 145.477 34.3837 145.907 38.0062 145.806C39.5882 145.762 41.1211 145.971 42.7056 145.971C43.5035 145.971 44.2838 145.806 45.0096 145.806" stroke="#1A2147" stroke-width="3" stroke-linecap="round"/>
<path d="M139.391 102.277C139.391 102.277 147.956 94.1792 157.206 86.6717C158.851 85.3357 160.25 83.7206 161.732 82.2062C163.413 80.4881 165.448 79.134 167.173 77.4444C170.11 74.5669 173.123 71.7333 176.053 68.8366C177.611 67.297 179.259 65.7486 180.445 63.9005C180.718 63.4742 181.615 62.6234 181.615 62.6234C190.066 65.4389 205.318 90.3932 205.603 91.7226C205.888 93.0519 205.484 93.7883 205.501 94.9279C205.519 96.0811 204.518 97.9479 203.612 98.6189C202.388 99.5262 200.664 99.7466 199.186 99.8365C197.272 99.9528 195.842 100.168 194.054 99.1583C192.584 98.3278 190.751 97.0087 189.814 95.5853C189.307 94.8156 188.666 94.1257 188.187 93.3521C187.766 92.6736 187.208 91.6886 186.549 91.2221C185.686 90.6119 184.625 90.0646 183.731 89.5976C182.947 89.188 182.08 91.1373 181.626 91.5254C180.348 92.6156 179.104 93.6663 177.681 94.6029C175.791 95.8468 174.257 97.5227 172.411 98.7885C171.622 99.3295 170.681 99.9922 169.982 100.65C169.306 101.284 168.391 101.673 167.749 102.277C166.513 103.438 165.167 104.728 163.727 105.676C162.634 106.395 161.913 107.542 160.758 108.111C160.181 108.395 159.22 109.184 158.818 109.694" stroke="#1A2147" stroke-width="3" stroke-linecap="round"/>
<path d="M86.4023 92.5116L31.9471 107.315L67.8981 123.176L21.3733 171.815L84.2875 150.139L105.435 213.053L114.423 146.967L166.763 195.606L136.628 137.979L172.579 107.315L130.812 115.774L156.189 76.1222L118.652 92.5116L101.734 49.159L86.4023 92.5116Z" fill="#1A2147" stroke="#1A2147" stroke-width="3"/>
<path d="M85.1174 110.421C85.9927 109.997 86.9633 109.756 87.9209 109.621C90.9103 109.199 93.606 109.316 95.8362 111.521C97.4303 113.097 97.6247 115.214 97.6247 117.363C97.6247 118.668 97.1981 119.923 96.8029 121.151C96.6333 121.678 96.3243 122.131 96.1564 122.662C95.9102 123.441 95.5842 124.193 95.1776 124.908C94.5253 126.055 93.122 126.925 91.9692 127.495C90.8493 128.048 89.525 128.463 88.2714 128.463C86.8039 128.463 85.5812 128.145 84.2412 127.549C83.742 127.326 83.1128 127.099 82.6703 126.796C82.1612 126.447 81.4603 126.115 81.0389 125.667C80.238 124.814 79.7121 124 79.1356 123.002C78.841 122.493 78.8259 121.725 78.8093 121.151C78.7887 120.438 78.5918 119.727 78.5918 119C78.5918 118.631 78.6922 118.274 78.7006 117.901C78.7105 117.46 79.0012 117.223 79.19 116.849C79.5351 116.167 79.5028 115.393 79.9513 114.752C80.1914 114.41 80.242 114.013 80.3561 113.623C80.4916 113.161 80.8757 113.044 81.202 112.757C81.7798 112.249 82.4665 111.973 83.0449 111.473C83.593 110.999 84.4609 110.74 85.1174 110.421Z" fill="white"/>
<path d="M100.677 112.745C100.199 113.038 99.8655 113.503 99.4798 113.89C98.1855 115.189 98.5554 117.334 98.8592 118.972C98.9509 119.467 98.9054 120.004 98.9755 120.496C99.0359 120.92 99.2525 121.357 99.4798 121.719C99.7309 122.119 99.8548 122.621 100.123 123.043C100.395 123.472 100.744 123.848 100.976 124.299C101.193 124.722 101.765 125.206 102.173 125.456C102.728 125.796 103.047 126.126 103.669 126.346C104.257 126.554 104.725 127.035 105.376 127.107C105.899 127.166 106.408 127.285 106.938 127.302C107.218 127.311 107.562 127.464 107.836 127.38C108.899 127.052 110.005 126.912 110.972 126.301C111.96 125.677 112.749 124.99 113.194 123.849C113.562 122.906 114.036 121.899 114.147 120.896C114.211 120.318 114.524 119.747 114.541 119.15C114.56 118.462 114.439 117.909 114.341 117.243C113.992 114.881 112.598 113.342 111.005 111.744C110.095 110.831 108.668 110.487 107.415 110.487C106.195 110.487 104.982 110.588 103.818 110.943C102.621 111.309 101.707 112.113 100.677 112.745Z" fill="white"/>
<path d="M113 121C113 123.761 108.985 126 106.5 126C104.015 126 102 123.761 102 121C102 118.239 106.015 116 108.5 116C110.985 116 113 118.239 113 121Z" fill="#1A2147"/>
<path d="M93.4453 117.34C92.4881 120.055 88.1674 121.006 85.9731 120.232C83.7788 119.458 82.7759 116.63 83.7331 113.916C84.6903 111.201 89.011 110.25 91.2053 111.024C93.3997 111.797 94.4025 114.625 93.4453 117.34Z" fill="#1A2147"/>
</svg>
