<svg width="96" height="96" viewBox="0 0 96 96" fill="none" xmlns="http://www.w3.org/2000/svg">
<path d="M59.0028 12.0514C59.382 12.0514 59.7662 11.9951 60.1293 11.9951C60.4583 11.9951 60.8001 12.0514 61.1149 12.0514C61.525 12.0514 61.9319 12.3362 62.3258 12.3924C62.5392 12.4229 62.8034 12.5605 62.9986 12.6459C63.1833 12.7267 63.3046 12.7626 63.4523 12.8962C64.269 13.6352 65.3633 13.9709 66.0713 14.8362C66.3046 15.1214 66.6647 15.3329 66.8441 15.656C67.0071 15.9493 67.1302 16.2532 67.2822 16.5571C67.3484 16.6897 67.4749 16.9704 67.592 17.064C67.7093 17.1579 67.9707 17.6996 68.0144 17.8526C68.1638 18.3754 68.3882 18.8075 68.4775 19.3607C68.6385 20.359 68.9719 21.3718 68.9719 22.3865C68.9719 22.7071 68.8592 23.015 68.8592 23.3189C68.8592 23.785 68.707 24.2288 68.6902 24.68C68.6705 25.2143 68.5395 25.8514 68.3805 26.3603C68.2781 26.6878 68.2409 27.0856 68.0707 27.3835C67.8559 27.7594 67.7166 28.2169 67.52 28.6101C67.2908 29.0685 67.0265 29.4965 66.7503 29.9305C66.5847 30.1906 66.288 30.3427 66.0744 30.5563C65.851 30.7797 65.6824 31.061 65.458 31.2854C65.1757 31.5677 64.8573 31.8276 64.5662 32.0895C63.9731 32.6233 63.2413 32.8702 62.5543 33.2566C62.214 33.448 61.7843 33.4867 61.4247 33.6665C61.066 33.8459 60.5851 33.8665 60.1887 33.9325C59.5334 34.0417 58.8193 34.1296 58.1549 34.1296C57.6715 34.1296 57.1986 34.2986 56.7249 34.2986C55.922 34.2986 55.1475 34.235 54.3844 34.017C54.0498 33.9214 53.7323 33.7429 53.4019 33.6227C53.108 33.5158 52.8131 33.425 52.5258 33.2973C52.258 33.1783 51.9696 33.1503 51.7123 33.0032C51.5775 32.9262 51.2368 32.7344 51.1741 32.6089" stroke="#1A2147" stroke-width="3" stroke-linecap="round"/>
<path fill-rule="evenodd" clip-rule="evenodd" d="M52.1192 32.0933C52.2216 32.0242 52.3233 31.9555 52.4268 31.898C53.0001 31.5795 53.5326 31.1387 54.0567 30.7049C54.2938 30.5087 54.5292 30.3138 54.7659 30.1324C55.1627 29.8282 55.5629 29.5595 55.9769 29.2835C56.1948 29.1382 56.3605 28.8261 56.494 28.5745C56.5202 28.5249 56.5453 28.4778 56.5692 28.4347C56.6299 28.3254 56.6915 28.2157 56.7532 28.1057C57.2684 27.1874 57.8003 26.2394 58.0293 25.209C58.1006 24.8879 58.2736 24.5501 58.4406 24.2238C58.5326 24.044 58.6228 23.8678 58.6933 23.6999C58.8369 23.3575 58.9426 23.0086 59.0486 22.6589C59.1032 22.4789 59.1578 22.2988 59.2177 22.1191C59.426 21.4943 59.5492 20.8353 59.644 20.1837C59.6711 19.9971 59.6835 19.8103 59.6958 19.6231C59.7095 19.4156 59.7232 19.2077 59.7572 18.9991C59.7657 18.947 59.7783 18.8848 59.7919 18.8176C59.8314 18.6235 59.8792 18.3881 59.859 18.237C59.8255 17.9853 59.7959 17.7254 59.7658 17.4616C59.6696 16.6165 59.5688 15.732 59.3195 14.9547C59.1674 14.4804 59.0456 13.9587 58.9838 13.4645C58.9745 13.3907 58.9725 13.2962 58.9703 13.1952C58.9653 12.9593 58.9594 12.688 58.8593 12.5628C58.7952 12.4828 58.7469 12.315 58.7087 12.1825C58.6962 12.1394 58.6849 12.1 58.6744 12.0686C58.6292 11.9328 58.5696 11.8027 58.5101 11.6728C58.4454 11.5314 58.3807 11.3902 58.3349 11.2424C58.2775 11.0576 58.2283 10.8626 58.1784 10.6648C58.0492 10.1526 57.9152 9.62132 57.6218 9.19755C57.5624 9.11168 57.4819 9.03132 57.3998 8.94937C57.3211 8.87088 57.2411 8.79095 57.1766 8.70332C57.1643 8.68655 57.152 8.66985 57.1398 8.65321C56.8556 8.26687 56.5961 7.91416 56.3655 7.4885C55.9488 6.71925 55.4808 6.19401 54.8036 5.62101C54.5955 5.44489 54.3341 5.34932 54.0753 5.25466C53.85 5.17226 53.6266 5.09055 53.4416 4.95701C53.0051 4.64173 52.5329 4.37469 52.0231 4.19114C51.4585 3.98789 50.8942 3.73974 50.3556 3.4781C50.1077 3.35771 49.8433 3.28558 49.5795 3.21364C49.3827 3.15995 49.1862 3.10637 48.9974 3.03292C48.6439 2.89545 48.2685 2.82545 47.8935 2.75553C47.6428 2.70879 47.3924 2.66208 47.1487 2.59528C46.4584 2.40598 45.741 2.22509 45.0209 2.1916C44.2668 2.15653 43.5668 2.25807 42.8327 2.37646C42.5017 2.42986 42.2005 2.55512 41.8975 2.68116C41.7082 2.75987 41.5183 2.83887 41.3199 2.90087C39.6418 3.42527 38.1806 4.41542 36.733 5.39629C36.317 5.67819 35.9021 5.95932 35.4835 6.22841C34.163 7.07732 33.0725 8.23205 32.3597 9.65782C32.0886 10.2 31.8751 10.7457 31.6592 11.2976C31.5306 11.6264 31.4011 11.9574 31.258 12.2912C31.1455 12.5537 31.0198 12.8184 30.8928 13.0856C30.5433 13.8213 30.1844 14.5768 30.0658 15.3622C29.9524 16.1135 30.1963 16.8985 30.4205 17.6032C30.4798 17.7896 30.5228 17.9847 30.566 18.1804C30.6301 18.471 30.6945 18.7629 30.8128 19.0293C30.9576 19.3549 31.0158 19.7151 31.0744 20.0772C31.1258 20.3953 31.1775 20.7148 31.2882 21.0137C31.3738 21.2448 31.4841 21.4713 31.5945 21.6982C31.6856 21.8853 31.7767 22.0725 31.8541 22.2625C31.9592 22.5205 32.1133 22.7637 32.2664 23.0054C32.4254 23.2563 32.5832 23.5055 32.6841 23.7678C32.9245 24.3928 33.2104 25.0693 33.5141 25.6768C33.7029 26.0543 33.9688 26.4032 34.229 26.7445C34.309 26.8494 34.3884 26.9535 34.4648 27.0576C34.5149 27.1258 34.5694 27.2079 34.6277 27.2958C34.8121 27.5739 35.035 27.9101 35.2798 28.0461C35.4633 28.1481 35.6273 28.2789 35.7919 28.4103C35.9549 28.5403 36.1185 28.6709 36.3022 28.7742C36.4917 28.8808 36.6804 28.991 36.8691 29.1013C37.1753 29.2801 37.4816 29.459 37.7924 29.6231C38.0161 29.7411 38.2471 29.8322 38.4793 29.9236C38.6708 29.9991 38.863 30.0749 39.0525 30.1663C39.0946 30.1867 39.1366 30.2071 39.1785 30.2274C39.4329 30.351 39.6854 30.4737 39.9504 30.5738C40.0461 30.6099 40.1514 30.6279 40.2559 30.6457C40.368 30.6647 40.4792 30.6837 40.5767 30.7247C41.0032 30.9043 41.415 31.1271 41.8282 31.3507C42.0213 31.4552 42.2148 31.5598 42.4102 31.6603C42.8409 31.8818 43.2888 31.9827 43.7409 32.0844C43.9709 32.1362 44.202 32.1882 44.4324 32.2564C44.7761 32.3583 45.142 32.3354 45.5095 32.3125C45.904 32.2879 46.3004 32.2631 46.6734 32.3922C46.7218 32.409 46.7722 32.4267 46.8243 32.4449C47.2687 32.6008 47.8314 32.7981 48.2655 32.8148C50.0302 32.8827 50.2598 32.886 51.593 32.3922C51.7779 32.3238 51.9495 32.2079 52.1192 32.0933ZM50.8379 5.23074C49.6524 4.61326 48.1654 4.12766 46.8182 4.12766C46.531 4.12766 46.2474 4.10927 45.9639 4.09088C45.6806 4.0725 45.3973 4.05412 45.1104 4.05412C44.7268 4.05412 44.3555 4.09372 43.9822 4.13353C43.7572 4.15752 43.5315 4.18159 43.302 4.19711C43.0531 4.21395 42.8061 4.26214 42.5597 4.31021C42.3168 4.35758 42.0746 4.40483 41.8319 4.42182C41.4439 4.44896 41.0857 4.61694 40.7304 4.78361C40.5 4.89164 40.2708 4.99912 40.0355 5.06732C39.8133 5.13172 39.605 5.25246 39.4006 5.37102C39.334 5.4096 39.2679 5.44794 39.2018 5.48404C39.034 5.57569 38.8601 5.65433 38.6859 5.73312C38.4352 5.84646 38.1839 5.96011 37.9492 6.1132C36.927 6.77976 36.2878 7.79016 35.6534 8.80145C35.4524 9.12176 35.2816 9.47442 35.111 9.82654C34.9867 10.0831 34.8626 10.3394 34.727 10.5827C34.6149 10.7838 34.5352 11.0039 34.4555 11.224C34.3638 11.4772 34.272 11.7305 34.1309 11.9554C33.9811 12.1942 33.9031 12.6884 33.8481 13.0376C33.8368 13.109 33.8265 13.1743 33.8167 13.2301C33.7392 13.6734 33.6379 14.1219 33.5374 14.5671C33.4927 14.7651 33.4482 14.9625 33.4059 15.1585C32.9791 17.1377 32.9617 20.2669 33.8006 22.1814C33.8491 22.292 33.8738 22.4091 33.8985 22.5256C33.9242 22.6472 33.9497 22.7681 34.002 22.88C34.0618 23.0081 34.0931 23.1438 34.1243 23.2789C34.1597 23.4325 34.195 23.5854 34.2719 23.7257C34.377 23.9177 34.4567 24.123 34.5363 24.3282C34.6274 24.5631 34.7185 24.7979 34.8478 25.0126C35.2173 25.6259 35.5564 26.1802 36.0118 26.7449C36.5343 27.3926 37.131 27.9854 37.7881 28.4853C37.9863 28.6361 38.18 28.7885 38.3719 28.9395C39.3707 29.7253 40.322 30.4737 41.6144 30.765C41.8375 30.8153 42.0501 30.9062 42.2631 30.9973C42.5269 31.1101 42.7911 31.2232 43.0764 31.2593C43.114 31.2641 43.1517 31.269 43.1895 31.2738C43.6302 31.3306 44.0834 31.3891 44.5304 31.3206C44.8742 31.268 45.2178 31.2258 45.5611 31.1836C46.0503 31.1235 46.5391 31.0634 47.0276 30.9733C47.2524 30.9319 47.4543 30.8556 47.6552 30.7797C47.8299 30.7137 48.0039 30.648 48.1916 30.6057C51.9241 29.7643 54.7838 25.8794 56.2753 22.4756C56.3986 22.1941 56.5233 21.9178 56.6473 21.643C56.9324 21.0111 57.214 20.3871 57.4675 19.726C57.7565 18.9721 57.7977 18.2931 57.7977 17.5035C57.7977 16.9197 57.6819 16.3502 57.548 15.7876C56.9652 13.3384 56.3669 11.531 54.9703 9.4061C54.227 8.27523 52.043 5.85849 50.8379 5.23074Z" fill="#1A2147"/>
<path d="M52.4268 31.898L51.6983 30.5868L51.6983 30.5868L52.4268 31.898ZM52.1192 32.0933L52.9586 33.3365L52.9586 33.3365L52.1192 32.0933ZM54.0567 30.7049L55.0132 31.8604H55.0132L54.0567 30.7049ZM54.7659 30.1324L55.6785 31.3228L55.6785 31.3228L54.7659 30.1324ZM55.9769 29.2835L55.1449 28.0354L55.1449 28.0354L55.9769 29.2835ZM56.494 28.5745L57.819 29.2776L57.819 29.2776L56.494 28.5745ZM56.5692 28.4347L55.258 27.7062L55.258 27.7062L56.5692 28.4347ZM56.7532 28.1057L58.0614 28.8396L58.0614 28.8396L56.7532 28.1057ZM58.0293 25.209L56.565 24.8836L56.565 24.8836L58.0293 25.209ZM58.4406 24.2238L59.7758 24.9073L59.7758 24.9073L58.4406 24.2238ZM58.6933 23.6999L57.31 23.1198L58.6933 23.6999ZM59.0486 22.6589L57.6131 22.2238V22.2238L59.0486 22.6589ZM59.2177 22.1191L60.6407 22.5935L60.6407 22.5935L59.2177 22.1191ZM59.644 20.1837L58.1596 19.9678L58.1596 19.9678L59.644 20.1837ZM59.6958 19.6231L61.1926 19.7219V19.7219L59.6958 19.6231ZM59.7572 18.9991L58.2767 18.758L58.2767 18.7581L59.7572 18.9991ZM59.7919 18.8176L61.2619 19.1162V19.1162L59.7919 18.8176ZM59.859 18.237L61.3459 18.0387L61.3459 18.0387L59.859 18.237ZM59.7658 17.4616L61.2562 17.2918L61.2562 17.2918L59.7658 17.4616ZM59.3195 14.9547L57.8912 15.4129L57.8912 15.4129L59.3195 14.9547ZM58.9838 13.4645L60.4722 13.2784V13.2784L58.9838 13.4645ZM58.9703 13.1952L60.47 13.163V13.163L58.9703 13.1952ZM58.8593 12.5628L57.688 13.4999L57.688 13.4999L58.8593 12.5628ZM58.7087 12.1825L60.15 11.767V11.767L58.7087 12.1825ZM58.6744 12.0686L57.2514 12.5429V12.5429L58.6744 12.0686ZM58.5101 11.6728L59.874 11.0484L59.874 11.0484L58.5101 11.6728ZM58.3349 11.2424L59.7675 10.7978L59.7675 10.7978L58.3349 11.2424ZM58.1784 10.6648L56.724 11.0317L56.724 11.0317L58.1784 10.6648ZM57.6218 9.19755L56.3885 10.0514L56.3885 10.0514L57.6218 9.19755ZM57.3998 8.94937L58.4595 7.88776L58.4595 7.88776L57.3998 8.94937ZM57.1766 8.70332L58.3851 7.81474L58.3851 7.81471L57.1766 8.70332ZM57.1398 8.65321L55.9315 9.5421L55.9315 9.54212L57.1398 8.65321ZM56.3655 7.4885L55.0466 8.20293V8.20293L56.3655 7.4885ZM54.8036 5.62101L53.8347 6.76608L53.8347 6.76609L54.8036 5.62101ZM54.0753 5.25466L53.5601 6.66341L54.0753 5.25466ZM53.4416 4.95701L54.3199 3.74099L54.3199 3.74099L53.4416 4.95701ZM52.0231 4.19114L51.515 5.60247L51.515 5.60248L52.0231 4.19114ZM50.3556 3.4781L49.7002 4.82736L50.3556 3.4781ZM49.5795 3.21364L49.1848 4.66077H49.1848L49.5795 3.21364ZM48.9974 3.03292L48.4537 4.43092L48.4537 4.43093L48.9974 3.03292ZM47.8935 2.75553L47.6185 4.23011V4.23011L47.8935 2.75553ZM47.1487 2.59528L46.7521 4.04189L46.7521 4.04189L47.1487 2.59528ZM45.0209 2.1916L44.9512 3.68998L45.0209 2.1916ZM42.8327 2.37646L42.5939 0.895603L42.8327 2.37646ZM41.8975 2.68116L42.4735 4.06615L41.8975 2.68116ZM41.3199 2.90087L41.7673 4.33259L41.7673 4.33259L41.3199 2.90087ZM36.733 5.39629L37.5744 6.63806L36.733 5.39629ZM35.4835 6.22841L36.2946 7.49018L36.2946 7.49018L35.4835 6.22841ZM32.3597 9.65782L33.7013 10.3286H33.7013L32.3597 9.65782ZM31.6592 11.2976L33.0561 11.8441L33.0561 11.8441L31.6592 11.2976ZM31.258 12.2912L32.6367 12.8821L32.6367 12.8821L31.258 12.2912ZM30.8928 13.0856L32.2477 13.7293L32.2477 13.7293L30.8928 13.0856ZM30.0658 15.3622L28.5827 15.1383L30.0658 15.3622ZM30.4205 17.6032L31.8499 17.1484L31.8499 17.1484L30.4205 17.6032ZM30.566 18.1804L29.1012 18.5034L30.566 18.1804ZM30.8128 19.0293L29.4421 19.6385H29.4421L30.8128 19.0293ZM31.0744 20.0772L32.5552 19.8378L32.5552 19.8378L31.0744 20.0772ZM31.2882 21.0137L29.8816 21.5347L29.8816 21.5347L31.2882 21.0137ZM31.5945 21.6982L32.9432 21.0417L32.9432 21.0417L31.5945 21.6982ZM31.8541 22.2625L33.2433 21.6965L31.8541 22.2625ZM32.2664 23.0054L30.9993 23.8081L30.9993 23.8081L32.2664 23.0054ZM32.6841 23.7678L34.0841 23.2293H34.0841L32.6841 23.7678ZM33.5141 25.6768L32.1725 26.3476L33.5141 25.6768ZM34.229 26.7445L33.0361 27.6539L33.0361 27.6539L34.229 26.7445ZM34.4648 27.0576L35.6737 26.1695L35.6737 26.1695L34.4648 27.0576ZM34.6277 27.2958L33.3775 28.1248L33.3775 28.1248L34.6277 27.2958ZM35.2798 28.0461L34.5513 29.3573L34.5513 29.3573L35.2798 28.0461ZM35.7919 28.4103L36.7275 27.2378L36.7275 27.2378L35.7919 28.4103ZM36.3022 28.7742L37.0376 27.4668L37.0375 27.4668L36.3022 28.7742ZM36.8691 29.1013L37.6257 27.806L37.6257 27.806L36.8691 29.1013ZM37.7924 29.6231L38.4925 28.2965L37.7924 29.6231ZM38.4793 29.9236L39.0292 28.5281H39.0292L38.4793 29.9236ZM39.0525 30.1663L38.4004 31.5172L38.4004 31.5172L39.0525 30.1663ZM39.1785 30.2274L39.834 28.8782H39.834L39.1785 30.2274ZM39.9504 30.5738L40.4805 29.1706L40.4805 29.1706L39.9504 30.5738ZM40.2559 30.6457L40.5076 29.1669L40.5076 29.1669L40.2559 30.6457ZM40.5767 30.7247L39.9946 32.1071H39.9946L40.5767 30.7247ZM41.8282 31.3507L42.542 30.0314H42.542L41.8282 31.3507ZM42.4102 31.6603L41.7242 32.9943H41.7242L42.4102 31.6603ZM43.7409 32.0844L43.4115 33.5478L43.4115 33.5478L43.7409 32.0844ZM44.4324 32.2564L44.0062 33.6946L44.0062 33.6946L44.4324 32.2564ZM45.5095 32.3125L45.603 33.8096H45.603L45.5095 32.3125ZM46.6734 32.3922L46.1827 33.8097L46.1827 33.8097L46.6734 32.3922ZM46.8243 32.4449L47.3207 31.0294L47.3206 31.0294L46.8243 32.4449ZM48.2655 32.8148L48.2078 34.3137H48.2078L48.2655 32.8148ZM51.593 32.3922L52.114 33.7989L52.114 33.7989L51.593 32.3922ZM50.8379 5.23074L50.1449 6.56109V6.56109L50.8379 5.23074ZM45.9639 4.09088L45.8668 5.58773H45.8668L45.9639 4.09088ZM43.9822 4.13353L43.8231 2.64199V2.64199L43.9822 4.13353ZM43.302 4.19711L43.2008 2.70053L43.2008 2.70053L43.302 4.19711ZM42.5597 4.31021L42.2725 2.83796L42.2725 2.83796L42.5597 4.31021ZM41.8319 4.42182L41.7272 2.92547V2.92547L41.8319 4.42182ZM40.7304 4.78361L41.3673 6.14167L41.3673 6.14167L40.7304 4.78361ZM40.0355 5.06732L39.618 3.62661L39.618 3.62661L40.0355 5.06732ZM39.4006 5.37102L40.1529 6.6687L40.1529 6.6687L39.4006 5.37102ZM39.2018 5.48404L39.9208 6.80048L39.9208 6.80048L39.2018 5.48404ZM38.6859 5.73312L38.0678 4.36639L38.0678 4.36639L38.6859 5.73312ZM37.9492 6.1132L38.7685 7.36968L38.7685 7.36968L37.9492 6.1132ZM35.6534 8.80145L36.924 9.59861L36.924 9.59861L35.6534 8.80145ZM35.111 9.82654L33.7611 9.17261L33.7611 9.17261L35.111 9.82654ZM34.727 10.5827L36.0373 11.3129L36.0373 11.3129L34.727 10.5827ZM34.4555 11.224L33.0452 10.7131L33.0452 10.7131L34.4555 11.224ZM34.1309 11.9554L35.4015 12.7526L35.4015 12.7526L34.1309 11.9554ZM33.8481 13.0376L35.3297 13.2714V13.2714L33.8481 13.0376ZM33.8167 13.2301L35.2943 13.4886L35.2943 13.4886L33.8167 13.2301ZM33.5374 14.5671L32.0742 14.2368L32.0742 14.2368L33.5374 14.5671ZM33.4059 15.1585L31.9396 14.8422L33.4059 15.1585ZM33.8006 22.1814L32.4267 22.7834L33.8006 22.1814ZM33.8985 22.5256L35.366 22.2153V22.2153L33.8985 22.5256ZM34.002 22.88L35.3611 22.2453L34.002 22.88ZM34.1243 23.2789L35.5859 22.9417L35.5859 22.9417L34.1243 23.2789ZM34.2719 23.7257L32.9563 24.4463L32.9563 24.4463L34.2719 23.7257ZM34.5363 24.3282L33.1378 24.8707L33.1378 24.8707L34.5363 24.3282ZM34.8478 25.0126L36.1327 24.2386L36.1327 24.2386L34.8478 25.0126ZM36.0118 26.7449L34.8443 27.6866L36.0118 26.7449ZM37.7881 28.4853L36.8799 29.6791L36.8799 29.6791L37.7881 28.4853ZM38.3719 28.9395L37.4444 30.1184L37.4444 30.1184L38.3719 28.9395ZM41.6144 30.765L41.2845 32.2283L41.2845 32.2283L41.6144 30.765ZM42.2631 30.9973L42.853 29.6182L42.8529 29.6182L42.2631 30.9973ZM43.0764 31.2593L42.8878 32.7474L42.8878 32.7474L43.0764 31.2593ZM43.1895 31.2738L43.3813 29.7861L43.3813 29.7861L43.1895 31.2738ZM44.5304 31.3206L44.3034 29.8379H44.3034L44.5304 31.3206ZM45.5611 31.1836L45.744 32.6724L45.744 32.6724L45.5611 31.1836ZM47.0276 30.9733L47.2997 32.4485H47.2997L47.0276 30.9733ZM47.6552 30.7797L48.1853 32.1829L48.1853 32.1829L47.6552 30.7797ZM48.1916 30.6057L48.5215 32.0689L48.5215 32.0689L48.1916 30.6057ZM56.2753 22.4756L54.9014 21.8736L54.9014 21.8736L56.2753 22.4756ZM56.6473 21.643L58.0145 22.26L58.0145 22.26L56.6473 21.643ZM57.4675 19.726L58.8681 20.263L58.8681 20.263L57.4675 19.726ZM57.548 15.7876L56.0888 16.1349V16.1349L57.548 15.7876ZM54.9703 9.4061L53.7168 10.23V10.23L54.9703 9.4061ZM51.6983 30.5868C51.5279 30.6815 51.3716 30.7882 51.2798 30.8502L52.9586 33.3365C53.0715 33.2602 53.1187 33.2295 53.1553 33.2092L51.6983 30.5868ZM53.1003 29.5494C52.5542 30.0014 52.1289 30.3476 51.6983 30.5868L53.1552 33.2092C53.8714 32.8114 54.5111 32.276 55.0132 31.8604L53.1003 29.5494ZM53.8532 28.942C53.5905 29.1434 53.3333 29.3565 53.1002 29.5494L55.0132 31.8604C55.2543 31.6608 55.4679 31.4842 55.6785 31.3228L53.8532 28.942ZM55.1449 28.0354C54.7332 28.3099 54.2944 28.6038 53.8532 28.942L55.6785 31.3228C56.031 31.0526 56.3926 30.8091 56.809 30.5316L55.1449 28.0354ZM55.1689 27.8714C55.1343 27.9366 55.1076 27.9868 55.0807 28.0346C55.0543 28.0814 55.0346 28.1135 55.0201 28.1352C55.005 28.1578 55.0033 28.1574 55.0159 28.1434C55.0275 28.1305 55.0692 28.0859 55.1449 28.0354L56.809 30.5316C57.1604 30.2973 57.3875 29.9919 57.5141 29.8025C57.6488 29.601 57.7583 29.392 57.819 29.2776L55.1689 27.8714ZM55.258 27.7062C55.2257 27.7643 55.1936 27.8249 55.1689 27.8714L57.819 29.2776C57.8469 29.225 57.8649 29.1912 57.8805 29.1631L55.258 27.7062ZM55.445 27.3717C55.3836 27.4813 55.3205 27.5937 55.258 27.7062L57.8805 29.1631C57.9394 29.057 57.9994 28.9502 58.0614 28.8396L55.445 27.3717ZM56.565 24.8836C56.3922 25.6611 55.9809 26.4167 55.445 27.3717L58.0614 28.8396C58.5559 27.9582 59.2084 26.8177 59.4936 25.5344L56.565 24.8836ZM57.1054 23.5402C56.9621 23.8201 56.6862 24.3382 56.565 24.8836L59.4936 25.5344C59.515 25.4377 59.585 25.28 59.7758 24.9073L57.1054 23.5402ZM57.31 23.1198C57.2658 23.2252 57.2035 23.3486 57.1054 23.5402L59.7758 24.9073C59.8617 24.7395 59.9799 24.5105 60.0766 24.28L57.31 23.1198ZM57.6131 22.2238C57.5037 22.5848 57.4189 22.86 57.31 23.1198L60.0766 24.28C60.2548 23.8549 60.3816 23.4323 60.4841 23.094L57.6131 22.2238ZM57.7947 21.6448C57.7272 21.8471 57.6667 22.047 57.6131 22.2238L60.4841 23.094C60.5396 22.9109 60.5884 22.7504 60.6407 22.5935L57.7947 21.6448ZM58.1596 19.9678C58.0696 20.5866 57.9615 21.1441 57.7947 21.6448L60.6407 22.5935C60.8904 21.8445 61.0288 21.084 61.1284 20.3996L58.1596 19.9678ZM58.1991 19.5244C58.1861 19.7211 58.1769 19.8492 58.1596 19.9678L61.1284 20.3996C61.1654 20.1451 61.1808 19.8995 61.1926 19.7219L58.1991 19.5244ZM58.2767 18.7581C58.2293 19.0489 58.212 19.3281 58.1991 19.5244L61.1926 19.7219C61.207 19.5032 61.2171 19.3664 61.2377 19.2401L58.2767 18.7581ZM58.322 18.519C58.3102 18.577 58.2909 18.6709 58.2767 18.758L61.2377 19.2401C61.2405 19.2231 61.2464 19.1926 61.2619 19.1162L58.322 18.519ZM58.3722 18.4352C58.3664 18.3916 58.3646 18.3574 58.3641 18.3357C58.3635 18.3136 58.364 18.2982 58.3644 18.2909C58.365 18.2782 58.3656 18.2802 58.3625 18.302C58.3596 18.3226 58.3549 18.3508 58.3477 18.3894C58.3403 18.4285 58.3321 18.4689 58.322 18.519L61.2619 19.1162C61.2799 19.0276 61.3114 18.8751 61.3332 18.7204C61.3518 18.5883 61.3841 18.325 61.3459 18.0387L58.3722 18.4352ZM58.2755 17.6313C58.3052 17.8924 58.3364 18.1669 58.3722 18.4352L61.3459 18.0387C61.3146 17.8038 61.2866 17.5584 61.2562 17.2918L58.2755 17.6313ZM57.8912 15.4129C58.0869 16.023 58.1755 16.7532 58.2755 17.6313L61.2562 17.2918C61.1637 16.4799 61.0508 15.4409 60.7479 14.4966L57.8912 15.4129ZM57.4954 13.6505C57.5702 14.2493 57.7146 14.8624 57.8912 15.4129L60.7479 14.4966C60.6202 14.0985 60.5209 13.6682 60.4722 13.2784L57.4954 13.6505ZM57.4707 13.2274C57.4723 13.3008 57.4744 13.4831 57.4954 13.6506L60.4722 13.2784C60.4738 13.2914 60.4742 13.2981 60.4741 13.2961C60.474 13.2944 60.4736 13.2884 60.4731 13.2763C60.4719 13.2495 60.4712 13.2171 60.47 13.163L57.4707 13.2274ZM57.688 13.4999C57.5587 13.3382 57.5062 13.1915 57.4874 13.1318C57.4763 13.0966 57.4703 13.0699 57.4672 13.0548C57.4641 13.0394 57.4629 13.0306 57.4629 13.0299C57.4628 13.0291 57.4633 13.0331 57.4641 13.0431C57.4649 13.053 57.4657 13.0664 57.4666 13.0843C57.4684 13.123 57.4694 13.1653 57.4707 13.2274L60.47 13.163C60.4679 13.0636 60.4649 12.8527 60.4381 12.6451C60.4184 12.4927 60.3559 12.0324 60.0306 11.6258L57.688 13.4999ZM57.2674 12.5981C57.2838 12.6551 57.3192 12.7798 57.3643 12.9042C57.3972 12.9949 57.4927 13.2558 57.688 13.4999L60.0306 11.6258C60.0724 11.6781 60.1021 11.7237 60.1213 11.7556C60.1408 11.7881 60.1545 11.8146 60.1629 11.832C60.1789 11.8649 60.1856 11.8841 60.1842 11.8805C60.1835 11.8785 60.1801 11.8688 60.1735 11.8473C60.1668 11.8254 60.16 11.8018 60.15 11.767L57.2674 12.5981ZM57.2514 12.5429C57.2493 12.5365 57.2495 12.5368 57.2531 12.549C57.2566 12.5609 57.2608 12.5751 57.2674 12.5981L60.15 11.767C60.1404 11.734 60.1198 11.6612 60.0974 11.5942L57.2514 12.5429ZM57.1462 12.2972C57.2113 12.4394 57.2359 12.4965 57.2514 12.5429L60.0974 11.5942C60.0224 11.3691 59.9278 11.166 59.874 11.0484L57.1462 12.2972ZM56.9023 11.687C56.9815 11.9424 57.0884 12.1707 57.1462 12.2972L59.874 11.0484C59.8024 10.892 59.78 10.8381 59.7675 10.7978L56.9023 11.687ZM56.724 11.0317C56.7719 11.2217 56.8308 11.4568 56.9023 11.687L59.7675 10.7978C59.7242 10.6583 59.6847 10.5035 59.6329 10.2979L56.724 11.0317ZM56.3885 10.0514C56.4994 10.2116 56.5803 10.4619 56.724 11.0317L59.6329 10.2979C59.5182 9.8433 59.331 9.03107 58.8551 8.34373L56.3885 10.0514ZM56.3401 10.011C56.3615 10.0324 56.3765 10.0473 56.3902 10.0613C56.4034 10.0747 56.4112 10.083 56.4159 10.0881C56.4205 10.0931 56.4196 10.0924 56.4153 10.0872C56.411 10.0819 56.4013 10.0698 56.3885 10.0514L58.8551 8.34373C58.7037 8.12502 58.5186 7.94679 58.4595 7.88776L56.3401 10.011ZM55.9682 9.5919C56.1122 9.78785 56.2772 9.94821 56.3401 10.011L58.4595 7.88776C58.439 7.86733 58.4242 7.8525 58.4103 7.83836C58.3969 7.82473 58.3877 7.81519 58.3812 7.80816C58.3671 7.79299 58.372 7.79687 58.3851 7.81474L55.9682 9.5919ZM55.9315 9.54212C55.9438 9.55877 55.956 9.57533 55.9682 9.59193L58.3851 7.81471C58.3726 7.79777 58.3602 7.78093 58.348 7.76431L55.9315 9.54212ZM55.0466 8.20293C55.3338 8.73319 55.6545 9.1655 55.9315 9.5421L58.348 7.76433C58.0566 7.36825 57.8583 7.09513 57.6844 6.77408L55.0466 8.20293ZM53.8347 6.76609C54.404 7.24781 54.738 7.63335 55.0466 8.20293L57.6844 6.77408C57.1596 5.80516 56.5576 5.14021 55.7725 4.47593L53.8347 6.76609ZM53.5601 6.66341C53.6273 6.688 53.6772 6.70628 53.7239 6.72452C53.7691 6.74216 53.8007 6.75565 53.824 6.76651C53.8718 6.78883 53.8639 6.79077 53.8347 6.76608L55.7725 4.47593C55.326 4.09807 54.8007 3.9228 54.5905 3.8459L53.5601 6.66341ZM52.5634 6.17302C52.9465 6.44969 53.3755 6.59592 53.5601 6.66341L54.5905 3.8459C54.4693 3.8016 54.4044 3.77727 54.3504 3.75337C54.3013 3.73164 54.2998 3.72651 54.3199 3.74099L52.5634 6.17302ZM51.515 5.60248C51.8668 5.72913 52.2156 5.92183 52.5634 6.17303L54.3199 3.74099C53.7946 3.36164 53.199 3.02024 52.5312 2.77981L51.515 5.60248ZM49.7002 4.82736C50.2717 5.10495 50.8866 5.37625 51.515 5.60247L52.5312 2.77981C52.0304 2.59953 51.5167 2.37452 51.0109 2.12884L49.7002 4.82736ZM49.1848 4.66077C49.4709 4.73882 49.5989 4.77816 49.7002 4.82736L51.0109 2.12884C50.6165 1.93727 50.2156 1.83234 49.9742 1.76651L49.1848 4.66077ZM48.4537 4.43093C48.7281 4.53762 49.001 4.61063 49.1848 4.66077L49.9742 1.76651C49.7644 1.70927 49.6444 1.67512 49.541 1.63491L48.4537 4.43093ZM47.6185 4.23011C48.0178 4.30455 48.253 4.35289 48.4537 4.43092L49.541 1.63491C49.0348 1.43802 48.5192 1.34635 48.1685 1.28095L47.6185 4.23011ZM46.7521 4.04189C47.0662 4.128 47.3786 4.18537 47.6185 4.23011L48.1685 1.28095C47.9071 1.23221 47.7186 1.19616 47.5454 1.14868L46.7521 4.04189ZM44.9512 3.68998C45.4879 3.71494 46.0618 3.85262 46.7521 4.04189L47.5454 1.14868C46.8549 0.959343 45.994 0.735241 45.0906 0.693221L44.9512 3.68998ZM43.0716 3.85733C43.8042 3.73916 44.3677 3.66284 44.9512 3.68998L45.0906 0.693221C44.166 0.650214 43.3293 0.77699 42.5939 0.895603L43.0716 3.85733ZM42.4735 4.06615C42.8016 3.92968 42.9428 3.8781 43.0716 3.85733L42.5939 0.895603C42.0607 0.981609 41.5994 1.18056 41.3215 1.29618L42.4735 4.06615ZM41.7673 4.33259C42.0418 4.24681 42.2943 4.14067 42.4735 4.06615L41.3215 1.29618C41.1222 1.37906 40.9948 1.43093 40.8725 1.46915L41.7673 4.33259ZM37.5744 6.63806C39.0544 5.63519 40.3356 4.78001 41.7673 4.33259L40.8725 1.46915C38.948 2.07054 37.3067 3.19564 35.8916 4.15451L37.5744 6.63806ZM36.2946 7.49018C36.731 7.20962 37.161 6.9182 37.5744 6.63806L35.8916 4.15451C35.4729 4.43817 35.0731 4.70902 34.6723 4.96665L36.2946 7.49018ZM33.7013 10.3286C34.2829 9.1654 35.1797 8.20689 36.2946 7.49018L34.6723 4.96665C33.1462 5.94775 31.8622 7.2987 31.018 8.987L33.7013 10.3286ZM33.0561 11.8441C33.2756 11.283 33.4655 10.8002 33.7013 10.3286L31.018 8.987C30.7116 9.59982 30.4746 10.2085 30.2623 10.7512L33.0561 11.8441ZM32.6367 12.8821C32.7908 12.5227 32.9288 12.1696 33.0561 11.8441L30.2623 10.7512C30.1323 11.0833 30.0114 11.3921 29.8793 11.7003L32.6367 12.8821ZM32.2477 13.7293C32.3723 13.467 32.5108 13.1758 32.6367 12.8821L29.8793 11.7003C29.7802 11.9316 29.6673 12.1698 29.5379 12.442L32.2477 13.7293ZM31.549 15.5861C31.6286 15.0591 31.8783 14.5068 32.2477 13.7293L29.5379 12.442C29.2083 13.1358 28.7402 14.0945 28.5827 15.1383L31.549 15.5861ZM31.8499 17.1484C31.6052 16.3794 31.4966 15.9335 31.549 15.5861L28.5827 15.1383C28.4083 16.2936 28.7873 17.4175 28.9911 18.058L31.8499 17.1484ZM32.0308 17.8573C31.9903 17.6739 31.9335 17.4111 31.8499 17.1484L28.9911 18.058C29.0261 18.1681 29.0553 18.2955 29.1012 18.5034L32.0308 17.8573ZM32.1836 18.4201C32.1373 18.3159 32.101 18.1759 32.0308 17.8573L29.1012 18.5034C29.1591 18.7661 29.2516 19.2098 29.4421 19.6385L32.1836 18.4201ZM32.5552 19.8378C32.5026 19.5128 32.421 18.9543 32.1836 18.4201L29.4421 19.6385C29.4942 19.7556 29.5291 19.9174 29.5936 20.3167L32.5552 19.8378ZM32.6948 20.4927C32.6436 20.3543 32.6108 20.182 32.5552 19.8378L29.5936 20.3167C29.6408 20.6085 29.7114 21.0752 29.8816 21.5347L32.6948 20.4927ZM32.9432 21.0417C32.8268 20.8025 32.7504 20.6426 32.6948 20.4927L29.8816 21.5347C29.9972 21.8469 30.1414 22.1402 30.2458 22.3547L32.9432 21.0417ZM33.2433 21.6965C33.1439 21.4527 33.0304 21.2208 32.9432 21.0417L30.2458 22.3547C30.3407 22.5497 30.4095 22.6922 30.465 22.8284L33.2433 21.6965ZM33.5335 22.2027C33.3666 21.9391 33.2891 21.8091 33.2433 21.6965L30.465 22.8284C30.6293 23.2319 30.86 23.5883 30.9993 23.8081L33.5335 22.2027ZM34.0841 23.2293C33.9203 22.8034 33.6759 22.4273 33.5335 22.2027L30.9993 23.8081C31.1749 24.0853 31.2461 24.2075 31.2841 24.3063L34.0841 23.2293ZM34.8558 25.006C34.5801 24.4548 34.3134 23.8254 34.0841 23.2293L31.2841 24.3063C31.5356 24.9602 31.8406 25.6839 32.1725 26.3476L34.8558 25.006ZM35.4219 25.8351C35.1451 25.472 34.9703 25.2352 34.8558 25.006L32.1725 26.3476C32.4354 26.8735 32.7926 27.3344 33.0361 27.6539L35.4219 25.8351ZM35.6737 26.1695C35.588 26.0529 35.5004 25.9381 35.4219 25.8351L33.0361 27.6539C33.1175 27.7606 33.1888 27.8542 33.256 27.9457L35.6737 26.1695ZM35.8778 26.4668C35.8254 26.3878 35.7495 26.2727 35.6737 26.1695L33.256 27.9457C33.2803 27.9788 33.3134 28.028 33.3775 28.1248L35.8778 26.4668ZM36.0082 26.7348C36.0869 26.7785 36.1274 26.8171 36.1307 26.8203C36.1359 26.8252 36.1256 26.8159 36.0993 26.7834C36.0739 26.7519 36.0428 26.7099 36.0039 26.6541C35.9645 26.5975 35.9253 26.5384 35.8778 26.4668L33.3775 28.1248C33.4627 28.2531 33.6025 28.4659 33.7629 28.6651C33.91 28.8478 34.1731 29.1472 34.5513 29.3573L36.0082 26.7348ZM36.7275 27.2378C36.5796 27.1198 36.3194 26.9077 36.0082 26.7348L34.5513 29.3573C34.6072 29.3884 34.675 29.4381 34.8563 29.5827L36.7275 27.2378ZM37.0375 27.4668C36.9768 27.4327 36.906 27.3803 36.7275 27.2378L34.8563 29.5827C35.0038 29.7004 35.2601 29.9091 35.5668 30.0816L37.0375 27.4668ZM37.6257 27.806C37.4387 27.6969 37.2396 27.5805 37.0376 27.4668L35.5668 30.0816C35.7439 30.1812 35.922 30.2852 36.1125 30.3965L37.6257 27.806ZM38.4925 28.2965C38.2151 28.1501 37.9367 27.9877 37.6257 27.806L36.1125 30.3965C36.4139 30.5725 36.7481 30.768 37.0922 30.9496L38.4925 28.2965ZM39.0292 28.5281C38.7851 28.4319 38.6311 28.3696 38.4925 28.2965L37.0922 30.9496C37.401 31.1126 37.7092 31.2324 37.9293 31.3192L39.0292 28.5281ZM39.7046 28.8155C39.4568 28.6959 39.2128 28.6004 39.0292 28.5281L37.9293 31.3192C38.1288 31.3978 38.2693 31.4539 38.4004 31.5172L39.7046 28.8155ZM39.834 28.8782C39.7923 28.858 39.7486 28.8368 39.7046 28.8155L38.4004 31.5172C38.4405 31.5365 38.4808 31.5561 38.523 31.5766L39.834 28.8782ZM40.4805 29.1706C40.2899 29.0986 40.0983 29.0066 39.834 28.8782L38.523 31.5766C38.7674 31.6954 39.0808 31.8488 39.4203 31.977L40.4805 29.1706ZM40.5076 29.1669C40.4942 29.1646 40.4833 29.1628 40.4727 29.1609C40.4623 29.1591 40.4538 29.1576 40.4463 29.1563C40.431 29.1535 40.4233 29.1519 40.4201 29.1512C40.417 29.1505 40.4214 29.1514 40.431 29.1541C40.4408 29.1568 40.4579 29.1621 40.4805 29.1706L39.4203 31.977C39.6755 32.0734 39.9285 32.1115 40.0042 32.1244L40.5076 29.1669ZM41.1587 29.3422C40.8724 29.2217 40.5817 29.1795 40.5076 29.1669L40.0042 32.1244C40.0187 32.1268 40.0302 32.1288 40.0413 32.1307C40.0521 32.1326 40.0608 32.1342 40.0682 32.1355C40.0755 32.1369 40.0808 32.1379 40.0845 32.1386C40.0864 32.139 40.0877 32.1393 40.0887 32.1395C40.0896 32.1397 40.09 32.1398 40.09 32.1398C40.0899 32.1398 40.0894 32.1397 40.0884 32.1394C40.0874 32.1392 40.0859 32.1388 40.084 32.1383C40.0801 32.1373 40.074 32.1356 40.0661 32.1332C40.0507 32.1286 40.0259 32.1203 39.9946 32.1071L41.1587 29.3422ZM42.542 30.0314C42.1402 29.814 41.6641 29.555 41.1587 29.3422L39.9946 32.1071C40.3422 32.2535 40.6898 32.4402 41.1144 32.6699L42.542 30.0314ZM43.0962 30.3264C42.9171 30.2343 42.7374 30.1371 42.542 30.0314L41.1144 32.6699C41.3052 32.7732 41.5125 32.8854 41.7242 32.9943L43.0962 30.3264ZM44.0702 30.621C43.5928 30.5135 43.3306 30.4469 43.0962 30.3264L41.7242 32.9943C42.3512 33.3167 42.9849 33.4518 43.4115 33.5478L44.0702 30.621ZM44.8585 30.8182C44.5723 30.7334 44.2927 30.6711 44.0702 30.621L43.4115 33.5478C43.6491 33.6013 43.8316 33.6429 44.0062 33.6946L44.8585 30.8182ZM45.4161 30.8154C45.2207 30.8276 45.1019 30.8341 44.9965 30.8316C44.8995 30.8294 44.8632 30.8196 44.8585 30.8182L44.0062 33.6946C44.6487 33.885 45.2882 33.8292 45.603 33.8096L45.4161 30.8154ZM47.164 30.9748C46.4589 30.7307 45.754 30.7943 45.4161 30.8154L45.603 33.8096C45.8132 33.7964 45.9373 33.7899 46.0466 33.7938C46.1455 33.7973 46.1799 33.8088 46.1827 33.8097L47.164 30.9748ZM47.3206 31.0294C47.2692 31.0114 47.2158 30.9927 47.164 30.9748L46.1827 33.8097C46.2278 33.8253 46.2753 33.842 46.328 33.8605L47.3206 31.0294ZM48.3231 31.3159C48.1643 31.3098 47.8405 31.2117 47.3207 31.0294L46.3279 33.8604C46.6969 33.9898 47.4985 34.2864 48.2078 34.3137L48.3231 31.3159ZM51.072 30.9856C50.4181 31.2278 50.1702 31.2944 49.9155 31.3244C49.6135 31.36 49.2496 31.3515 48.3231 31.3159L48.2078 34.3137C49.0461 34.3459 49.6793 34.373 50.2666 34.3038C50.9012 34.2291 51.4346 34.0505 52.114 33.7989L51.072 30.9856ZM51.2798 30.8502C51.1886 30.9117 51.1391 30.9446 51.0953 30.9707C51.055 30.9947 51.0509 30.9935 51.072 30.9856L52.114 33.7989C52.498 33.6566 52.8198 33.4301 52.9586 33.3365L51.2798 30.8502ZM46.8182 5.62766C47.8472 5.62766 49.0928 6.01306 50.1449 6.56109L51.5308 3.90039C50.212 3.21346 48.4836 2.62766 46.8182 2.62766V5.62766ZM45.8668 5.58773C46.1426 5.60562 46.4744 5.62766 46.8182 5.62766V2.62766C46.5875 2.62766 46.3522 2.61292 46.061 2.59403L45.8668 5.58773ZM45.1104 5.55412C45.3407 5.55412 45.5758 5.56885 45.8668 5.58773L46.061 2.59403C45.7854 2.57615 45.4539 2.55412 45.1104 2.55412V5.55412ZM44.1413 5.62507C44.5264 5.584 44.8194 5.55412 45.1104 5.55412V2.55412C44.6343 2.55412 44.1846 2.60344 43.8231 2.64199L44.1413 5.62507ZM43.4032 5.6937C43.6664 5.6759 43.9208 5.64859 44.1413 5.62507L43.8231 2.64199C43.5937 2.66646 43.3966 2.68729 43.2008 2.70053L43.4032 5.6937ZM42.8469 5.78245C43.1094 5.73124 43.2639 5.70312 43.4032 5.6937L43.2008 2.70053C42.8423 2.72478 42.5028 2.79303 42.2725 2.83796L42.8469 5.78245ZM41.9366 5.91816C42.287 5.89364 42.6203 5.82665 42.8469 5.78245L42.2725 2.83796C42.0134 2.88851 41.8623 2.91603 41.7272 2.92547L41.9366 5.91816ZM41.3673 6.14167C41.5559 6.05322 41.6728 5.99954 41.7807 5.9604C41.8801 5.92429 41.9248 5.91899 41.9366 5.91816L41.7272 2.92547C41.0124 2.97548 40.3998 3.28188 40.0934 3.42555L41.3673 6.14167ZM40.4531 6.50804C40.8211 6.40138 41.1577 6.23996 41.3673 6.14167L40.0934 3.42555C39.8423 3.54333 39.7206 3.59687 39.618 3.62661L40.4531 6.50804ZM40.1529 6.6687C40.2618 6.60558 40.3267 6.56847 40.3858 6.5387C40.4411 6.51087 40.4595 6.50618 40.4531 6.50804L39.618 3.62661C39.1887 3.75101 38.8212 3.97307 38.6482 4.07334L40.1529 6.6687ZM39.9208 6.80048C40.0065 6.75365 40.0893 6.70555 40.1529 6.6687L38.6482 4.07334C38.5787 4.11364 38.5292 4.14224 38.4828 4.1676L39.9208 6.80048ZM39.304 7.09986C39.4696 7.02493 39.6952 6.92367 39.9208 6.80048L38.4828 4.1676C38.3727 4.2277 38.2506 4.28372 38.0678 4.36639L39.304 7.09986ZM38.7685 7.36968C38.8912 7.28965 39.0369 7.22062 39.304 7.09986L38.0678 4.36639C37.8336 4.4723 37.4767 4.63057 37.1298 4.85673L38.7685 7.36968ZM36.924 9.59861C37.5857 8.54384 38.0657 7.82792 38.7685 7.36968L37.1298 4.85673C35.7882 5.7316 34.9899 7.03648 34.3827 8.00429L36.924 9.59861ZM36.461 10.4805C36.6385 10.114 36.7743 9.8373 36.924 9.59861L34.3827 8.00429C34.1306 8.40623 33.9247 8.83482 33.7611 9.17261L36.461 10.4805ZM36.0373 11.3129C36.1974 11.0256 36.3401 10.7299 36.461 10.4805L33.7611 9.17261C33.6333 9.4363 33.5277 9.65328 33.4167 9.85258L36.0373 11.3129ZM35.8658 11.7349C35.953 11.494 35.9941 11.3903 36.0373 11.3129L33.4167 9.85258C33.2357 10.1773 33.1174 10.5137 33.0452 10.7131L35.8658 11.7349ZM35.4015 12.7526C35.6423 12.3688 35.7841 11.9605 35.8658 11.7349L33.0452 10.7131C32.9435 10.9938 32.9017 11.0922 32.8602 11.1583L35.4015 12.7526ZM35.3297 13.2714C35.3586 13.0884 35.3844 12.9284 35.4162 12.7898C35.4315 12.7228 35.4436 12.6818 35.4504 12.6621C35.4598 12.6344 35.4487 12.6773 35.4015 12.7526L32.8602 11.1583C32.641 11.5077 32.5407 11.9065 32.4918 12.1204C32.4333 12.3759 32.3926 12.6376 32.3664 12.8039L35.3297 13.2714ZM35.2943 13.4886C35.3067 13.4178 35.3191 13.339 35.3297 13.2714L32.3664 12.8038C32.3545 12.879 32.3463 12.9307 32.3392 12.9717L35.2943 13.4886ZM35.0006 14.8975C35.0997 14.4587 35.2094 13.9742 35.2943 13.4886L32.3392 12.9717C32.269 13.3727 32.1762 13.785 32.0742 14.2368L35.0006 14.8975ZM34.8722 15.4747C34.9127 15.2869 34.9556 15.0967 35.0006 14.8975L32.0742 14.2368C32.0298 14.4336 31.9837 14.638 31.9396 14.8422L34.8722 15.4747ZM35.1745 21.5794C34.8614 20.8649 34.6713 19.8148 34.6276 18.6385C34.5845 17.4796 34.688 16.3285 34.8722 15.4747L31.9396 14.8422C31.6969 15.9676 31.5784 17.3708 31.6297 18.7499C31.6803 20.1116 31.9009 21.5834 32.4267 22.7834L35.1745 21.5794ZM35.366 22.2153C35.3466 22.1235 35.2949 21.8543 35.1745 21.5794L32.4267 22.7834C32.411 22.7476 32.4063 22.727 32.4088 22.7366C32.41 22.7411 32.4123 22.7503 32.4162 22.7673C32.4202 22.7854 32.4244 22.8052 32.4309 22.8358L35.366 22.2153ZM35.3611 22.2453C35.372 22.2686 35.379 22.2871 35.3831 22.2987C35.387 22.31 35.3885 22.3157 35.3878 22.3133C35.3871 22.3106 35.385 22.3025 35.3812 22.2856C35.3793 22.2772 35.3772 22.2676 35.3746 22.2557C35.372 22.2436 35.3693 22.2309 35.366 22.2153L32.4309 22.8358C32.4504 22.9281 32.5056 23.2206 32.6429 23.5147L35.3611 22.2453ZM35.5859 22.9417C35.5604 22.8311 35.4988 22.5401 35.3611 22.2453L32.6429 23.5147C32.6298 23.4866 32.6272 23.4737 32.6322 23.4911C32.6347 23.4995 32.6382 23.5128 32.6435 23.5342C32.6489 23.5566 32.6545 23.5807 32.6627 23.6161L35.5859 22.9417ZM35.5875 23.0052C35.6127 23.0512 35.6204 23.08 35.6174 23.0699C35.6158 23.0649 35.6126 23.0535 35.6071 23.0314C35.6012 23.0079 35.5952 22.9822 35.5859 22.9417L32.6627 23.6161C32.6906 23.737 32.7638 24.0948 32.9563 24.4463L35.5875 23.0052ZM35.9347 23.7857C35.8613 23.5964 35.7479 23.298 35.5875 23.0052L32.9563 24.4463C33.0062 24.5375 33.052 24.6496 33.1378 24.8707L35.9347 23.7857ZM36.1327 24.2386C36.0814 24.1534 36.034 24.0416 35.9347 23.7857L33.1378 24.8707C33.2208 25.0846 33.3556 25.4425 33.563 25.7867L36.1327 24.2386ZM37.1794 25.8031C36.7955 25.3272 36.5032 24.8536 36.1327 24.2386L33.563 25.7867C33.9314 26.3982 34.3172 27.0332 34.8443 27.6866L37.1794 25.8031ZM38.6962 27.2915C38.1445 26.8718 37.6333 26.3659 37.1794 25.8031L34.8443 27.6866C35.4352 28.4192 36.1175 29.0991 36.8799 29.6791L38.6962 27.2915ZM39.2994 27.7606C39.1089 27.6108 38.9057 27.4509 38.6962 27.2915L36.8799 29.6791C37.0668 29.8213 37.251 29.9662 37.4444 30.1184L39.2994 27.7606ZM41.9442 29.3017C41.0321 29.0961 40.3339 28.5745 39.2994 27.7606L37.4444 30.1184C38.4076 30.8761 39.6119 31.8512 41.2845 32.2283L41.9442 29.3017ZM42.8529 29.6182C42.6626 29.5367 42.324 29.3873 41.9442 29.3017L41.2845 32.2283C41.3511 32.2433 41.4377 32.2757 41.6732 32.3764L42.8529 29.6182ZM43.2651 29.7712C43.2574 29.7703 43.2258 29.7651 43.1547 29.7404C43.0773 29.7135 42.9931 29.6781 42.853 29.6182L41.6732 32.3764C41.9032 32.4748 42.3594 32.6804 42.8878 32.7474L43.2651 29.7712ZM43.3813 29.7861C43.3438 29.7813 43.3045 29.7762 43.2651 29.7712L42.8878 32.7474C42.9236 32.752 42.9597 32.7566 42.9978 32.7615L43.3813 29.7861ZM44.3034 29.8379C44.1005 29.869 43.859 29.8477 43.3813 29.7861L42.9978 32.7615C43.4013 32.8135 44.0664 32.9092 44.7575 32.8033L44.3034 29.8379ZM45.3782 29.6948C45.0385 29.7365 44.6729 29.7813 44.3034 29.8379L44.7575 32.8033C45.0756 32.7546 45.3971 32.715 45.744 32.6724L45.3782 29.6948ZM46.7556 29.4982C46.3188 29.5788 45.8746 29.6338 45.3782 29.6948L45.744 32.6724C46.226 32.6132 46.7595 32.5481 47.2997 32.4485L46.7556 29.4982ZM47.1251 29.3765C46.9084 29.4584 46.8281 29.4849 46.7556 29.4982L47.2997 32.4485C47.6768 32.3789 48.0002 32.2528 48.1853 32.1829L47.1251 29.3765ZM47.8618 29.1424C47.5556 29.2114 47.2856 29.3159 47.125 29.3765L48.1853 32.1829C48.3742 32.1115 48.4522 32.0846 48.5215 32.0689L47.8618 29.1424ZM54.9014 21.8736C54.2073 23.4577 53.2017 25.1335 51.9649 26.4915C50.7215 27.8567 49.3272 28.8121 47.8618 29.1424L48.5215 32.0689C50.7885 31.5579 52.6903 30.1502 54.1828 28.5116C55.6818 26.8658 56.8519 24.8972 57.6492 23.0775L54.9014 21.8736ZM55.28 21.0261C55.1566 21.2997 55.0285 21.5833 54.9014 21.8736L57.6492 23.0775C57.7687 22.8048 57.89 22.536 58.0145 22.26L55.28 21.0261ZM56.0669 19.189C55.8314 19.8032 55.5678 20.3884 55.28 21.0261L58.0145 22.26C58.2971 21.6338 58.5966 20.971 58.8681 20.263L56.0669 19.189ZM56.2977 17.5035C56.2977 18.2398 56.2558 18.6964 56.0669 19.1891L58.8681 20.263C59.2573 19.2479 59.2977 18.3464 59.2977 17.5035H56.2977ZM56.0888 16.1349C56.2185 16.6802 56.2977 17.1058 56.2977 17.5035H59.2977C59.2977 16.7336 59.1453 16.0203 59.0073 15.4404L56.0888 16.1349ZM53.7168 10.23C54.9802 12.1523 55.5268 13.7732 56.0888 16.1349L59.0073 15.4404C58.4036 12.9037 57.7535 10.9098 56.2238 8.58225L53.7168 10.23ZM50.1449 6.56109C50.5056 6.74898 51.2033 7.34205 51.9942 8.16752C52.7512 8.95754 53.4149 9.77062 53.7168 10.23L56.2238 8.58225C55.7824 7.91071 54.9825 6.94998 54.1604 6.09197C53.3722 5.26942 52.3753 4.34025 51.5308 3.90039L50.1449 6.56109Z" fill="#1A2147"/>
<path d="M45.327 10.0232C45.9099 10.0232 46.4657 9.89203 47.0576 9.89203C47.9908 9.89203 49.4218 10.0332 50.147 10.6134C50.3671 10.7894 50.587 11.057 50.7846 11.2546C51.18 11.65 51.5476 12.0467 51.9505 12.4496C52.1677 12.6669 52.2614 12.9665 52.4459 13.2038C52.5429 13.3284 52.8042 13.6364 52.854 13.7757C53.0514 14.3286 53.0449 15.1171 53.0653 15.6994C53.0797 16.1106 53.1309 16.5168 53.1309 16.9344C53.1309 17.5065 52.9769 18.0615 52.8175 18.5994C52.6178 19.2737 52.4601 20.1624 52.0816 20.7635C51.681 21.3998 51.116 22.5184 50.4749 22.9458C50.2779 23.0772 50.165 23.3489 49.9795 23.4996C49.7652 23.6737 49.5673 23.8071 49.3273 23.9404C48.5077 24.3958 47.7797 24.7128 46.8207 24.7128C45.879 24.7128 44.9097 24.8976 44.0154 24.4505C43.2883 24.0869 42.5031 23.7251 41.9169 23.1389C41.3747 22.5967 41.0641 22.3397 40.7693 21.5687C40.6351 21.2177 40.425 20.9084 40.2775 20.5668C40.1185 20.1987 40.0151 19.9133 40.0151 19.492C40.0151 18.5356 40.0807 17.5712 40.0807 16.6102C40.0807 16.1836 39.972 15.6207 40.1827 15.2294C40.4286 14.7728 40.482 14.1982 40.6564 13.7102C40.8448 13.1826 41.3428 12.6248 41.6874 12.1909C42.4829 11.1892 44.0242 10.0232 45.327 10.0232Z" stroke="#1A2147" stroke-width="3" stroke-linecap="round"/>
<path d="M47.6999 16.9542C47.4007 20.544 44.2098 22.9372 42.6517 23.6851L40.7821 21.8154L40.0342 19.3848V16.9542L40.4081 14.3367L41.9039 11.9061L43.5866 10.5973L46.0172 10.0364C46.7027 10.8466 47.999 13.3644 47.6999 16.9542Z" fill="#1A2147"/>
<path d="M61.5707 24.1808C61.1525 25.9726 59.4574 26.9511 58.6621 27.2164L57.9209 26.1369L57.7541 24.8551L57.9414 23.6272L58.3201 22.332L59.2155 21.2121L60.113 20.6725L61.307 20.5646C61.5691 21.0234 61.9889 22.3889 61.5707 24.1808Z" fill="#1A2147"/>
<path d="M59.6394 20.8292C59.8783 20.7527 60.1283 20.7836 60.3658 20.6926C60.7175 20.5579 61.1219 20.5746 61.4911 20.6156C61.5657 20.6239 61.6526 20.6257 61.7274 20.6384C61.904 20.6684 62.0676 20.8128 62.1958 20.9268C62.4802 21.1796 62.675 21.5144 62.9416 21.781C63.1257 21.9651 63.2863 22.2165 63.4056 22.4489C63.4666 22.5676 63.5482 22.6809 63.5607 22.8175C63.5702 22.9227 63.5913 23.0256 63.6019 23.1308C63.6133 23.2448 63.6333 23.3576 63.6441 23.4723C63.6669 23.7137 63.6294 23.9348 63.6192 24.1748C63.6114 24.3586 63.5833 24.5371 63.5813 24.7212C63.5789 24.9318 63.5639 25.14 63.5032 25.3413C63.438 25.5576 63.3197 25.7606 63.1509 25.9126C63.0288 26.0225 62.8863 26.1111 62.7812 26.2389C62.5135 26.5645 62.2141 26.7711 61.8348 26.9566C61.6343 27.0546 61.4302 27.1846 61.2157 27.2493C61.0004 27.3143 60.7911 27.3274 60.5663 27.3274C60.2723 27.3274 59.9965 27.342 59.7131 27.2688C59.5818 27.2349 59.4421 27.2305 59.3088 27.1994C59.1885 27.1714 59.0768 27.1195 58.9608 27.078C58.7761 27.0121 58.6372 26.9007 58.4783 26.7907C58.3473 26.7 58.2685 26.6021 58.1683 26.4796C58.1271 26.4292 58.1086 26.3555 58.0783 26.2931C58.0536 26.2423 58.0499 26.1423 58.0002 26.1175" stroke="#1A2147" stroke-width="3" stroke-linecap="round"/>
<path d="M37.0546 30.5449C36.2098 30.3276 35.4136 30.0484 34.6015 29.7476C34.3081 29.6389 34.1148 29.4071 33.7982 29.3368C33.1643 29.1959 32.4627 29.2333 31.8174 29.116C30.9699 28.9619 30.2052 28.6953 29.3275 28.5824C27.6879 28.3716 26.0526 27.9343 24.4705 27.4541C22.996 27.0064 21.406 26.9511 19.9508 26.4054C18.5495 25.8799 17.2867 26.1294 15.8052 26.1294C14.9459 26.1294 14.2965 26.1921 13.4319 25.9945C12.6895 25.8248 12.0177 25.606 11.2487 25.5775C10.7753 25.56 10.0909 25.1543 9.67878 25.3015C9.24756 25.4555 9.13869 25.4652 9.26177 26.019C9.38299 26.5645 9.34762 27.1158 9.34762 27.6748C9.34762 29.824 9.33408 31.9561 9.65425 34.0772C10.0075 36.4174 10.438 38.6865 11.5002 40.8108C11.9244 41.6593 12.0227 42.8704 12.6102 43.6256C13.1019 44.2579 12.9904 45.1495 12.9904 45.9376C12.9904 47.3531 13.583 48.7721 14.4254 49.887C15.1159 50.8009 15.6471 51.7774 16.302 52.708C17.156 53.9216 17.5689 55.3191 18.3502 56.547C19.4951 58.3461 20.8289 59.9037 22.3487 61.3672C22.7439 61.7478 23.0686 62.1942 23.4832 62.5569C23.742 62.7834 24.1153 62.864 24.3602 63.1088C24.9385 63.6872 25.3337 64.4471 25.9485 65.0222C26.3184 65.3682 26.5511 65.4638 26.9464 65.7538M34.9572 70.9463C35.8004 71.3317 36.7555 71.4613 37.6065 71.8293C38.1512 72.0649 38.8981 72.136 39.4831 72.2464C39.9575 72.3359 40.4116 72.4625 40.8874 72.4978C42.7909 72.6388 44.7831 73.0592 46.6582 73.4238C47.9236 73.6699 49.3986 73.7059 50.6873 73.7059C52.0207 73.7059 53.5814 73.6564 54.8206 73.0988C56.3447 72.413 57.9205 71.9749 59.5488 71.6086C60.4864 71.3976 61.5616 71.2032 62.4434 70.8113C63.3357 70.4148 64.3321 70.3704 65.2583 70.008C66.098 69.6794 66.745 69.2338 67.5273 68.7937C69.0293 67.9489 70.6275 67.4031 72.047 66.4204C72.5687 66.0592 72.9938 65.6573 73.433 65.2062C74.0695 64.5525 74.766 63.9634 75.3034 63.2192C75.6431 62.7489 76.2203 62.3843 76.4625 61.8394C76.6177 61.4901 76.9506 61.3537 77.1739 61.0667C77.3514 60.8385 77.4807 60.5682 77.6767 60.3492C78.145 59.8258 78.5145 59.1476 78.7806 58.4971C79.0091 57.9386 79.4028 57.0776 79.8293 56.6512C80.3025 56.1779 81.0057 55.4356 81.2091 54.7747C81.4166 54.1001 81.7979 53.3701 82.1167 52.7325C82.3758 52.2144 82.6396 51.6451 82.7545 51.0706C82.8415 50.6355 83.2613 50.2683 83.3064 49.8625C83.3626 49.3571 83.9249 48.7753 84.1037 48.2925C84.4204 47.4373 85.0196 46.6506 85.2688 45.7782C85.4738 45.061 85.6804 44.381 85.9557 43.6808C86.169 43.1385 86.5976 42.4205 86.7223 41.8595C86.8432 41.315 87.1042 40.829 86.9553 40.3079C86.9011 40.1181 86.9492 39.8493 86.9492 39.6517C86.9492 39.1483 86.1727 39.1742 85.784 39.0446C85.192 38.8473 84.5326 38.8291 83.9687 38.5785C82.9129 38.1093 81.5711 38.4853 80.4916 37.8856C80.0389 37.6341 79.3365 37.5852 78.8296 37.4931C77.8566 37.3162 76.8747 37.1347 75.9044 36.8921C74.4862 36.5375 73.0235 36.2967 71.63 35.8679C70.9928 35.6719 70.2775 35.8045 69.6185 35.6778C69.1052 35.5791 68.5897 35.3459 68.0731 35.2915C67.8508 35.2681 67.4543 35.2063 67.2452 35.1259C66.6493 34.8967 66.0017 34.7287 65.3993 34.5433C64.7282 34.3368 63.864 34.5463 63.2161 34.2735C62.7353 34.071 61.9786 34.0772 61.4499 34.0772C60.9451 34.0772 60.4482 33.9668 59.9045 33.9668" stroke="#1A2147" stroke-width="3" stroke-linecap="round"/>
<path d="M22.0356 61.4512C22.3737 63.0527 22.7443 64.6297 22.9875 66.2506C23.1344 67.2299 23.171 68.2431 23.3954 69.2068C23.6025 70.0962 23.6467 71.0365 23.6674 71.9465C23.7098 73.812 24.1206 75.6912 24.1206 77.5668C24.1206 79.4615 24.5739 81.3005 24.5739 83.2073C24.5739 84.5096 24.8458 85.8596 24.8458 87.1053" stroke="#1A2147" stroke-width="3" stroke-linecap="round"/>
<path d="M26.1146 88.1032C25.5987 88.1032 25.2091 87.872 24.7548 87.6701C24.4017 87.5131 23.9571 87.4284 23.6217 87.242C23.3809 87.1083 22.8335 87.0154 22.5591 87.0154C22.1054 87.0154 21.6834 86.8341 21.2194 86.8341C20.132 86.8341 19.1468 87.4161 18.3891 88.1737C17.9795 88.5833 17.5455 88.6676 17.2761 89.2363C17.0208 89.7753 16.8321 90.2993 16.8682 90.9134C16.8856 91.2086 17.1035 91.5545 17.251 91.8199C17.4442 92.1678 17.5883 92.5412 17.7747 92.8674C18.184 93.5836 19.0769 93.7235 19.8647 93.7235C21.5477 93.7235 23.22 93.2782 24.8908 93.5876C25.5062 93.7015 26.2845 93.7235 26.9103 93.7235C27.4141 93.7235 27.8809 93.8142 28.3808 93.8142C28.7888 93.8142 29.1967 93.8142 29.6046 93.8142C29.8194 93.8142 29.9985 93.8305 30.1938 93.7437C30.2828 93.7042 30.4717 93.5472 30.5565 93.5422C30.8908 93.5226 31.2446 93.6329 31.5989 93.6329C31.9743 93.6329 32.2028 93.3609 32.5508 93.3609C32.7762 93.3609 32.9357 93.4172 32.9083 93.1293C32.877 92.8 32.8016 92.4695 32.7522 92.1422C32.6423 91.4141 32.6109 90.6221 32.4148 89.9162C32.2515 89.3284 32.2788 88.5567 32.2788 87.942C32.2788 87.4279 32.1882 86.9307 32.1882 86.4262C32.1882 84.0614 31.3723 81.8537 31.3723 79.4914C31.3723 77.4305 31.2244 75.3073 30.8284 73.3271" stroke="#1A2147" stroke-width="3" stroke-linecap="round"/>
<path d="M58.6572 72.1486C59.0074 74.4686 58.9984 76.8172 59.2867 79.1237C59.404 80.0613 59.3824 81.087 59.3824 82.0295C59.3824 83.1507 59.6189 84.2461 59.6544 85.3634C59.6721 85.9218 59.7559 86.536 59.8558 87.0858C59.9527 87.6188 59.8731 88.16 59.9717 88.6923C60.1165 89.4745 60.2889 90.3406 60.2889 91.1349C60.2889 91.5445 60.2889 91.9541 60.2889 92.3637C60.2889 92.5014 60.2165 92.8803 60.3947 92.9026C60.866 92.9615 61.3743 92.9076 61.8501 92.9076C62.8156 92.9076 63.7082 92.7911 64.6402 92.9982C65.5378 93.1977 66.2731 93.0889 67.1733 93.0889C67.532 93.0889 67.8436 92.9964 68.1755 92.8673C68.6079 92.6992 69.0606 92.7263 69.5152 92.7263C70.276 92.7263 70.9947 92.4965 71.7109 92.4543C72.6924 92.3966 73.6426 91.9888 74.2491 91.2306C74.5535 90.8502 75.026 90.729 75.2463 90.2334C75.4456 89.785 75.6089 89.58 75.6089 89.0549C75.6089 88.5576 75.7606 88.2756 75.5384 87.8312C75.3371 87.4286 75.3011 86.8897 75.1758 86.4513C75.0881 86.1444 75.049 85.9672 74.9038 85.7059C74.789 85.4992 74.6221 85.3516 74.4707 85.157C74.204 84.814 73.5274 84.6466 73.121 84.5728C72.6043 84.4788 71.9622 84.4771 71.439 84.4771C71.0305 84.4771 70.6207 84.4461 70.2253 84.5677C70.0196 84.631 69.6345 84.656 69.4648 84.7692C69.0297 85.0593 68.1846 85.204 67.9036 85.6958C67.8022 85.8732 67.4075 86.0383 67.2489 86.1793C67.1966 86.2258 67.1784 85.4417 67.1784 85.3383C67.1784 84.0628 66.7251 82.8324 66.7251 81.5763C66.7251 80.0134 66.4532 78.4754 66.4532 76.9078C66.4532 75.5782 65.9093 74.2581 65.9093 72.9645C65.9093 71.7894 65.6373 70.6238 65.6373 69.4291" stroke="#1A2147" stroke-width="3" stroke-linecap="round"/>
<path d="M17.7266 43.1357C17.8427 42.3616 18.1244 41.6247 18.3695 40.8892C18.47 40.5878 18.6818 40.012 18.8963 39.7737C19.1199 39.5253 19.2725 39.1019 19.3998 38.7976C19.5304 38.4857 19.8664 37.8898 20.1668 37.7131C20.4529 37.5447 20.7484 37.2286 21.0034 37.0004C21.1729 36.8487 21.3839 36.5624 21.5612 36.4581C22.3611 35.9875 23.0753 35.3729 23.8464 34.839C24.3193 34.5117 25.0235 34.286 25.5894 34.1573C26.2554 34.006 26.9325 33.9027 27.6113 33.8087C28.0597 33.7466 28.5713 33.7624 29.0057 33.6383C29.2458 33.5697 29.4989 33.6357 29.7339 33.5686C30.0076 33.4904 30.2822 33.5595 30.5551 33.4989C30.7696 33.4512 30.9772 33.4016 31.1826 33.4989C31.7233 33.755 32.3295 33.6069 32.8558 33.863C33.4238 34.1393 34.0672 34.1619 34.6531 34.3355C34.9141 34.4128 35.1831 34.4067 35.451 34.5059C35.6327 34.5732 35.7949 34.6776 35.9932 34.6996C36.401 34.7449 36.842 34.9311 37.2482 35.0327C37.6362 35.1297 38.0166 35.2712 38.3947 35.3426C39.5588 35.5622 40.7268 35.5647 41.8652 35.8848C42.5938 36.0898 43.3506 36.1889 44.0653 36.4271C44.389 36.535 44.8294 36.5581 45.0569 36.8454C45.2265 37.0597 45.5039 37.2182 45.5991 37.5039C45.7226 37.8743 45.7541 38.1479 45.7541 38.5342C45.7541 39.1305 45.2939 39.6787 44.8322 39.9983C44.4366 40.2722 43.9949 40.5065 43.523 40.6413C43.1067 40.7603 42.7374 41.0895 42.3223 41.2378C41.7564 41.4399 41.0646 41.4111 40.4708 41.5167C39.7882 41.638 38.9019 41.593 38.2243 41.4779C37.618 41.375 36.9544 41.2006 36.3419 41.1836C35.7959 41.1684 35.2791 41.2533 34.7383 41.2533C33.9768 41.2533 33.204 41.2533 32.4375 41.2533" stroke="#1A2147" stroke-width="3" stroke-linecap="round"/>
<path d="M44.429 40.6247C44.7869 40.737 45.0269 40.8174 45.3353 40.9888C45.4961 41.0781 45.623 41.2483 45.7885 41.3219C46.0684 41.4463 46.2468 41.8426 46.5206 42.0036C46.9622 42.2634 47.0199 43.6311 46.8149 44.041C45.9697 45.7314 44.2482 46.6206 42.3412 46.6206C41.8966 46.6206 41.3804 46.6195 40.9584 46.7446C40.4244 46.9028 39.7702 46.6904 39.2348 46.6904C38.1577 46.6904 36.9859 46.4838 35.927 46.272C35.3736 46.1613 34.7942 46.1021 34.2498 45.9777C33.8492 45.8861 33.4297 45.9387 33.0297 45.8498C32.6825 45.7727 32.4456 45.5892 32.073 45.5748C31.7606 45.5628 31.4823 45.3657 31.1821 45.3657" stroke="#1A2147" stroke-width="3" stroke-linecap="round"/>
<path d="M45.0568 46.1335C45.5681 46.1335 46.3117 47.0158 46.3117 47.493C46.3117 47.8184 46.3117 48.1437 46.3117 48.4691C46.3117 48.8554 46.2978 49.3912 46.0328 49.6892C45.732 50.0277 45.3943 50.1983 44.987 50.4019C44.6175 50.5867 44.3804 50.8655 43.9722 51.0139C42.8594 51.4185 41.6997 51.411 40.5327 51.6762C39.6542 51.8759 38.7752 52.0029 37.9298 52.2534C37.3706 52.4191 36.677 52.1882 36.1171 52.3541C35.5888 52.5106 34.9728 52.478 34.4205 52.478C32.9705 52.478 31.5958 51.9505 30.4 51.1533C30.1458 50.9839 29.9611 50.8584 29.6835 50.735C29.4944 50.651 29.2722 50.5677 29.1257 50.4213C28.8623 50.1579 28.4361 49.9196 28.1147 49.7589" stroke="#1A2147" stroke-width="3" stroke-linecap="round"/>
<path d="M43.3126 51.4315C43.4162 51.6157 43.6705 51.8301 43.727 52.028C43.8118 52.3246 43.8006 52.6174 43.8006 52.9304C43.8006 53.4655 43.5077 53.8222 43.208 54.2551C43.0092 54.5423 42.6906 54.7756 42.3714 54.9175C42.1319 55.0239 41.8897 55.1834 41.678 55.3358C41.5373 55.4371 41.4145 55.653 41.2558 55.6883C40.9421 55.758 40.6296 55.9819 40.3495 56.1376C40.2235 56.2075 40.031 56.1724 39.8924 56.1724C39.5122 56.1724 39.1213 56.1912 38.7498 56.2809C38.3813 56.3698 37.9517 56.4935 37.58 56.521C37.2096 56.5485 36.7816 56.8362 36.4258 56.9548C35.6537 57.2122 34.8293 57.4046 34.0088 57.4274C33.5477 57.4402 33.0915 57.6258 32.6299 57.6366C32.1453 57.6478 31.6589 57.6926 31.1813 57.7063C30.6442 57.7216 30.1095 57.4971 29.5622 57.4971C29.0687 57.4971 28.5616 57.4268 28.1136 57.2027C27.2502 56.7711 26.472 56.2931 25.5649 55.9633C24.8433 55.7009 24.239 55.4353 23.6825 54.8787C23.2241 54.4204 22.8777 53.915 22.3655 53.4959C22.2439 53.3964 22.0967 53.3513 21.9743 53.2442C21.8716 53.1543 21.7109 52.9472 21.5947 52.8956C21.3026 52.7657 20.9954 52.4191 20.7194 52.2294C20.3688 51.9883 19.9951 51.7278 19.8169 51.3269C19.5582 50.7449 19.2547 50.1282 19.0345 49.5335C18.8955 49.1584 18.6214 48.8086 18.4767 48.418C18.304 47.9518 18.0758 47.5288 17.9499 47.0391C17.7713 46.3442 17.6216 45.8026 17.5858 45.0869C17.558 44.5305 17.5161 43.9789 17.5161 43.4136" stroke="#1A2147" stroke-width="3" stroke-linecap="round"/>
<path fill-rule="evenodd" clip-rule="evenodd" d="M41.3428 30.5715L37.252 29.4739V30.0348C37.252 30.7394 36.9289 31.5761 36.5472 32.2442C36.3298 32.6246 36.1765 33.0376 36.0411 33.4024L35.9975 33.5196C35.8624 33.8811 35.7362 34.1977 35.5677 34.4786L44.7083 36.588L45.8795 37.6128C46.2615 36.655 46.6576 35.7084 47.072 34.7761C47.1334 34.6381 47.2118 34.4932 47.3044 34.3287L47.3613 34.228C47.4363 34.0958 47.5182 33.9513 47.593 33.8068C47.7812 33.4431 47.9725 32.9929 47.9725 32.4831V32.1186L45.7261 31.5944C44.6643 30.8484 42.9741 30.4951 41.3428 30.5715ZM39.3124 56.435L36.2947 56.9676L31.4335 57.7154L28.1942 57.0676C27.3394 60.2475 26.6656 63.4106 26.3233 66.4909C26.3011 66.6907 26.2487 66.8767 26.1821 67.1132L26.151 67.224C26.0747 67.4979 25.9887 67.8316 25.9887 68.2086C25.9887 68.2578 25.9794 68.3386 25.9584 68.4767L25.9479 68.5446L25.9479 68.5446L25.9479 68.5446L25.9479 68.5447C25.9306 68.6563 25.9097 68.7907 25.8959 68.9228C25.8791 69.0836 25.8687 69.2737 25.892 69.4633C25.9152 69.6526 25.9766 69.8805 26.1362 70.0799C26.2183 70.1825 26.259 70.2926 26.3402 70.5124L26.3603 70.5667C26.4483 70.8039 26.5763 71.1259 26.8705 71.4201C27.2624 71.812 27.6743 72.2101 28.0734 72.573C28.4278 72.8952 28.8703 73.0432 29.2225 73.1423C29.3418 73.1758 29.4488 73.2037 29.5465 73.2292C29.7765 73.2892 29.9548 73.3357 30.1197 73.4106C30.4741 73.5717 30.8613 73.6172 31.1946 73.6306C31.4066 73.639 31.6442 73.6343 31.8481 73.6303C31.9487 73.6283 32.041 73.6265 32.118 73.6265C33.0648 73.6265 33.7413 73.0629 34.2294 72.4981C34.4764 72.2123 34.6963 71.9015 34.8905 71.6232L34.9417 71.5499L34.9417 71.5499C35.1207 71.2931 35.274 71.0732 35.4251 70.8919C35.8712 70.3566 36.1746 69.4742 36.3616 68.8121C36.4597 68.465 36.5339 68.1473 36.5836 67.9166C36.6085 67.801 36.6274 67.7066 36.6402 67.6404C36.6465 67.6074 36.6514 67.5813 36.6547 67.5632L36.6569 67.5512L39.263 56.5683C39.2795 56.5239 39.296 56.4795 39.3124 56.435ZM46.7501 32.9561C46.7675 32.9105 46.7827 32.8663 46.7957 32.8232L46.7022 32.7983C46.7203 32.85 46.7363 32.9026 46.7501 32.9561Z" fill="#1A2147"/>
</svg>
