<svg width="240" height="240" viewBox="0 0 240 240" fill="none" xmlns="http://www.w3.org/2000/svg">
<path d="M145.146 29.1972C146.114 29.1972 147.095 29.0533 148.022 29.0533C148.863 29.0533 149.736 29.1972 150.54 29.1972C151.587 29.1972 152.626 29.9244 153.632 30.0682C154.177 30.146 154.851 30.4973 155.35 30.7154C155.822 30.9217 156.131 31.0133 156.509 31.3546C158.594 33.2417 161.389 34.0991 163.197 36.3088C163.793 37.0372 164.712 37.5774 165.17 38.4024C165.587 39.1514 165.901 39.9275 166.289 40.7037C166.458 41.0421 166.781 41.759 167.08 41.9982C167.38 42.2378 168.047 43.6212 168.159 44.0118C168.54 45.3471 169.114 46.4504 169.341 47.8633C169.753 50.4126 170.604 52.999 170.604 55.5902C170.604 56.409 170.316 57.1954 170.316 57.9714C170.316 59.1615 169.928 60.2949 169.885 61.4474C169.834 62.8116 169.5 64.4386 169.094 65.7383C168.832 66.5746 168.737 67.5905 168.303 68.3513C167.754 69.3113 167.398 70.4796 166.896 71.4836C166.311 72.6544 165.636 73.7472 164.931 74.8556C164.508 75.5199 163.75 75.9082 163.205 76.4538C162.634 77.0241 162.204 77.7425 161.631 78.3156C160.91 79.0365 160.096 79.7002 159.353 80.3692C157.839 81.7323 155.97 82.3628 154.215 83.3497C153.346 83.8384 152.249 83.9372 151.331 84.3964C150.414 84.8545 149.186 84.9069 148.174 85.0756C146.501 85.3546 144.677 85.579 142.98 85.579C141.746 85.579 140.538 86.0105 139.329 86.0105C137.278 86.0105 135.3 85.8481 133.352 85.2914C132.497 85.0472 131.686 84.5914 130.843 84.2846C130.092 84.0116 129.339 83.7796 128.605 83.4535C127.921 83.1496 127.185 83.078 126.528 82.7024C126.184 82.5058 125.313 82.0159 125.153 81.6956" stroke="#1A2147" stroke-width="3" stroke-linecap="round"/>
<path fill-rule="evenodd" clip-rule="evenodd" d="M127.567 80.3788C127.828 80.2022 128.088 80.0269 128.352 79.8801C129.817 79.0666 131.176 77.941 132.515 76.8332C133.12 76.332 133.721 75.8345 134.326 75.3711C135.339 74.5942 136.361 73.9082 137.418 73.2033C137.975 72.8324 138.398 72.0352 138.739 71.3927C138.806 71.2662 138.87 71.1457 138.931 71.0356C139.086 70.7565 139.243 70.4765 139.401 70.1954C140.717 67.8505 142.075 65.4295 142.66 62.7981C142.842 61.9782 143.284 61.1154 143.71 60.2822C143.945 59.8232 144.175 59.3732 144.355 58.9443C144.722 58.0698 144.992 57.1789 145.263 56.2858C145.402 55.8263 145.542 55.3661 145.695 54.9074C146.226 53.3118 146.541 51.6288 146.783 49.9649C146.853 49.4885 146.884 49.0114 146.916 48.5333C146.951 48.0034 146.986 47.4724 147.072 46.9397C147.094 46.8066 147.126 46.6478 147.161 46.4763C147.262 45.9805 147.384 45.3795 147.332 44.9935C147.247 44.3509 147.171 43.687 147.094 43.0133C146.849 40.8553 146.591 38.5964 145.955 36.6115C145.566 35.4003 145.255 34.068 145.097 32.8059C145.074 32.6173 145.068 32.376 145.063 32.1182C145.05 31.5157 145.035 30.823 144.779 30.5032C144.616 30.2988 144.492 29.8704 144.395 29.5321C144.363 29.4219 144.334 29.3213 144.307 29.2411C144.192 28.8944 144.039 28.562 143.888 28.2303C143.722 27.8692 143.557 27.5087 143.44 27.1311C143.294 26.6592 143.168 26.1614 143.041 25.6563C142.711 24.3482 142.368 22.9914 141.619 21.9092C141.467 21.6899 141.262 21.4847 141.052 21.2755C140.851 21.075 140.647 20.8709 140.482 20.6471C140.451 20.6043 140.419 20.5616 140.388 20.5191C139.662 19.5325 139 18.6318 138.411 17.5448C137.347 15.5803 136.152 14.239 134.422 12.7757C133.891 12.326 133.223 12.0819 132.562 11.8402C131.987 11.6298 131.416 11.4211 130.944 11.08C129.829 10.2749 128.624 9.59297 127.322 9.12424C125.88 8.60519 124.439 7.97147 123.063 7.30332C122.43 6.99589 121.755 6.81168 121.081 6.62795C120.579 6.49085 120.077 6.35402 119.595 6.16645C118.692 5.8154 117.733 5.63665 116.776 5.45808C116.136 5.33872 115.496 5.21944 114.874 5.04885C113.111 4.56543 111.279 4.10348 109.44 4.01795C107.514 3.92838 105.726 4.18771 103.852 4.49005C103.007 4.62639 102.237 4.94628 101.463 5.26817C100.98 5.46915 100.495 5.6709 99.9884 5.82924C95.7031 7.16842 91.9714 9.69697 88.2748 12.2018C87.2123 12.9217 86.1528 13.6397 85.0838 14.3269C81.7116 16.4948 78.927 19.4436 77.1065 23.0846C76.4141 24.4693 75.869 25.8629 75.3176 27.2723C74.9891 28.1119 74.6585 28.9572 74.2932 29.8095C74.0059 30.4799 73.6848 31.1558 73.3605 31.8383C72.468 33.717 71.5514 35.6463 71.2487 37.652C70.9591 39.5708 71.5817 41.5753 72.1543 43.3749C72.3058 43.851 72.4157 44.3493 72.5259 44.8489C72.6896 45.5911 72.854 46.3365 73.1563 47.0168C73.526 47.8484 73.6747 48.7682 73.8242 49.693C73.9556 50.5051 74.0875 51.3211 74.3703 52.0845C74.5888 52.6745 74.8705 53.2532 75.1525 53.8325C75.385 54.3102 75.6178 54.7883 75.8154 55.2735C76.0839 55.9324 76.4774 56.5536 76.8683 57.1707C77.2742 57.8114 77.6774 58.4478 77.935 59.1177C78.5489 60.7137 79.279 62.4414 80.0546 63.9928C80.5367 64.9568 81.2159 65.8478 81.8803 66.7193C82.0845 66.9872 82.2873 67.2532 82.4825 67.519C82.6104 67.6931 82.7494 67.9027 82.8983 68.1272C83.3693 68.8375 83.9387 69.6961 84.5636 70.0432C85.0324 70.3037 85.4512 70.6379 85.8714 70.9733C86.2877 71.3055 86.7054 71.6388 87.1745 71.9027C87.6587 72.175 88.1404 72.4564 88.6223 72.7379C89.4042 73.1946 90.1865 73.6516 90.9802 74.0704C91.5514 74.372 92.1415 74.6045 92.7342 74.8381C93.2233 75.0308 93.7143 75.2243 94.1981 75.4578C94.3057 75.5098 94.4129 75.5619 94.5201 75.6139C95.1696 75.9294 95.8144 76.2427 96.4911 76.4984C96.7354 76.5906 97.0044 76.6364 97.2714 76.6819C97.5576 76.7306 97.8415 76.7789 98.0904 76.8837C99.1796 77.3423 100.231 77.9113 101.286 78.4822C101.78 78.7491 102.274 79.0164 102.773 79.2731C103.873 79.8387 105.017 80.0962 106.171 80.356C106.758 80.4882 107.349 80.621 107.937 80.7953C108.815 81.0554 109.749 80.9971 110.688 80.9385C111.695 80.8756 112.707 80.8124 113.66 81.1422C113.783 81.185 113.912 81.2301 114.045 81.2768C115.18 81.6747 116.617 82.1786 117.726 82.2212C122.232 82.3946 122.818 82.4032 126.223 81.1422C126.695 80.9673 127.134 80.6714 127.567 80.3788ZM124.295 11.7791C121.268 10.2022 117.47 8.96211 114.03 8.96211C113.296 8.96211 112.572 8.91514 111.848 8.86818C111.125 8.82124 110.401 8.77431 109.669 8.77431C108.689 8.77431 107.741 8.87543 106.787 8.9771C106.213 9.03837 105.637 9.09983 105.05 9.13947C104.415 9.18245 103.784 9.30552 103.155 9.42827C102.535 9.54926 101.916 9.66993 101.296 9.7133C100.305 9.7826 99.3907 10.2116 98.4831 10.6372C97.8949 10.9131 97.3096 11.1876 96.7087 11.3617C96.1412 11.5262 95.6094 11.8345 95.0871 12.1373C94.9172 12.2358 94.7483 12.3337 94.5795 12.4259C94.1511 12.66 93.707 12.8608 93.262 13.062C92.622 13.3514 91.9803 13.6417 91.3807 14.0326C88.7703 15.7348 87.1381 18.3151 85.5179 20.8977C85.0047 21.7157 84.5684 22.6163 84.1328 23.5155C83.8154 24.1707 83.4984 24.8253 83.1521 25.4466C82.866 25.9601 82.6624 26.522 82.4588 27.0842C82.2246 27.7308 81.9902 28.3777 81.6299 28.9521C81.2474 29.5618 81.0483 30.824 80.9076 31.7157C80.8788 31.8979 80.8525 32.0647 80.8276 32.2073C80.6296 33.3393 80.371 34.4846 80.1143 35.6217C80.0002 36.1273 79.8864 36.6312 79.7784 37.1318C78.6884 42.1861 78.6442 50.1772 80.7864 55.0664C80.9102 55.3489 80.9734 55.648 81.0363 55.9454C81.102 56.256 81.1672 56.5647 81.3007 56.8505C81.4535 57.1776 81.5334 57.5241 81.613 57.8692C81.7035 58.2614 81.7936 58.6519 81.9899 59.0102C82.2585 59.5006 82.4618 60.0248 82.665 60.5488C82.8978 61.1487 83.1304 61.7484 83.4607 62.2966C84.4043 63.8628 85.2702 65.2783 86.4333 66.7203C87.7675 68.3744 89.2913 69.8884 90.9693 71.1649C91.4755 71.55 91.9701 71.9391 92.4603 72.3248C95.011 74.3314 97.4403 76.2427 100.741 76.9866C101.311 77.1151 101.854 77.3473 102.397 77.5798C103.071 77.868 103.746 78.1566 104.474 78.249C104.57 78.2612 104.667 78.2736 104.763 78.286C105.888 78.4311 107.046 78.5803 108.188 78.4055C109.065 78.2711 109.943 78.1633 110.82 78.0556C112.069 77.9021 113.317 77.7487 114.565 77.5187C115.139 77.4128 115.654 77.218 116.167 77.0242C116.613 76.8556 117.058 76.6878 117.537 76.5797C127.069 74.4312 134.372 64.5101 138.181 55.8176C138.496 55.0988 138.814 54.3933 139.131 53.6916C139.859 52.0778 140.578 50.4842 141.225 48.7961C141.963 46.8708 142.069 45.1367 142.069 43.1204C142.069 41.6295 141.773 40.1753 141.431 38.7385C139.942 32.4839 138.415 27.8683 134.848 22.4418C132.95 19.5539 127.373 13.3822 124.295 11.7791Z" fill="#1A2147"/>
<path d="M128.352 79.8801L129.081 81.1913L129.081 81.1913L128.352 79.8801ZM127.567 80.3788L128.406 81.622L128.406 81.622L127.567 80.3788ZM132.515 76.8332L131.558 75.6777V75.6777L132.515 76.8332ZM134.326 75.3711L133.413 74.1807H133.413L134.326 75.3711ZM137.418 73.2033L136.586 71.9553L137.418 73.2033ZM138.739 71.3927L140.064 72.0958L140.064 72.0957L138.739 71.3927ZM138.931 71.0356L137.62 70.3071L137.62 70.3072L138.931 71.0356ZM139.401 70.1954L138.093 69.4614L138.093 69.4614L139.401 70.1954ZM142.66 62.7981L144.124 63.1235V63.1235L142.66 62.7981ZM143.71 60.2822L142.375 59.5986L142.375 59.5986L143.71 60.2822ZM144.355 58.9443L145.739 59.5244L144.355 58.9443ZM145.263 56.2858L143.827 55.8507V55.8507L145.263 56.2858ZM145.695 54.9074L144.272 54.4331V54.4331L145.695 54.9074ZM146.783 49.9649L145.299 49.749V49.749L146.783 49.9649ZM146.916 48.5333L148.412 48.6321V48.6321L146.916 48.5333ZM147.072 46.9397L145.592 46.6986L145.592 46.6987L147.072 46.9397ZM147.161 46.4763L148.631 46.775V46.775L147.161 46.4763ZM147.332 44.9935L148.819 44.7953L147.332 44.9935ZM147.094 43.0133L148.585 42.8436V42.8436L147.094 43.0133ZM145.955 36.6115L144.526 37.0696V37.0696L145.955 36.6115ZM145.097 32.8059L143.609 32.9919L143.609 32.9919L145.097 32.8059ZM145.063 32.1182L146.563 32.086V32.086L145.063 32.1182ZM144.779 30.5032L145.951 29.5662L145.951 29.5662L144.779 30.5032ZM144.395 29.5321L142.953 29.9476L142.953 29.9477L144.395 29.5321ZM144.307 29.2411L145.73 28.7668L145.73 28.7667L144.307 29.2411ZM143.888 28.2303L142.524 28.8547V28.8547L143.888 28.2303ZM143.44 27.1311L142.007 27.5757V27.5757L143.44 27.1311ZM143.041 25.6563L144.495 25.2894L144.495 25.2894L143.041 25.6563ZM141.619 21.9092L140.386 22.763L141.619 21.9092ZM141.052 21.2755L139.992 22.3371L139.992 22.3371L141.052 21.2755ZM140.482 20.6471L139.274 21.5357H139.274L140.482 20.6471ZM140.388 20.5191L141.596 19.6303L141.596 19.6302L140.388 20.5191ZM138.411 17.5448L139.73 16.8304V16.8304L138.411 17.5448ZM134.422 12.7757L133.453 13.9208V13.9208L134.422 12.7757ZM132.562 11.8402L133.077 10.4314V10.4314L132.562 11.8402ZM130.944 11.08L130.066 12.2961L130.944 11.08ZM127.322 9.12424L126.813 10.5356V10.5356L127.322 9.12424ZM123.063 7.30332L123.718 5.95406L123.718 5.95406L123.063 7.30332ZM121.081 6.62795L121.476 5.18082L121.476 5.18082L121.081 6.62795ZM119.595 6.16645L119.051 7.56446L119.051 7.56446L119.595 6.16645ZM116.776 5.45808L117.051 3.9835L116.776 5.45808ZM114.874 5.04885L115.27 3.60224V3.60224L114.874 5.04885ZM109.44 4.01795L109.37 5.51634L109.44 4.01795ZM103.852 4.49005L103.613 3.00918L103.852 4.49005ZM101.463 5.26817L100.887 3.88318V3.88318L101.463 5.26817ZM99.9884 5.82924L100.436 7.26096L99.9884 5.82924ZM88.2748 12.2018L89.1162 13.4436L88.2748 12.2018ZM85.0838 14.3269L84.2727 13.0651L84.2727 13.0651L85.0838 14.3269ZM77.1065 23.0846L78.4481 23.7555L77.1065 23.0846ZM75.3176 27.2723L73.9207 26.7258L73.9207 26.7258L75.3176 27.2723ZM74.2932 29.8095L75.6719 30.4004L74.2932 29.8095ZM73.3605 31.8383L72.0056 31.1947H72.0056L73.3605 31.8383ZM71.2487 37.652L69.7655 37.4281L71.2487 37.652ZM72.1543 43.3749L73.5837 42.9201H73.5837L72.1543 43.3749ZM72.5259 44.8489L73.9907 44.5259L73.9907 44.5259L72.5259 44.8489ZM73.1563 47.0168L74.527 46.4076H74.527L73.1563 47.0168ZM73.8242 49.693L72.3435 49.9324H72.3435L73.8242 49.693ZM74.3703 52.0845L72.9636 52.6055H72.9636L74.3703 52.0845ZM75.1525 53.8325L73.8038 54.489L73.8038 54.489L75.1525 53.8325ZM75.8154 55.2735L74.4263 55.8395H74.4263L75.8154 55.2735ZM76.8683 57.1707L78.1355 56.368H78.1355L76.8683 57.1707ZM77.935 59.1177L76.535 59.6562L77.935 59.1177ZM80.0546 63.9928L78.713 64.6636H78.713L80.0546 63.9928ZM81.8803 66.7193L83.0732 65.8099L83.0732 65.8099L81.8803 66.7193ZM82.4825 67.519L83.6913 66.6309L83.6913 66.6309L82.4825 67.519ZM82.8983 68.1272L84.1484 67.2982L84.1484 67.2982L82.8983 68.1272ZM84.5636 70.0432L85.292 68.732L85.292 68.732L84.5636 70.0432ZM85.8714 70.9733L86.8071 69.8008L86.8071 69.8008L85.8714 70.9733ZM87.1745 71.9027L86.4391 73.2101H86.4391L87.1745 71.9027ZM88.6223 72.7379L87.8657 74.0331L87.8657 74.0331L88.6223 72.7379ZM90.9802 74.0704L91.6803 72.7439H91.6803L90.9802 74.0704ZM92.7342 74.8381L92.1843 76.2336L92.7342 74.8381ZM94.1981 75.4578L94.8502 74.107L94.8502 74.107L94.1981 75.4578ZM94.5201 75.6139L93.8646 76.9631L93.8646 76.9632L94.5201 75.6139ZM96.4911 76.4984L95.961 77.9016H95.961L96.4911 76.4984ZM97.2714 76.6819L97.0197 78.1606H97.0197L97.2714 76.6819ZM98.0904 76.8837L97.5083 78.2662H97.5083L98.0904 76.8837ZM101.286 78.4822L100.573 79.8015L100.573 79.8015L101.286 78.4822ZM102.773 79.2731L102.087 80.607H102.087L102.773 79.2731ZM106.171 80.356L106.5 78.8926H106.5L106.171 80.356ZM107.937 80.7953L108.363 79.3571L108.363 79.3571L107.937 80.7953ZM110.688 80.9385L110.781 82.4356H110.781L110.688 80.9385ZM113.66 81.1422L114.15 79.7247L114.15 79.7247L113.66 81.1422ZM114.045 81.2768L114.542 79.8613L114.542 79.8613L114.045 81.2768ZM117.726 82.2212L117.783 80.7224H117.783L117.726 82.2212ZM126.223 81.1422L125.702 79.7356L126.223 81.1422ZM124.295 11.7791L123.602 13.1094L124.295 11.7791ZM111.848 8.86818L111.751 10.365L111.848 8.86818ZM106.787 8.9771L106.947 10.4686L106.787 8.9771ZM105.05 9.13947L105.152 10.6361L105.05 9.13947ZM103.155 9.42827L102.868 7.95603H102.868L103.155 9.42827ZM101.296 9.7133L101.401 11.2096H101.401L101.296 9.7133ZM98.4831 10.6372L97.8462 9.27916L98.4831 10.6372ZM96.7087 11.3617L97.1262 12.8025L96.7087 11.3617ZM95.0871 12.1373L95.8395 13.435L95.8395 13.435L95.0871 12.1373ZM94.5795 12.4259L93.8605 11.1095L93.8605 11.1095L94.5795 12.4259ZM93.262 13.062L93.8801 14.4287H93.8801L93.262 13.062ZM91.3807 14.0326L92.2 15.2891L92.2 15.2891L91.3807 14.0326ZM85.5179 20.8977L86.7885 21.6949L86.7885 21.6948L85.5179 20.8977ZM84.1328 23.5155L85.4828 24.1694V24.1694L84.1328 23.5155ZM83.1521 25.4466L84.4624 26.1767V26.1767L83.1521 25.4466ZM82.4588 27.0842L81.0484 26.5734L82.4588 27.0842ZM81.6299 28.9521L82.9005 29.7493L82.9005 29.7493L81.6299 28.9521ZM80.9076 31.7157L82.3893 31.9494V31.9494L80.9076 31.7157ZM80.8276 32.2073L79.35 31.9488L79.35 31.9488L80.8276 32.2073ZM80.1143 35.6217L81.5775 35.9521L81.5775 35.952L80.1143 35.6217ZM79.7784 37.1318L78.3121 36.8155L79.7784 37.1318ZM80.7864 55.0664L82.1603 54.4644L82.1603 54.4644L80.7864 55.0664ZM81.0363 55.9454L79.5687 56.2556V56.2556L81.0363 55.9454ZM81.3007 56.8505L79.9416 57.4852L79.9416 57.4852L81.3007 56.8505ZM81.613 57.8692L83.0746 57.5319L83.0746 57.5319L81.613 57.8692ZM81.9899 59.0102L83.3055 58.2896L83.3055 58.2896L81.9899 59.0102ZM82.665 60.5488L84.0635 60.0063H84.0635L82.665 60.5488ZM83.4607 62.2966L84.7456 61.5226L84.7455 61.5226L83.4607 62.2966ZM86.4333 66.7203L87.6008 65.7786L87.6008 65.7786L86.4333 66.7203ZM90.9693 71.1649L91.8775 69.9711L91.8775 69.9711L90.9693 71.1649ZM92.4603 72.3248L93.3878 71.1459H93.3878L92.4603 72.3248ZM100.741 76.9866L100.411 78.4499L100.741 76.9866ZM102.397 77.5798L102.987 76.2007L102.987 76.2007L102.397 77.5798ZM104.474 78.249L104.663 76.7609H104.663L104.474 78.249ZM104.763 78.286L104.571 79.7737L104.571 79.7737L104.763 78.286ZM108.188 78.4055L108.415 79.8882H108.415L108.188 78.4055ZM110.82 78.0556L110.637 76.5668H110.637L110.82 78.0556ZM114.565 77.5187L114.293 76.0436H114.293L114.565 77.5187ZM116.167 77.0242L115.637 75.621L115.637 75.621L116.167 77.0242ZM117.537 76.5797L117.867 78.043L117.537 76.5797ZM138.181 55.8176L139.554 56.4196V56.4196L138.181 55.8176ZM139.131 53.6916L137.763 53.0746V53.0746L139.131 53.6916ZM141.225 48.7961L142.626 49.333L141.225 48.7961ZM141.431 38.7385L142.89 38.3912L142.89 38.3912L141.431 38.7385ZM134.848 22.4418L136.102 21.618L134.848 22.4418ZM127.624 78.5688C127.293 78.7529 126.978 78.9662 126.728 79.1357L128.406 81.622C128.678 81.4382 128.884 81.3009 129.081 81.1913L127.624 78.5688ZM131.558 75.6777C130.198 76.8037 128.945 77.8347 127.624 78.5688L129.081 81.1913C130.688 80.2985 132.155 79.0783 133.471 77.9887L131.558 75.6777ZM133.413 74.1807C132.783 74.6641 132.16 75.1799 131.558 75.6777L133.471 77.9887C134.081 77.4842 134.66 77.0049 135.238 76.5615L133.413 74.1807ZM136.586 71.9553C135.532 72.6585 134.471 73.3698 133.413 74.1807L135.238 76.5615C136.207 75.8186 137.191 75.1578 138.251 74.4514L136.586 71.9553ZM137.414 70.6896C137.237 71.0222 137.081 71.3141 136.913 71.5662C136.736 71.8304 136.622 71.9315 136.586 71.9553L138.251 74.4514C138.771 74.1043 139.147 73.6212 139.407 73.2335C139.674 72.8336 139.899 72.4056 140.064 72.0958L137.414 70.6896ZM137.62 70.3072C137.55 70.4322 137.479 70.5661 137.414 70.6896L140.064 72.0957C140.133 71.9662 140.19 71.8591 140.242 71.764L137.62 70.3072ZM138.093 69.4614C137.935 69.742 137.777 70.0248 137.62 70.3071L140.242 71.764C140.396 71.4881 140.551 71.2109 140.709 70.9293L138.093 69.4614ZM141.195 62.4727C140.667 64.8512 139.429 67.0798 138.093 69.4614L140.709 70.9294C142.004 68.6213 143.483 66.0078 144.124 63.1235L141.195 62.4727ZM142.375 59.5986C141.972 60.3855 141.427 61.4285 141.195 62.4727L144.124 63.1235C144.256 62.5279 144.595 61.8453 145.045 60.9657L142.375 59.5986ZM142.972 58.3642C142.818 58.7305 142.616 59.1277 142.375 59.5986L145.045 60.9657C145.274 60.5186 145.533 60.0158 145.739 59.5244L142.972 58.3642ZM143.827 55.8507C143.553 56.7551 143.304 57.5724 142.972 58.3642L145.739 59.5244C146.14 58.5672 146.431 57.6026 146.698 56.721L143.827 55.8507ZM144.272 54.4331C144.111 54.9145 143.966 55.3943 143.827 55.8507L146.698 56.721C146.839 56.2582 146.972 55.8177 147.118 55.3818L144.272 54.4331ZM145.299 49.749C145.062 51.3801 144.762 52.9617 144.272 54.4331L147.118 55.3818C147.691 53.662 148.021 51.8775 148.268 50.1808L145.299 49.749ZM145.419 48.4346C145.387 48.9222 145.358 49.3405 145.299 49.749L148.268 50.1808C148.347 49.6364 148.381 49.1005 148.412 48.6321L145.419 48.4346ZM145.592 46.6987C145.492 47.3137 145.453 47.9159 145.419 48.4346L148.412 48.6321C148.448 48.091 148.479 47.6311 148.553 47.1807L145.592 46.6987ZM145.691 46.1777C145.658 46.34 145.619 46.5306 145.592 46.6986L148.553 47.1807C148.569 47.0827 148.594 46.9556 148.631 46.775L145.691 46.1777ZM145.846 45.1918C145.843 45.174 145.851 45.2541 145.818 45.4845C145.789 45.6923 145.743 45.9214 145.691 46.1777L148.631 46.775C148.68 46.5355 148.745 46.2162 148.789 45.9029C148.83 45.6124 148.873 45.1989 148.819 44.7953L145.846 45.1918ZM145.604 43.183C145.68 43.854 145.758 44.5324 145.846 45.1918L148.819 44.7953C148.736 44.1694 148.662 43.52 148.585 42.8436L145.604 43.183ZM144.526 37.0696C145.109 38.8874 145.354 40.992 145.604 43.183L148.585 42.8436C148.343 40.7186 148.073 38.3053 147.383 36.1533L144.526 37.0696ZM143.609 32.9919C143.78 34.3586 144.113 35.7822 144.526 37.0696L147.383 36.1534C147.019 35.0184 146.73 33.7775 146.586 32.6198L143.609 32.9919ZM143.563 32.1504C143.568 32.3807 143.574 32.7097 143.609 32.9919L146.586 32.6198C146.574 32.525 146.569 32.3713 146.563 32.086L143.563 32.1504ZM143.608 31.4403C143.518 31.3273 143.495 31.2434 143.499 31.2562C143.501 31.2633 143.513 31.3054 143.525 31.3971C143.55 31.5909 143.556 31.8306 143.563 32.1504L146.563 32.086C146.556 31.8032 146.549 31.3954 146.5 31.0122C146.457 30.6844 146.354 30.0701 145.951 29.5662L143.608 31.4403ZM142.953 29.9477C143 30.1076 143.068 30.3489 143.152 30.5798C143.224 30.7769 143.363 31.134 143.608 31.4403L145.951 29.5662C146.004 29.6331 146.022 29.6748 146.013 29.6566C146.007 29.6443 145.993 29.6128 145.972 29.556C145.929 29.4369 145.887 29.2949 145.836 29.1165L142.953 29.9477ZM142.884 29.7154C142.899 29.76 142.919 29.8273 142.953 29.9476L145.836 29.1165C145.807 29.0165 145.769 28.8826 145.73 28.7668L142.884 29.7154ZM142.524 28.8547C142.681 29.1987 142.798 29.4581 142.884 29.7154L145.73 28.7667C145.585 28.3306 145.398 27.9254 145.251 27.6059L142.524 28.8547ZM142.007 27.5757C142.158 28.0609 142.365 28.5085 142.524 28.8547L145.251 27.6059C145.079 27.2298 144.956 26.9566 144.873 26.6865L142.007 27.5757ZM141.586 26.0232C141.712 26.5205 141.847 27.0584 142.007 27.5757L144.873 26.6865C144.74 26.26 144.624 25.8022 144.495 25.2894L141.586 26.0232ZM140.386 22.763C140.953 23.5817 141.242 24.6575 141.586 26.0232L144.495 25.2894C144.18 24.0389 143.784 22.4012 142.852 21.0554L140.386 22.763ZM139.992 22.3371C140.225 22.5693 140.326 22.6766 140.386 22.763L142.852 21.0554C142.609 20.7033 142.298 20.4002 142.112 20.2138L139.992 22.3371ZM139.274 21.5357C139.518 21.8678 139.807 22.1523 139.992 22.3371L142.112 20.2139C141.895 19.9977 141.776 19.874 141.691 19.7585L139.274 21.5357ZM139.18 21.408C139.211 21.4506 139.242 21.493 139.274 21.5357L141.691 19.7585C141.659 19.7155 141.628 19.6727 141.596 19.6303L139.18 21.408ZM137.092 18.2592C137.737 19.4508 138.461 20.4311 139.18 21.408L141.596 19.6302C140.863 18.6339 140.262 17.8128 139.73 16.8304L137.092 18.2592ZM133.453 13.9208C135.075 15.2928 136.136 16.4944 137.092 18.2592L139.73 16.8304C138.558 14.6663 137.228 13.1852 135.391 11.6306L133.453 13.9208ZM132.047 13.2489C132.757 13.5084 133.16 13.6728 133.453 13.9208L135.391 11.6306C134.621 10.9791 133.69 10.6554 133.077 10.4314L132.047 13.2489ZM130.066 12.2961C130.736 12.7802 131.512 13.0534 132.047 13.2489L133.077 10.4314C132.461 10.2061 132.096 10.0619 131.822 9.86403L130.066 12.2961ZM126.813 10.5356C127.957 10.9474 129.04 11.555 130.066 12.2961L131.822 9.86403C130.619 8.99483 129.29 8.23852 127.83 7.71291L126.813 10.5356ZM122.408 8.65258C123.816 9.33669 125.308 9.99355 126.813 10.5356L127.83 7.71291C126.452 7.21683 125.061 6.60625 123.718 5.95406L122.408 8.65258ZM120.687 8.07508C121.382 8.26492 121.921 8.41633 122.408 8.65258L123.718 5.95406C122.939 5.57544 122.127 5.35844 121.476 5.18082L120.687 8.07508ZM119.051 7.56446C119.619 7.78527 120.197 7.94154 120.687 8.07509L121.476 5.18082C120.96 5.04017 120.535 4.92277 120.138 4.76844L119.051 7.56446ZM116.501 6.93266C117.483 7.11574 118.301 7.27284 119.051 7.56446L120.138 4.76844C119.083 4.35797 117.984 4.15755 117.051 3.9835L116.501 6.93266ZM114.477 6.49545C115.17 6.68536 115.871 6.81529 116.501 6.93266L117.051 3.9835C116.4 3.86214 115.822 3.75352 115.27 3.60224L114.477 6.49545ZM109.37 5.51634C111.026 5.59333 112.714 6.01207 114.477 6.49545L115.27 3.60224C113.507 3.11879 111.532 2.61363 109.51 2.51957L109.37 5.51634ZM104.091 5.97091C105.964 5.66879 107.615 5.4347 109.37 5.51634L109.51 2.51957C107.413 2.42207 105.489 2.70662 103.613 3.00918L104.091 5.97091ZM102.039 6.65316C102.838 6.32084 103.448 6.07464 104.091 5.97091L103.613 3.00918C102.565 3.17814 101.636 3.57173 100.887 3.88318L102.039 6.65316ZM100.436 7.26096C101.019 7.07885 101.566 6.84996 102.039 6.65316L100.887 3.88318C100.394 4.08834 99.9716 4.26296 99.541 4.39752L100.436 7.26096ZM89.1162 13.4436C92.8453 10.9167 96.3968 8.52315 100.436 7.26096L99.541 4.39752C95.0093 5.81369 91.0975 8.47719 87.4333 10.9601L89.1162 13.4436ZM85.895 15.5886C86.9818 14.89 88.0564 14.1618 89.1162 13.4436L87.4333 10.9601C86.3683 11.6817 85.3238 12.3894 84.2727 13.0651L85.895 15.5886ZM78.4481 23.7555C80.1374 20.377 82.7284 17.6243 85.895 15.5886L84.2727 13.0651C80.6948 15.3652 77.7166 18.5103 75.7648 22.4138L78.4481 23.7555ZM76.7145 27.8188C77.2695 26.4002 77.7911 25.0695 78.4481 23.7555L75.7648 22.4138C75.0372 23.8691 74.4685 25.3256 73.9207 26.7258L76.7145 27.8188ZM75.6719 30.4004C76.0482 29.5225 76.3874 28.6551 76.7145 27.8188L73.9207 26.7258C73.5909 27.5688 73.2688 28.3919 72.9145 29.2187L75.6719 30.4004ZM74.7154 32.482C75.0373 31.8044 75.3712 31.1021 75.6719 30.4004L72.9145 29.2187C72.6406 29.8578 72.3323 30.5072 72.0056 31.1947L74.7154 32.482ZM72.7319 37.8759C72.9956 36.1286 73.803 34.4025 74.7154 32.482L72.0056 31.1947C71.133 33.0315 70.1072 35.1641 69.7655 37.4281L72.7319 37.8759ZM73.5837 42.9201C72.9907 41.0562 72.5032 39.3907 72.7319 37.8759L69.7655 37.4281C69.4149 39.7509 70.1728 42.0943 70.7249 43.8297L73.5837 42.9201ZM73.9907 44.5259C73.8832 44.0385 73.7595 43.4725 73.5837 42.9201L70.7249 43.8297C70.8521 44.2295 70.9482 44.66 71.0611 45.172L73.9907 44.5259ZM74.527 46.4076C74.2968 45.8895 74.1605 45.296 73.9907 44.5259L71.0611 45.172C71.2186 45.8862 71.4111 46.7834 71.7856 47.626L74.527 46.4076ZM75.305 49.4535C75.1615 48.5659 74.9894 47.4478 74.527 46.4076L71.7856 47.626C72.0625 48.2491 72.1879 48.9706 72.3435 49.9324L75.305 49.4535ZM75.7769 51.5635C75.5536 50.9606 75.4406 50.2919 75.305 49.4535L72.3435 49.9324C72.4706 50.7184 72.6215 51.6816 72.9636 52.6055L75.7769 51.5635ZM76.5012 53.1759C76.2132 52.5844 75.9654 52.0724 75.7769 51.5635L72.9636 52.6055C73.2122 53.2766 73.5278 53.922 73.8038 54.489L76.5012 53.1759ZM77.2046 54.7076C76.985 54.1686 76.7298 53.6457 76.5012 53.1759L73.8038 54.489C74.0402 54.9746 74.2505 55.408 74.4263 55.8395L77.2046 54.7076ZM78.1355 56.368C77.7307 55.729 77.4138 55.221 77.2046 54.7076L74.4263 55.8395C74.754 56.6438 75.2241 57.3781 75.6012 57.9734L78.1355 56.368ZM79.3351 58.5792C79.0145 57.7458 78.5247 56.9824 78.1355 56.368L75.6012 57.9734C76.0237 58.6404 76.3403 59.1499 76.535 59.6562L79.3351 58.5792ZM81.3963 63.3219C80.6487 61.8269 79.9378 60.1464 79.3351 58.5792L76.535 59.6562C77.16 61.2811 77.9092 63.056 78.713 64.6636L81.3963 63.3219ZM83.0732 65.8099C82.3922 64.9166 81.8041 64.1377 81.3963 63.3219L78.713 64.6636C79.2692 65.776 80.0396 66.779 80.6874 67.6287L83.0732 65.8099ZM83.6913 66.6309C83.4869 66.3526 83.2759 66.0759 83.0732 65.8099L80.6874 67.6287C80.893 67.8985 81.0877 68.1539 81.2737 68.4071L83.6913 66.6309ZM84.1484 67.2982C84.0054 67.0826 83.845 66.84 83.6913 66.6309L81.2737 68.4071C81.3758 68.5461 81.4934 68.7228 81.6482 68.9562L84.1484 67.2982ZM85.292 68.732C85.2354 68.7005 85.083 68.5805 84.8415 68.2805C84.6132 67.9971 84.391 67.6641 84.1484 67.2982L81.6482 68.9562C81.8766 69.3006 82.1746 69.7521 82.505 70.1623C82.8221 70.556 83.2668 71.0387 83.8351 71.3545L85.292 68.732ZM86.8071 69.8008C86.4035 69.4787 85.8885 69.0633 85.292 68.732L83.8351 71.3545C84.1763 71.544 84.4989 71.797 84.9358 72.1457L86.8071 69.8008ZM87.9099 70.5953C87.5638 70.4006 87.2388 70.1454 86.8071 69.8008L84.9358 72.1457C85.3366 72.4656 85.8471 72.877 86.4391 73.2101L87.9099 70.5953ZM89.3789 71.4427C88.8988 71.1622 88.4065 70.8746 87.9099 70.5953L86.4391 73.2101C86.9109 73.4754 87.3821 73.7506 87.8657 74.0331L89.3789 71.4427ZM91.6803 72.7439C90.9201 72.3426 90.1656 71.9022 89.3789 71.4427L87.8657 74.0331C88.6428 74.487 89.453 74.9606 90.28 75.397L91.6803 72.7439ZM93.2842 73.4425C92.6795 73.2042 92.1665 73.0005 91.6803 72.7439L90.28 75.397C90.9364 75.7434 91.6035 76.0047 92.1843 76.2336L93.2842 73.4425ZM94.8502 74.107C94.308 73.8452 93.7653 73.6321 93.2842 73.4425L92.1843 76.2336C92.6813 76.4295 93.1206 76.6033 93.546 76.8087L94.8502 74.107ZM95.1755 74.2647C95.0687 74.2128 94.9597 74.1599 94.8502 74.107L93.5459 76.8086C93.6516 76.8596 93.7572 76.911 93.8646 76.9631L95.1755 74.2647ZM97.0212 75.0951C96.4189 74.8676 95.835 74.5851 95.1755 74.2647L93.8646 76.9632C94.5041 77.2738 95.2098 77.6178 95.961 77.9016L97.0212 75.0951ZM97.5231 75.2032C97.2272 75.1528 97.106 75.1272 97.0212 75.0951L95.961 77.9016C96.3648 78.0541 96.7815 78.1201 97.0197 78.1606L97.5231 75.2032ZM98.6725 75.5013C98.2347 75.317 97.7713 75.2454 97.5231 75.2032L97.0197 78.1606C97.3439 78.2158 97.4483 78.2409 97.5083 78.2662L98.6725 75.5013ZM102 77.1629C100.956 76.5982 99.8405 75.9931 98.6725 75.5013L97.5083 78.2662C98.5186 78.6916 99.506 79.2244 100.573 79.8015L102 77.1629ZM103.459 77.9392C102.976 77.6909 102.496 77.4311 102 77.1629L100.573 79.8015C101.064 80.0671 101.571 80.342 102.087 80.607L103.459 77.9392ZM106.5 78.8926C105.321 78.6271 104.362 78.4038 103.459 77.9392L102.087 80.607C103.383 81.2736 104.713 81.5653 105.842 81.8194L106.5 78.8926ZM108.363 79.3571C107.719 79.1663 107.08 79.0231 106.5 78.8926L105.842 81.8194C106.437 81.9533 106.978 82.0757 107.511 82.2335L108.363 79.3571ZM110.594 79.4414C109.603 79.5033 108.942 79.5287 108.363 79.3571L107.511 82.2335C108.687 82.5821 109.895 82.4909 110.781 82.4356L110.594 79.4414ZM114.15 79.7247C112.866 79.28 111.545 79.3821 110.594 79.4414L110.781 82.4356C111.845 82.3692 112.549 82.3449 113.169 82.5597L114.15 79.7247ZM114.542 79.8613C114.409 79.8149 114.277 79.7687 114.15 79.7247L113.169 82.5597C113.289 82.6013 113.415 82.6454 113.549 82.6923L114.542 79.8613ZM117.783 80.7224C116.95 80.6903 115.752 80.2857 114.542 79.8613L113.549 82.6923C114.608 83.0638 116.284 83.6669 117.668 83.7201L117.783 80.7224ZM125.702 79.7356C124.013 80.3613 123.158 80.6185 122.212 80.7299C121.219 80.8469 120.081 80.8107 117.783 80.7224L117.668 83.7201C119.877 83.8051 121.285 83.8599 122.563 83.7093C123.889 83.5531 125.029 83.184 126.744 82.5488L125.702 79.7356ZM126.728 79.1357C126.263 79.4492 125.975 79.6344 125.702 79.7356L126.744 82.5488C127.415 82.3002 128.004 81.8937 128.406 81.622L126.728 79.1357ZM114.03 10.4621C117.152 10.4621 120.708 11.602 123.602 13.1094L124.988 10.4487C121.827 8.80239 117.788 7.46211 114.03 7.46211V10.4621ZM111.751 10.365C112.467 10.4115 113.24 10.4621 114.03 10.4621V7.46211C113.353 7.46211 112.677 7.41878 111.945 7.37132L111.751 10.365ZM109.669 10.2743C110.345 10.2743 111.02 10.3176 111.751 10.365L111.945 7.37132C111.229 7.32489 110.458 7.27431 109.669 7.27431V10.2743ZM106.947 10.4686C107.912 10.3657 108.782 10.2743 109.669 10.2743V7.27431C108.596 7.27431 107.57 7.38515 106.628 7.48555L106.947 10.4686ZM105.152 10.6361C105.771 10.5941 106.376 10.5294 106.947 10.4686L106.628 7.48555C106.049 7.5473 105.502 7.60553 104.949 7.64289L105.152 10.6361ZM103.442 10.9005C104.087 10.7746 104.626 10.6716 105.152 10.6361L104.949 7.64289C104.204 7.69328 103.481 7.83642 102.868 7.95603L103.442 10.9005ZM101.401 11.2096C102.128 11.1587 102.838 11.0183 103.442 10.9005L102.868 7.95603C102.231 8.08019 101.704 8.18112 101.191 8.21695L101.401 11.2096ZM99.1201 11.9953C100.077 11.5467 100.737 11.2561 101.401 11.2096L101.191 8.21695C99.8739 8.30912 98.7047 8.87653 97.8462 9.27916L99.1201 11.9953ZM97.1262 12.8025C97.8599 12.5898 98.5526 12.2614 99.1201 11.9953L97.8462 9.27916C97.2372 9.56479 96.7594 9.78533 96.2911 9.92103L97.1262 12.8025ZM95.8395 13.435C96.3933 13.1139 96.7658 12.9069 97.1262 12.8025L96.2911 9.92103C95.5166 10.1455 94.8255 10.5551 94.3348 10.8396L95.8395 13.435ZM95.2986 13.7424C95.487 13.6395 95.6725 13.5318 95.8395 13.435L94.3348 10.8396C94.1619 10.9399 94.0097 11.028 93.8605 11.1095L95.2986 13.7424ZM93.8801 14.4287C94.3165 14.2314 94.8123 14.008 95.2986 13.7424L93.8605 11.1095C93.4898 11.312 93.0974 11.4902 92.6439 11.6953L93.8801 14.4287ZM92.2 15.2891C92.6875 14.9712 93.2237 14.7256 93.8801 14.4287L92.6439 11.6953C92.0204 11.9773 91.273 12.3121 90.5614 12.7762L92.2 15.2891ZM86.7885 21.6948C88.436 19.0688 89.909 16.783 92.2 15.2891L90.5614 12.7762C87.6315 14.6867 85.8401 17.5615 84.2472 20.1005L86.7885 21.6948ZM85.4828 24.1694C85.9253 23.2559 86.3265 22.4312 86.7885 21.6949L84.2472 20.1005C83.6828 21.0001 83.2115 21.9767 82.7829 22.8616L85.4828 24.1694ZM84.4624 26.1767C84.8332 25.5114 85.1688 24.8176 85.4828 24.1694L82.7829 22.8616C82.462 23.5239 82.1635 24.1391 81.8418 24.7164L84.4624 26.1767ZM83.8691 27.5951C84.0802 27.0122 84.2452 26.5666 84.4624 26.1767L81.8418 24.7164C81.4868 25.3537 81.2446 26.0318 81.0484 26.5734L83.8691 27.5951ZM82.9005 29.7493C83.3605 29.0161 83.6449 28.2141 83.8691 27.5951L81.0484 26.5734C80.8043 27.2474 80.6199 27.7394 80.3592 28.155L82.9005 29.7493ZM82.3893 31.9494C82.4609 31.4953 82.5384 31.0076 82.6402 30.5628C82.7515 30.0765 82.8536 29.824 82.9005 29.7493L80.3592 28.155C80.0236 28.6899 79.8349 29.3734 79.7158 29.8935C79.5873 30.4551 79.4949 31.0444 79.4259 31.4819L82.3893 31.9494ZM82.3051 32.4657C82.3327 32.3083 82.3611 32.128 82.3893 31.9494L79.4259 31.4819C79.3966 31.6679 79.3723 31.8212 79.35 31.9488L82.3051 32.4657ZM81.5775 35.952C81.8327 34.8214 82.0997 33.6401 82.3051 32.4657L79.35 31.9488C79.1594 33.0386 78.9093 34.1477 78.6511 35.2914L81.5775 35.952ZM81.2447 37.448C81.3509 36.9557 81.463 36.4588 81.5775 35.9521L78.6511 35.2914C78.5373 35.7957 78.4219 36.3068 78.3121 36.8155L81.2447 37.448ZM82.1603 54.4644C81.1956 52.2626 80.6863 49.2534 80.5693 46.1053C80.4529 42.9747 80.729 39.8394 81.2447 37.448L78.3121 36.8155C77.7379 39.4785 77.4468 42.8659 77.5714 46.2168C77.6953 49.5501 78.235 52.9811 79.4125 55.6684L82.1603 54.4644ZM82.5039 55.6351C82.4462 55.3624 82.3561 54.9112 82.1603 54.4644L79.4125 55.6684C79.4644 55.7867 79.5007 55.9337 79.5687 56.2556L82.5039 55.6351ZM82.6598 56.2158C82.6114 56.1121 82.5758 55.9751 82.5039 55.6351L79.5687 56.2556C79.6282 56.5369 79.7231 57.0172 79.9416 57.4852L82.6598 56.2158ZM83.0746 57.5319C83.0007 57.2114 82.8904 56.7096 82.6598 56.2158L79.9416 57.4852C80.0166 57.6457 80.0662 57.8368 80.1514 58.2064L83.0746 57.5319ZM83.3055 58.2896C83.2249 58.1425 83.1727 57.957 83.0746 57.5319L80.1514 58.2064C80.2344 58.5659 80.3624 59.1613 80.6743 59.7307L83.3055 58.2896ZM84.0635 60.0063C83.8664 59.4982 83.6293 58.8809 83.3055 58.2896L80.6743 59.7307C80.8876 60.1203 81.0572 60.5514 81.2666 61.0912L84.0635 60.0063ZM84.7455 61.5226C84.4933 61.1038 84.3044 60.6272 84.0635 60.0063L81.2666 61.0912C81.4912 61.6702 81.7675 62.3929 82.1759 63.0707L84.7455 61.5226ZM87.6008 65.7786C86.5093 64.4254 85.6902 63.0905 84.7456 61.5226L82.1759 63.0707C83.1184 64.6351 84.031 66.1313 85.2658 67.6621L87.6008 65.7786ZM91.8775 69.9711C90.3049 68.7747 88.8665 67.3478 87.6008 65.7786L85.2657 67.6621C86.6684 69.401 88.2778 71.0021 90.0611 72.3587L91.8775 69.9711ZM93.3878 71.1459C92.8991 70.7614 92.3949 70.3647 91.8775 69.9711L90.0611 72.3587C90.556 72.7352 91.0412 73.1168 91.5328 73.5037L93.3878 71.1459ZM101.071 75.5233C98.1503 74.8651 95.9741 73.1806 93.3878 71.1459L91.5328 73.5037C94.0478 75.4823 96.7302 77.6202 100.411 78.4499L101.071 75.5233ZM102.987 76.2007C102.466 75.9778 101.797 75.6871 101.071 75.5233L100.411 78.4499C100.824 78.543 101.241 78.7168 101.807 78.959L102.987 76.2007ZM104.663 76.7609C104.177 76.6993 103.694 76.5033 102.987 76.2007L101.807 78.959C102.447 79.2327 103.314 79.6139 104.286 79.7371L104.663 76.7609ZM104.955 76.7984C104.859 76.7859 104.761 76.7733 104.663 76.7609L104.286 79.7371C104.38 79.749 104.475 79.7613 104.571 79.7737L104.955 76.7984ZM107.96 76.9228C107.063 77.0602 106.117 76.9482 104.955 76.7983L104.571 79.7737C105.66 79.914 107.029 80.1004 108.415 79.8882L107.96 76.9228ZM110.637 76.5668C109.763 76.6741 108.864 76.7844 107.96 76.9228L108.415 79.8882C109.267 79.7577 110.122 79.6526 111.003 79.5444L110.637 76.5668ZM114.293 76.0436C113.097 76.2641 111.893 76.4124 110.637 76.5668L111.003 79.5444C112.245 79.3918 113.538 79.2334 114.837 78.9938L114.293 76.0436ZM115.637 75.621C115.108 75.8208 114.714 75.9658 114.293 76.0436L114.837 78.9938C115.563 78.8598 116.2 78.6153 116.697 78.4274L115.637 75.621ZM117.207 75.1164C116.61 75.2512 116.069 75.4578 115.637 75.621L116.697 78.4274C117.158 78.2535 117.506 78.1243 117.867 78.043L117.207 75.1164ZM136.807 55.2156C134.954 59.4441 132.258 63.9511 128.896 67.6426C125.527 71.3413 121.572 74.1325 117.207 75.1164L117.867 78.043C123.034 76.8784 127.496 73.6348 131.114 69.6627C134.738 65.6834 137.599 60.8836 139.554 56.4196L136.807 55.2156ZM137.763 53.0746C137.447 53.7751 137.125 54.4881 136.807 55.2156L139.554 56.4196C139.866 55.7095 140.181 55.0114 140.498 54.3086L137.763 53.0746ZM139.825 48.2591C139.195 49.9003 138.494 51.455 137.763 53.0746L140.498 54.3086C141.223 52.7005 141.961 51.0681 142.626 49.333L139.825 48.2591ZM140.569 43.1204C140.569 45.0835 140.463 46.5951 139.825 48.2591L142.626 49.333C143.464 47.1465 143.569 45.19 143.569 43.1204H140.569ZM139.972 39.0857C140.309 40.5052 140.569 41.8156 140.569 43.1204H143.569C143.569 41.4434 143.236 39.8453 142.89 38.3912L139.972 39.0857ZM133.595 23.2657C137.028 28.4895 138.504 32.9187 139.972 39.0857L142.89 38.3912C141.381 32.0491 139.801 27.247 136.102 21.618L133.595 23.2657ZM123.602 13.1094C124.899 13.785 126.913 15.5606 128.931 17.6664C130.914 19.7367 132.715 21.9278 133.595 23.2657L136.102 21.618C135.083 20.0679 133.146 17.7291 131.097 15.5908C129.082 13.488 126.769 11.3763 124.988 10.4487L123.602 13.1094Z" fill="#1A2147"/>
<path d="M110.223 24.0177C111.711 24.0177 113.13 23.6827 114.642 23.6827C117.025 23.6827 120.68 24.0433 122.532 25.5249C123.093 25.9744 123.655 26.6578 124.16 27.1624C125.17 28.1722 126.108 29.1852 127.137 30.2141C127.692 30.7689 127.931 31.5341 128.402 32.14C128.65 32.4582 129.317 33.245 129.444 33.6007C129.949 35.0124 129.932 37.0262 129.984 38.5131C130.021 39.5634 130.151 40.6006 130.151 41.6672C130.151 43.128 129.758 44.5454 129.351 45.919C128.841 47.641 128.438 49.9105 127.472 51.4456C126.449 53.0705 125.006 55.9271 123.369 57.0186C122.866 57.3541 122.577 58.0479 122.104 58.4328C121.556 58.8773 121.051 59.218 120.438 59.5585C118.345 60.7214 116.486 61.531 114.037 61.531C111.632 61.531 109.157 62.0029 106.873 60.8611C105.016 59.9327 103.011 59.0087 101.514 57.5117C100.13 56.1271 99.3362 55.4707 98.5834 53.5017C98.2406 52.6053 97.7041 51.8156 97.3274 50.9431C96.9214 50.0031 96.6575 49.2743 96.6575 48.1985C96.6575 45.756 96.8249 43.2932 96.8249 40.8391C96.8249 39.7496 96.5473 38.3123 97.0854 37.3129C97.7133 36.147 97.8498 34.6796 98.295 33.4332C98.7761 32.0859 100.048 30.6616 100.928 29.5535C102.959 26.9953 106.896 24.0177 110.223 24.0177Z" stroke="#1A2147" stroke-width="3" stroke-linecap="round"/>
<path d="M116.282 41.7178C115.518 50.8852 107.369 56.9968 103.39 58.9066L98.6154 54.132L96.7056 47.9249V41.7178L97.6605 35.0333L101.48 28.8262L105.777 25.4839L111.985 24.0515C113.735 26.1205 117.046 32.5504 116.282 41.7178Z" fill="#1A2147"/>
<path d="M151.704 60.1723C150.636 64.7482 146.307 67.2471 144.276 67.9246L142.383 65.1678L141.957 61.8944L142.435 58.7588L143.402 55.451L145.689 52.5913L147.981 51.2132L151.03 50.9378C151.7 52.1094 152.772 55.5965 151.704 60.1723Z" fill="#1A2147"/>
<path d="M146.772 51.6134C147.382 51.4181 148.021 51.4968 148.627 51.2646C149.525 50.9205 150.558 50.9632 151.501 51.068C151.691 51.0891 151.913 51.0937 152.104 51.1261C152.555 51.2027 152.973 51.5716 153.3 51.8626C154.027 52.5083 154.524 53.3632 155.205 54.0442C155.675 54.5142 156.085 55.1563 156.39 55.7496C156.546 56.0527 156.754 56.342 156.786 56.6909C156.81 56.9596 156.864 57.2224 156.891 57.491C156.92 57.7821 156.972 58.0702 156.999 58.3631C157.057 58.9795 156.962 59.5444 156.935 60.1571C156.915 60.6264 156.844 61.0824 156.839 61.5524C156.832 62.0903 156.794 62.622 156.639 63.136C156.473 63.6885 156.171 64.2069 155.739 64.595C155.428 64.8756 155.064 65.1019 154.795 65.4283C154.112 66.2598 153.347 66.7875 152.378 67.2611C151.866 67.5114 151.345 67.8434 150.798 68.0086C150.248 68.1745 149.713 68.208 149.139 68.208C148.388 68.208 147.684 68.2452 146.96 68.0585C146.625 67.9719 146.268 67.9607 145.928 67.8813C145.621 67.8096 145.335 67.677 145.039 67.5712C144.568 67.4028 144.213 67.1185 143.807 66.8375C143.472 66.6058 143.271 66.3559 143.015 66.043C142.91 65.9143 142.863 65.7261 142.786 65.5668C142.723 65.4371 142.713 65.1817 142.586 65.1183" stroke="#1A2147" stroke-width="3" stroke-linecap="round"/>
<path d="M89.0964 76.4242C86.9389 75.8694 84.9057 75.1563 82.832 74.3883C82.0825 74.1107 81.5889 73.5187 80.7804 73.339C79.1615 72.9793 77.3701 73.0749 75.7219 72.7752C73.5578 72.3817 71.6048 71.7009 69.3636 71.4127C65.1764 70.8744 61.0004 69.7576 56.9602 68.5311C53.1946 67.388 49.1341 67.2466 45.4181 65.8531C41.8394 64.5111 38.6145 65.1483 34.8313 65.1483C32.6369 65.1483 30.9784 65.3085 28.7705 64.8038C26.8745 64.3704 25.1591 63.8116 23.1952 63.7389C21.9862 63.6941 20.2385 62.6582 19.186 63.0341C18.0848 63.4274 17.8068 63.452 18.1211 64.8664C18.4306 66.2594 18.3403 67.6672 18.3403 69.0949C18.3403 74.5833 18.3057 80.0281 19.1234 85.4449C20.0254 91.4209 21.1249 97.2158 23.8373 102.641C24.9208 104.808 25.1718 107.9 26.6719 109.829C27.9277 111.443 27.6429 113.721 27.6429 115.733C27.6429 119.348 29.1564 122.972 31.3076 125.819C33.0709 128.153 34.4275 130.646 36.0998 133.023C38.2807 136.122 39.3351 139.691 41.3306 142.827C44.2543 147.421 47.6603 151.399 51.5415 155.136C52.5508 156.108 53.3801 157.248 54.4387 158.174C55.0997 158.753 56.053 158.958 56.6783 159.584C58.1552 161.061 59.1644 163.001 60.7344 164.47C61.679 165.354 62.2734 165.598 63.2829 166.338M83.7403 179.598C85.8937 180.583 88.3327 180.914 90.5058 181.854C91.8968 182.455 93.8042 182.637 95.2981 182.918C96.5097 183.147 97.6692 183.471 98.8844 183.561C103.745 183.921 108.833 184.994 113.621 185.925C116.853 186.554 120.62 186.646 123.911 186.646C127.316 186.646 131.301 186.519 134.466 185.095C138.358 183.344 142.382 182.225 146.541 181.29C148.935 180.751 151.681 180.255 153.933 179.254C156.211 178.241 158.756 178.128 161.121 177.202C163.265 176.363 164.918 175.225 166.915 174.101C170.751 171.944 174.833 170.55 178.458 168.041C179.79 167.118 180.875 166.092 181.997 164.94C183.622 163.27 185.401 161.766 186.774 159.866C187.641 158.665 189.115 157.734 189.733 156.342C190.13 155.45 190.98 155.102 191.55 154.369C192.003 153.786 192.334 153.096 192.834 152.536C194.03 151.2 194.974 149.468 195.653 147.807C196.237 146.38 197.242 144.182 198.331 143.093C199.54 141.884 201.336 139.988 201.855 138.3C202.385 136.578 203.359 134.714 204.173 133.085C204.834 131.762 205.508 130.308 205.802 128.841C206.024 127.73 207.096 126.793 207.211 125.756C207.354 124.466 208.79 122.98 209.247 121.747C210.056 119.563 211.586 117.554 212.222 115.326C212.746 113.494 213.273 111.758 213.977 109.97C214.521 108.585 215.616 106.751 215.934 105.319C216.243 103.928 216.909 102.687 216.529 101.356C216.391 100.872 216.514 100.185 216.514 99.6807C216.514 98.3951 214.531 98.4611 213.538 98.1302C212.026 97.6263 210.342 97.5799 208.902 96.94C206.206 95.7416 202.779 96.7018 200.023 95.1703C198.867 94.5281 197.073 94.4034 195.779 94.168C193.294 93.7162 190.786 93.2527 188.308 92.6333C184.687 91.7278 180.951 91.1128 177.393 90.0179C175.765 89.5172 173.939 89.856 172.256 89.5324C170.945 89.2803 169.628 88.6846 168.309 88.5458C167.741 88.486 166.729 88.3283 166.195 88.1229C164.673 87.5376 163.019 87.1085 161.481 86.6351C159.767 86.1078 157.56 86.6427 155.906 85.946C154.678 85.429 152.746 85.4449 151.395 85.4449C150.106 85.4449 148.837 85.163 147.449 85.163" stroke="#1A2147" stroke-width="3" stroke-linecap="round"/>
<path d="M50.7424 155.351C51.6059 159.441 52.5522 163.468 53.1732 167.607C53.5483 170.108 53.6417 172.696 54.2149 175.157C54.7438 177.428 54.8566 179.829 54.9094 182.153C55.0176 186.917 56.0669 191.716 56.0669 196.506C56.0669 201.344 57.2243 206.041 57.2243 210.91C57.2243 214.236 57.9188 217.683 57.9188 220.865" stroke="#1A2147" stroke-width="3" stroke-linecap="round"/>
<path d="M61.1587 223.413C59.8413 223.413 58.8463 222.822 57.6862 222.307C56.7844 221.906 55.6491 221.689 54.7925 221.214C54.1777 220.872 52.7798 220.635 52.0789 220.635C50.9204 220.635 49.8427 220.172 48.6579 220.172C45.8808 220.172 43.3648 221.658 41.43 223.593C40.3841 224.639 39.2757 224.854 38.5877 226.306C37.9357 227.683 37.4538 229.021 37.546 230.589C37.5904 231.343 38.1469 232.226 38.5234 232.904C39.0171 233.793 39.385 234.746 39.861 235.579C40.9061 237.408 43.1864 237.766 45.1983 237.766C49.4961 237.766 53.7669 236.628 58.0335 237.418C59.6051 237.709 61.5928 237.766 63.1907 237.766C64.4773 237.766 65.6695 237.997 66.9461 237.997C67.9879 237.997 69.0296 237.997 70.0713 237.997C70.6197 237.997 71.0772 238.039 71.5761 237.817C71.8032 237.716 72.2855 237.315 72.502 237.303C73.3559 237.252 74.2595 237.534 75.1643 237.534C76.1229 237.534 76.7063 236.84 77.595 236.84C78.1707 236.84 78.5781 236.983 78.5081 236.248C78.428 235.407 78.2356 234.563 78.1094 233.727C77.8288 231.868 77.7484 229.845 77.2477 228.043C76.8308 226.542 76.9005 224.571 76.9005 223.001C76.9005 221.688 76.669 220.419 76.669 219.13C76.669 213.091 74.5855 207.453 74.5855 201.421C74.5855 196.157 74.2079 190.736 73.1965 185.679" stroke="#1A2147" stroke-width="3" stroke-linecap="round"/>
<path d="M144.264 182.669C145.158 188.594 145.136 194.591 145.872 200.481C146.171 202.876 146.116 205.495 146.116 207.902C146.116 210.765 146.72 213.563 146.811 216.416C146.856 217.842 147.07 219.41 147.325 220.815C147.573 222.176 147.369 223.558 147.621 224.917C147.991 226.915 148.431 229.127 148.431 231.155C148.431 232.201 148.431 233.247 148.431 234.293C148.431 234.645 148.246 235.612 148.701 235.669C149.905 235.819 151.203 235.682 152.418 235.682C154.884 235.682 157.163 235.384 159.543 235.913C161.835 236.423 163.713 236.145 166.012 236.145C166.928 236.145 167.724 235.909 168.571 235.579C169.675 235.15 170.832 235.219 171.992 235.219C173.935 235.219 175.771 234.632 177.6 234.524C180.106 234.377 182.533 233.335 184.082 231.399C184.859 230.428 186.066 230.118 186.628 228.853C187.137 227.708 187.554 227.184 187.554 225.843C187.554 224.573 187.942 223.853 187.374 222.718C186.86 221.69 186.768 220.314 186.448 219.194C186.224 218.41 186.124 217.958 185.754 217.291C185.46 216.763 185.034 216.386 184.648 215.889C183.966 215.013 182.238 214.586 181.201 214.397C179.881 214.157 178.242 214.153 176.905 214.153C175.862 214.153 174.816 214.073 173.806 214.384C173.281 214.546 172.297 214.61 171.864 214.899C170.753 215.639 168.595 216.009 167.877 217.265C167.618 217.718 166.61 218.139 166.205 218.5C166.071 218.618 166.025 216.616 166.025 216.352C166.025 213.095 164.867 209.953 164.867 206.745C164.867 202.754 164.173 198.826 164.173 194.823C164.173 191.427 162.784 188.056 162.784 184.752C162.784 181.752 162.089 178.775 162.089 175.724" stroke="#1A2147" stroke-width="3" stroke-linecap="round"/>
<path d="M39.7373 108.578C40.0339 106.601 40.7532 104.719 41.3793 102.841C41.6358 102.071 42.1768 100.601 42.7245 99.9923C43.2955 99.358 43.6851 98.2768 44.0104 97.4997C44.3438 96.7032 45.2018 95.1813 45.9689 94.7301C46.6997 94.3002 47.4542 93.4928 48.1055 92.91C48.5382 92.5228 49.077 91.7916 49.5299 91.5252C51.5727 90.3236 53.3965 88.754 55.3658 87.3906C56.5734 86.5546 58.3716 85.9782 59.817 85.6497C61.5176 85.2632 63.2466 84.9995 64.9803 84.7595C66.1254 84.6009 67.4318 84.6412 68.5413 84.3243C69.1542 84.1491 69.8005 84.3177 70.4008 84.1462C71.0996 83.9466 71.801 84.123 72.4978 83.9682C73.0458 83.8464 73.5758 83.7198 74.1003 83.9682C75.4811 84.6222 77.0292 84.244 78.3734 84.898C79.8238 85.6036 81.4668 85.6614 82.963 86.1047C83.6295 86.3022 84.3166 86.2866 85.0007 86.5399C85.4646 86.7118 85.8788 86.9782 86.3855 87.0345C87.4266 87.1502 88.5529 87.6258 89.5903 87.8852C90.581 88.1329 91.5524 88.4943 92.5182 88.6765C95.4909 89.2374 98.4738 89.2437 101.381 90.0613C103.242 90.5846 105.174 90.8378 106.999 91.4461C107.826 91.7217 108.951 91.7807 109.531 92.5144C109.965 93.0616 110.673 93.4664 110.916 94.1959C111.232 95.1418 111.312 95.8405 111.312 96.8271C111.312 98.3499 110.137 99.7497 108.958 100.566C107.948 101.265 106.819 101.864 105.614 102.208C104.551 102.512 103.608 103.353 102.548 103.731C101.103 104.247 99.3364 104.174 97.82 104.443C96.0766 104.753 93.8134 104.638 92.0829 104.345C90.5346 104.082 88.8401 103.636 87.2757 103.593C85.8814 103.554 84.5617 103.771 83.1806 103.771C81.2359 103.771 79.2624 103.771 77.3051 103.771" stroke="#1A2147" stroke-width="3" stroke-linecap="round"/>
<path d="M107.929 102.166C108.843 102.452 109.456 102.658 110.244 103.095C110.654 103.323 110.978 103.758 111.401 103.946C112.115 104.264 112.571 105.276 113.27 105.687C114.398 106.35 114.545 109.843 114.022 110.89C111.864 115.207 107.467 117.478 102.597 117.478C101.462 117.478 100.144 117.475 99.0662 117.794C97.7024 118.198 96.0318 117.656 94.6645 117.656C91.9138 117.656 88.9213 117.128 86.2171 116.587C84.8039 116.305 83.3243 116.153 81.9341 115.836C80.9111 115.602 79.8399 115.736 78.8183 115.509C77.9315 115.312 77.3267 114.843 76.3751 114.807C75.5773 114.776 74.8666 114.273 74.1001 114.273" stroke="#1A2147" stroke-width="3" stroke-linecap="round"/>
<path d="M109.532 116.234C110.838 116.234 112.737 118.487 112.737 119.705C112.737 120.536 112.737 121.367 112.737 122.198C112.737 123.185 112.701 124.553 112.025 125.314C111.257 126.178 110.394 126.614 109.354 127.134C108.41 127.606 107.805 128.318 106.763 128.697C103.921 129.73 100.959 129.711 97.9789 130.388C95.7354 130.898 93.4909 131.222 91.3318 131.862C89.9037 132.285 88.1326 131.696 86.7026 132.119C85.3535 132.519 83.7805 132.436 82.3702 132.436C78.6671 132.436 75.1566 131.089 72.1028 129.053C71.4536 128.62 70.9819 128.3 70.2729 127.985C69.7901 127.77 69.2225 127.557 68.8485 127.183C68.1758 126.511 67.0876 125.902 66.2668 125.492" stroke="#1A2147" stroke-width="3" stroke-linecap="round"/>
<path d="M105.078 129.763C105.343 130.234 105.992 130.781 106.136 131.286C106.353 132.044 106.324 132.792 106.324 133.591C106.324 134.958 105.576 135.869 104.811 136.974C104.303 137.708 103.49 138.303 102.674 138.665C102.063 138.937 101.444 139.345 100.904 139.734C100.544 139.993 100.231 140.544 99.8257 140.634C99.0245 140.812 98.2266 141.384 97.5111 141.781C97.1895 141.96 96.6978 141.87 96.3439 141.87C95.3729 141.87 94.3747 141.918 93.4259 142.147C92.4849 142.374 91.3878 142.69 90.4387 142.761C89.4926 142.831 88.3997 143.566 87.4911 143.868C85.5194 144.526 83.4141 145.017 81.3188 145.075C80.1413 145.108 78.9762 145.582 77.7974 145.609C76.5599 145.638 75.3179 145.752 74.098 145.787C72.7264 145.827 71.361 145.253 69.9634 145.253C68.7031 145.253 67.4082 145.074 66.264 144.501C64.0592 143.399 62.0717 142.178 59.7554 141.336C57.9125 140.666 56.3695 139.988 54.9481 138.567C53.7776 137.396 52.893 136.105 51.585 135.035C51.2745 134.781 50.8986 134.666 50.586 134.392C50.3238 134.163 49.9133 133.634 49.6166 133.502C48.8705 133.171 48.0861 132.285 47.3812 131.801C46.4859 131.185 45.5315 130.52 45.0765 129.496C44.4159 128.01 43.6409 126.435 43.0784 124.916C42.7236 123.958 42.0235 123.065 41.654 122.068C41.2131 120.877 40.6303 119.797 40.3088 118.546C39.8525 116.772 39.4704 115.389 39.379 113.561C39.3079 112.14 39.2009 110.731 39.2009 109.288" stroke="#1A2147" stroke-width="3" stroke-linecap="round"/>
<path fill-rule="evenodd" clip-rule="evenodd" d="M100.047 76.4924L89.6001 73.6894V75.1218C89.6001 76.9212 88.7749 79.058 87.8001 80.764C87.245 81.7354 86.8535 82.7902 86.5077 83.7219L86.5068 83.7242C86.4695 83.8247 86.4327 83.9238 86.3964 84.0212C86.0514 84.9442 85.729 85.7527 85.2987 86.4701L108.642 91.8569L111.632 94.4738C112.608 92.0278 113.619 89.6107 114.678 87.2299C114.834 86.8774 115.035 86.5074 115.271 86.0874C115.318 86.0042 115.367 85.9183 115.416 85.8302C115.608 85.4927 115.817 85.1235 116.008 84.7545C116.489 83.8258 116.977 82.676 116.977 81.3741V80.4433L111.241 79.1046C108.529 77.1995 104.213 76.2973 100.047 76.4924ZM94.8616 142.541L87.1557 143.901L74.7415 145.811L66.4689 144.156C64.2859 152.277 62.5651 160.354 61.6911 168.221C61.6344 168.731 61.5006 169.206 61.3304 169.81C61.3047 169.901 61.2782 169.995 61.251 170.093C61.0561 170.792 60.8366 171.645 60.8366 172.607C60.8366 172.733 60.8129 172.939 60.7592 173.292C60.7509 173.346 60.742 173.404 60.7327 173.463L60.7327 173.464L60.7324 173.465L60.7324 173.465L60.7324 173.466L60.7324 173.466C60.6881 173.751 60.6348 174.094 60.5996 174.431C60.5566 174.842 60.53 175.327 60.5895 175.812C60.6488 176.295 60.8058 176.877 61.2131 177.386C61.4229 177.648 61.5267 177.929 61.7343 178.491L61.7855 178.629C62.0102 179.235 62.3372 180.057 63.0885 180.809C64.0894 181.809 65.141 182.826 66.1604 183.753C67.0654 184.576 68.1954 184.954 69.0947 185.207C69.3993 185.292 69.6727 185.364 69.9222 185.429L69.9223 185.429L69.9224 185.429L69.9226 185.429C70.5098 185.582 70.9651 185.701 71.3861 185.892C72.291 186.303 73.28 186.42 74.131 186.454C74.6725 186.475 75.2793 186.463 75.7998 186.453L75.8004 186.453L75.8051 186.453C76.0599 186.448 76.2939 186.443 76.4891 186.443C78.907 186.443 80.6345 185.004 81.8811 183.562C82.5117 182.832 83.0733 182.038 83.5694 181.327L83.7 181.14C84.1572 180.484 84.5487 179.923 84.9345 179.46C86.0737 178.093 86.8485 175.839 87.3262 174.149C87.5766 173.262 87.7661 172.451 87.893 171.862C87.9566 171.566 88.0049 171.325 88.0375 171.156L88.0591 171.043L88.0747 170.959L88.0803 170.928L94.7356 142.881C94.7776 142.768 94.8196 142.654 94.8616 142.541ZM113.855 82.5819C113.9 82.4657 113.939 82.3528 113.972 82.2426C113.892 82.2216 113.813 82.2004 113.733 82.179C113.779 82.3111 113.82 82.4454 113.855 82.5819Z" fill="#1A2147"/>
</svg>
