<svg width="97" height="96" viewBox="0 0 97 96" fill="none" xmlns="http://www.w3.org/2000/svg">
<path d="M2 75.2801C3.78128 75.4286 5.52405 75.517 7.31734 75.517C8.7112 75.517 10.6357 75.5766 11.9634 75.1617C14.5359 74.3578 17.5191 75.2801 20.1105 75.2801C21.5547 75.2801 22.9397 75.7539 24.3881 75.7539C25.4117 75.7539 26.4018 76.1466 26.4018 74.9247C26.4018 73.1689 25.928 71.4865 25.928 69.7127C25.928 68.1214 25.7186 65.969 26.2834 64.5007C26.4788 63.9925 26.4254 63.4456 26.2834 62.9344C26.0721 62.1739 26.4261 61.1565 26.0465 60.4732C25.695 59.8405 25.928 58.5718 25.928 57.8672C25.928 53.7036 26.1649 49.4628 26.1649 45.2319C26.1649 41.2606 26.2753 37.5292 27.1257 33.7022C28.8599 25.8985 38.4115 17 46.8946 17C50.6503 17 54.144 17.0993 57.8584 17.2369C59.6308 17.3026 62.1429 17.9681 63.6495 18.8953C66.2814 20.5149 68.5722 22.9825 69.8092 25.7657C70.2454 26.747 70.5781 27.4911 71.178 28.4244C71.6844 29.2121 72.3101 30.2696 72.3626 31.2147C72.4558 32.8927 72.8364 34.4919 72.8364 36.1898C72.8364 40.9689 74.021 45.6226 74.021 50.4045C74.021 58.487 74.4948 66.6401 74.4948 74.8063C74.4948 75.675 74.4948 76.5436 74.4948 77.4123C74.4948 78.4156 77.893 77.7408 78.7592 77.9388C80.6989 78.3821 82.6831 78.36 84.682 78.36C88.108 78.36 91.4938 77.8861 94.8691 77.8861" stroke="#1A2147" stroke-width="3" stroke-linecap="round"/>
<path d="M26.6978 75.6645C27.7931 75.5492 28.9915 74.5842 29.8545 73.9497C30.4639 73.5016 31.5338 73.5245 31.9589 72.7806C32.0641 72.5965 33.1122 72.4824 33.3619 72.3714C33.9963 72.0894 33.888 71.7909 33.888 71.0951C33.888 67.2781 33.7126 63.5395 33.7126 59.7056C33.7126 55.8341 33.5373 52.0006 33.5373 48.131C33.5373 43.7281 33.8442 39.6857 34.229 35.2607C34.3908 33.4 34.7089 31.3336 35.4664 29.6293C36.577 27.1304 37.0498 25.459 38.9348 23.3646C41.7082 20.2831 44.6118 20.0241 47.8788 17.967C48.6822 17.4612 50.488 17.4409 51.4252 17.4409" stroke="#1A2147" stroke-width="3" stroke-linecap="round"/>
<path d="M64.8007 71.5368C63.842 71.5298 62.9876 71.5236 62.2858 71.6754C61.5667 71.8309 60.8522 71.8578 60.2205 71.8542C59.9197 71.8524 59.6204 71.8434 59.3439 71.835L59.3436 71.835L59.2989 71.8337C59.0029 71.8247 58.733 71.8171 58.4726 71.8171H53.3437C52.4056 71.8171 51.4648 71.8506 50.491 71.8854L50.4829 71.8857C49.5205 71.9201 48.5258 71.9557 47.5218 71.9557C46.9887 71.9557 46.4349 72.0093 45.8035 72.0758L45.6764 72.0892C45.1016 72.15 44.4567 72.2182 43.8125 72.2325C43.2433 72.2452 42.6533 72.3159 41.9899 72.404L41.7706 72.4333C41.1873 72.5115 40.5428 72.5979 39.899 72.6381C39.743 72.6479 39.5671 72.6448 39.4529 72.6428L39.431 72.6425C39.2904 72.6401 39.1806 72.6385 39.0784 72.6418C39.0516 72.6426 39.028 72.6438 39.0074 72.6451C38.482 72.9552 37.9244 72.9563 37.7146 72.9555C37.552 72.9549 37.3951 72.9444 37.2907 72.9375L37.2905 72.9375L37.2849 72.9371C37.158 72.9287 37.1098 72.926 37.0793 72.926C36.5542 72.926 36.04 72.8881 35.5853 72.8547L35.5577 72.8526C35.0783 72.8174 34.6599 72.7874 34.2454 72.7874C33.4169 72.7874 32.7454 72.1158 32.7454 71.2874L33.4912 49.27L34.9912 34.77L36.4912 25.77L41.9899 20.27L50.9912 17.27H54.9912L61.4912 17.77L66.5142 21.27L72.0466 29.77L73.9912 46.27V54.77L74.9741 70.7329C74.9741 71.5613 74.3025 72.2329 73.4741 72.2329C72.9267 72.2329 72.4175 72.1422 72.0466 72.0762L72.018 72.0711C71.6019 71.9971 71.3506 71.9557 71.1176 71.9557C70.6545 71.9557 70.2329 71.8374 70.0096 71.7748L69.9657 71.7626C69.6911 71.6864 69.628 71.6784 69.5928 71.6784H67.7907C67.331 71.6784 66.8873 71.639 66.5142 71.6059L66.4849 71.6033C66.0851 71.5678 65.7583 71.5398 65.4343 71.5398C65.219 71.5398 65.0081 71.5383 64.8019 71.5368L64.8008 71.5368H64.8007Z" fill="#1A2147"/>
<path d="M52.9912 45.8677C52.9912 49.1814 50.3049 52.77 46.9912 52.77C43.6775 52.77 40.9912 49.5837 40.9912 46.27C40.9912 42.9563 43.6775 39.27 46.9912 39.27C50.3049 39.27 52.9912 42.554 52.9912 45.8677Z" fill="white"/>
<path d="M66.9912 45.8677C66.9912 49.1814 64.3049 52.77 60.9912 52.77C57.6775 52.77 54.9912 49.5837 54.9912 46.27C54.9912 42.9563 57.6775 39.27 60.9912 39.27C64.3049 39.27 66.9912 42.554 66.9912 45.8677Z" fill="white"/>
<path d="M60.9912 46.7136C60.9912 47.9409 60.0958 49.27 58.9912 49.27C57.8866 49.27 56.9912 48.0899 56.9912 46.8626C56.9912 45.6353 57.8866 44.27 58.9912 44.27C60.0958 44.27 60.9912 45.4863 60.9912 46.7136Z" fill="#1A2147"/>
<path d="M50.9912 46.7136C50.9912 47.9409 50.0958 49.27 48.9912 49.27C47.8866 49.27 46.9912 48.0899 46.9912 46.8626C46.9912 45.6353 47.8866 44.27 48.9912 44.27C50.0958 44.27 50.9912 45.4863 50.9912 46.7136Z" fill="#1A2147"/>
</svg>
