<svg width="240" height="240" viewBox="0 0 240 240" fill="none" xmlns="http://www.w3.org/2000/svg">
<g clip-path="url(#clip0_424_2622)">
<path fill-rule="evenodd" clip-rule="evenodd" d="M85.3776 148.627C84.7746 148.546 84.0622 148.626 83.5169 148.773C82.9034 148.939 82.2104 149.335 81.5945 149.902C80.9787 150.469 80.526 151.128 80.3097 151.734C80.032 152.511 79.6902 153.262 79.3785 153.946C79.3622 153.982 79.3459 154.018 79.3298 154.053C78.9954 154.788 78.6979 155.451 78.4712 156.119C78.2406 156.798 78.1516 157.549 78.1062 158.433C78.0936 158.678 78.0843 158.948 78.0745 159.232C78.0521 159.885 78.0271 160.613 77.9528 161.281C77.8788 161.947 77.717 162.548 77.5621 163.068C77.5135 163.231 77.4672 163.382 77.4233 163.525C77.3177 163.868 77.2255 164.168 77.1459 164.498C77.0211 165.015 76.8483 165.597 76.489 166.13C76.106 166.699 75.5949 167.094 74.9822 167.4C74.9195 167.432 74.8255 167.491 74.667 167.61C74.6346 167.634 74.5786 167.678 74.5122 167.729C74.385 167.827 74.2197 167.955 74.1088 168.036C73.7023 168.332 72.9858 168.809 72.0416 168.809H69.666C68.8957 168.809 68.0553 168.765 67.308 168.32C66.5614 167.875 66.1357 167.164 65.7939 166.549C65.5743 166.154 65.5052 165.713 65.4745 165.44C65.4387 165.121 65.4323 164.783 65.4407 164.471C65.4568 163.876 65.533 163.196 65.6599 162.739C65.7406 162.448 65.7974 162.093 65.8498 161.66C65.8655 161.531 65.8818 161.383 65.899 161.228C65.9326 160.924 65.9694 160.591 66.0112 160.304C66.0314 160.165 66.0515 160.028 66.0714 159.893C66.3694 157.865 66.6171 156.178 66.1713 154.635C66.165 154.635 66.1587 154.635 66.1523 154.635C65.8554 154.635 65.3154 154.803 64.8068 155.065C64.3986 155.275 64.0612 155.551 63.5865 155.939C63.4737 156.031 63.3532 156.13 63.2222 156.236C63.1097 156.326 62.9998 156.443 62.7935 156.667L62.7813 156.68C62.602 156.875 62.3376 157.162 62.011 157.416C61.9165 157.49 61.8193 157.557 61.7588 157.598C61.7544 157.601 61.7502 157.604 61.7462 157.607C61.7107 157.632 61.6844 157.65 61.6637 157.665C61.3508 158.249 60.8391 158.686 60.5417 158.933C60.3403 159.099 60.1904 159.217 60.0711 159.31C59.9125 159.434 59.8081 159.516 59.709 159.615C56.8331 162.491 54.8931 164.912 52.8636 168.464C52.3762 169.317 51.9892 170.806 51.9892 171.836C51.9892 172.695 51.959 173.571 51.9297 174.421L51.9288 174.447C51.8989 175.315 51.8701 176.157 51.8701 176.984C51.8701 177.968 51.8991 178.956 51.929 179.969L51.9295 179.984C51.959 180.984 51.9892 182.008 51.9892 183.032C51.9892 184.822 52.0358 186.445 52.3289 188.057C52.3289 188.057 52.3363 188.092 52.3781 188.168C52.4229 188.249 52.4926 188.352 52.597 188.483C52.7027 188.617 52.8202 188.75 52.963 188.912L52.9761 188.927C53.105 189.073 53.265 189.254 53.407 189.436C53.5969 189.681 54.0106 190.229 54.2018 190.803C54.2309 190.89 54.2547 190.975 54.2728 191.044C54.2898 191.107 54.3067 191.175 54.3212 191.233L54.3248 191.247C54.3582 191.38 54.3844 191.482 54.4126 191.573L54.4139 191.577C55.1046 192.145 55.4154 192.984 55.5736 193.413C55.6401 193.594 55.6817 193.715 55.7189 193.822C55.7595 193.94 55.7947 194.041 55.851 194.189C55.9368 194.414 55.9893 194.508 56.0105 194.539C56.1717 194.772 56.4467 195.045 56.843 195.371C57.0949 195.577 57.3129 195.742 57.5446 195.916C57.7119 196.043 57.8865 196.174 58.0862 196.331C58.5377 196.686 58.9387 197.107 59.2512 197.436C59.2961 197.483 59.3392 197.528 59.3804 197.571C59.7458 197.952 60.01 198.203 60.2808 198.376C60.5683 198.559 60.8821 198.739 61.2329 198.941L61.2437 198.947C61.5537 199.126 61.8932 199.321 62.2216 199.527C62.2486 199.534 62.2833 199.542 62.3404 199.555C62.3572 199.559 62.3759 199.564 62.3969 199.569C62.4934 199.591 62.6723 199.633 62.853 199.7C63.0253 199.763 63.3319 199.894 63.6065 200.169C63.6065 200.169 63.6136 200.176 63.6304 200.188C63.6477 200.202 63.6724 200.219 63.7059 200.24C63.7743 200.282 63.8646 200.329 63.9775 200.379C64.2072 200.481 64.4701 200.568 64.7305 200.646C65.7728 200.959 66.8078 201.305 67.8131 201.642C68.0033 201.705 68.1923 201.769 68.3802 201.831C68.7347 201.949 69.0766 202.076 69.3886 202.191L69.4624 202.218C69.8028 202.344 70.1078 202.456 70.4091 202.552C71.0029 202.742 71.527 202.853 72.0747 202.853C72.6872 202.853 72.9892 202.839 73.3386 202.732C73.8569 202.575 74.3531 202.518 74.7456 202.481C74.8487 202.472 74.9427 202.463 75.0299 202.456C75.3093 202.431 75.52 202.413 75.7428 202.373C78.88 201.815 81.697 200.647 84.5275 199.055C84.8852 198.854 85.2751 198.658 85.6189 198.485C85.7803 198.403 85.9315 198.327 86.0644 198.258C86.5225 198.02 86.9099 197.795 87.2668 197.518C87.8766 197.043 88.555 196.674 89.1126 196.371C89.1444 196.354 89.1758 196.337 89.2068 196.32C89.824 195.984 90.3026 195.714 90.6987 195.39C91.0034 195.141 91.3235 194.946 91.5689 194.801C91.6239 194.768 91.6749 194.738 91.7225 194.71C91.9132 194.598 92.051 194.517 92.1844 194.424C92.2985 194.345 92.4112 194.234 92.6589 193.98L92.6718 193.967C92.8816 193.752 93.2093 193.416 93.6299 193.145C93.6593 193.126 93.7272 193.072 93.8613 192.906C93.9231 192.83 93.9835 192.75 94.062 192.647L94.0813 192.621C94.1627 192.514 94.2647 192.379 94.3761 192.246C94.5757 192.008 94.8345 191.766 95.002 191.61C95.0381 191.576 95.0699 191.547 95.096 191.522C95.191 191.431 95.2578 191.364 95.3083 191.306C95.3324 191.279 95.3492 191.258 95.3605 191.243C95.3712 191.228 95.3753 191.221 95.3753 191.221C95.6241 190.786 95.9219 190.389 96.157 190.077C96.1762 190.051 96.1951 190.026 96.2135 190.001C96.4781 189.648 96.667 189.386 96.8069 189.121C97.0649 188.632 97.359 188.189 97.6212 187.803C97.6679 187.734 97.7133 187.668 97.7576 187.603C97.974 187.286 98.1622 187.01 98.3361 186.72C98.5716 186.328 98.853 185.955 99.0769 185.659C99.1052 185.621 99.1326 185.585 99.1588 185.55C99.4184 185.205 99.5935 184.957 99.7107 184.729C99.9718 184.221 100.35 183.7 100.64 183.3C100.715 183.196 100.785 183.1 100.845 183.015C101.198 182.513 101.369 182.192 101.427 181.932C101.636 180.99 101.818 180.133 101.95 179.234C102.097 178.232 101.923 176.786 101.553 175.833C101.542 175.804 101.529 175.775 101.514 175.744C100.523 177.467 99.5522 179.173 98.6629 180.92C98.6289 180.987 98.577 181.094 98.5159 181.22C98.3959 181.469 98.2406 181.79 98.1171 182.019C97.8958 182.428 97.5833 182.935 97.1293 183.357C96.7811 183.68 96.3965 184.113 96.1656 184.46C95.706 185.149 94.7747 185.335 94.0854 184.876C93.3961 184.416 93.2099 183.485 93.6694 182.795C94.0625 182.206 94.616 181.597 95.0879 181.158C95.1853 181.068 95.3126 180.898 95.4777 180.592C95.5883 180.388 95.6605 180.236 95.7431 180.062C95.8098 179.922 95.8833 179.767 95.9894 179.559C97.0238 177.527 98.1721 175.535 99.2915 173.593C99.3972 173.409 99.5026 173.226 99.6077 173.044C99.6566 172.927 99.7198 172.817 99.7951 172.718C99.9195 172.502 100.043 172.286 100.166 172.071C100.861 170.855 101.452 169.537 101.732 168.29C102.003 167.086 102.013 165.899 101.994 164.471C101.981 163.538 101.739 162.623 101.323 162.045C101.144 161.795 100.931 161.675 100.456 161.627C100.192 161.601 99.8885 161.604 99.5047 161.619C99.4191 161.623 99.3265 161.627 99.229 161.632C98.9279 161.646 98.5807 161.663 98.2526 161.663C98.2393 161.663 98.226 161.662 98.2128 161.662C97.8768 162.449 97.4916 163.2 97.1343 163.896C97.0805 164.001 97.0272 164.105 96.9749 164.208C96.4242 165.286 95.9558 166.25 95.6716 167.245C95.4871 167.891 95.2817 168.533 95.0846 169.149C95.042 169.282 94.9999 169.414 94.9584 169.545C94.7208 170.292 94.5005 171.006 94.3214 171.723C94.2048 172.189 93.9627 172.558 93.8559 172.72C93.8486 172.731 93.842 172.741 93.8361 172.75C93.7918 172.818 93.7663 172.86 93.7529 172.883C93.6788 173.208 93.5936 173.523 93.4819 173.858C93.2199 174.644 92.3704 175.069 91.5845 174.807C90.7986 174.545 90.3738 173.696 90.6358 172.91C90.7175 172.665 90.7803 172.431 90.8394 172.165C90.9462 171.685 91.1965 171.304 91.3019 171.144C91.3091 171.133 91.3157 171.123 91.3214 171.114C91.3822 171.021 91.4101 170.973 91.421 170.955C91.6225 170.155 91.8634 169.378 92.0995 168.635C92.1441 168.495 92.1883 168.357 92.2321 168.22C92.4285 167.606 92.6166 167.017 92.787 166.421C93.1604 165.114 93.7555 163.915 94.3033 162.843C94.3548 162.742 94.4059 162.642 94.4564 162.544C94.9629 161.555 95.4147 160.673 95.7403 159.754C95.8033 159.576 95.8636 159.409 95.921 159.249C96.231 158.389 96.4595 157.754 96.5943 156.945C96.6589 156.557 96.6517 156.195 96.642 155.703C96.638 155.5 96.6335 155.274 96.6335 155.014C96.6335 153.995 96.3625 152.782 95.8367 151.717C95.313 150.657 94.6077 149.881 93.8283 149.502C93.7909 149.503 93.673 149.516 93.4266 149.622C93.238 149.704 93.0329 149.814 92.7961 149.952C92.7359 149.987 92.6671 150.027 92.594 150.07C92.4208 150.172 92.2231 150.289 92.0569 150.379C91.7013 150.571 91.3463 150.867 90.9022 151.287C90.8143 151.37 90.7196 151.462 90.6194 151.558C90.3583 151.81 90.0599 152.098 89.7485 152.368C89.748 152.396 89.7475 152.423 89.747 152.449C89.7335 153.152 89.5546 153.822 89.3838 154.36C89.3028 154.615 89.2146 154.867 89.1363 155.09L89.1189 155.14C89.0331 155.385 88.9606 155.594 88.9015 155.789C88.712 156.411 88.522 157.006 88.3362 157.589C87.9451 158.814 87.5723 159.982 87.2607 161.228C86.9667 162.404 86.5443 163.615 86.037 164.72C86.0005 164.799 85.9737 164.885 85.9042 165.107L85.9001 165.12C85.8386 165.317 85.7399 165.631 85.5695 165.953C85.4478 166.183 85.2994 166.409 85.1985 166.563C85.1818 166.588 85.1665 166.612 85.1527 166.633C85.0326 166.818 84.9824 166.907 84.957 166.967C84.8324 167.262 84.5881 167.668 84.3988 167.965C84.2108 168.26 83.9457 168.653 83.7325 168.887C83.6344 168.995 83.5414 169.113 83.4095 169.279C83.3886 169.306 83.3667 169.333 83.3437 169.363C83.1921 169.554 82.9924 169.802 82.7569 170.038C82.1711 170.623 81.2213 170.623 80.6356 170.038C80.0498 169.452 80.0498 168.502 80.6356 167.916C80.738 167.814 80.8448 167.685 80.9935 167.498C81.011 167.476 81.0295 167.452 81.0489 167.428C81.1754 167.268 81.3392 167.06 81.5124 166.87C81.5068 166.876 81.5432 166.833 81.625 166.718C81.698 166.614 81.7835 166.486 81.8692 166.352C81.9549 166.217 82.0352 166.085 82.0989 165.974C82.1706 165.849 82.1958 165.794 82.1941 165.798C82.3326 165.471 82.515 165.186 82.6373 164.998C82.6618 164.96 82.6843 164.926 82.7051 164.894C82.8075 164.737 82.8673 164.646 82.9182 164.55C82.9462 164.497 82.9759 164.42 83.0365 164.226C83.0416 164.21 83.0471 164.192 83.053 164.173C83.1048 164.005 83.1888 163.733 83.311 163.467C83.7388 162.536 84.1002 161.501 84.3503 160.5C84.6854 159.16 85.1067 157.839 85.5128 156.566C85.6915 156.006 85.8673 155.455 86.0314 154.915C86.1113 154.653 86.2036 154.388 86.2874 154.149L86.3014 154.109C86.3829 153.876 86.4573 153.663 86.5245 153.452C86.67 152.993 86.7425 152.654 86.7476 152.392C86.7592 151.789 86.7505 151.123 86.6743 150.496C86.5959 149.851 86.4582 149.359 86.281 149.04C86.2121 148.916 86.0019 148.711 85.3776 148.627ZM89.3481 148.646C89.2362 148.282 89.0915 147.921 88.9034 147.583C88.176 146.273 86.8435 145.798 85.7789 145.654C84.693 145.508 83.5702 145.651 82.7342 145.877C81.565 146.193 80.4577 146.87 79.5621 147.695C78.6664 148.52 77.8962 149.572 77.4845 150.725C77.2505 151.38 76.9563 152.026 76.6304 152.742L76.5993 152.81C76.2711 153.531 75.9123 154.325 75.6306 155.154C75.2647 156.231 75.1597 157.315 75.1101 158.279C75.0916 158.639 75.0806 158.968 75.0701 159.28C75.0505 159.868 75.0329 160.394 74.9711 160.95C74.9273 161.345 74.8271 161.741 74.6869 162.212C74.6544 162.321 74.6181 162.439 74.5798 162.563C74.4653 162.936 74.3326 163.368 74.2296 163.794C74.1255 164.225 74.0518 164.379 74.001 164.454C73.9739 164.494 73.9113 164.582 73.6405 164.717C73.3323 164.871 73.0662 165.061 72.866 165.211C72.742 165.304 72.6625 165.366 72.5927 165.421C72.5136 165.482 72.447 165.535 72.3425 165.611C72.1358 165.761 72.0415 165.801 72.0186 165.809H69.666C69.0197 165.809 68.8614 165.751 68.8427 165.742C68.8268 165.73 68.7247 165.636 68.4659 165.18C68.4628 165.161 68.4593 165.137 68.4558 165.106C68.4402 164.967 68.4336 164.776 68.4396 164.552C68.4524 164.079 68.5151 163.669 68.5504 163.542C68.6938 163.026 68.7716 162.487 68.8281 162.02C68.8524 161.819 68.8721 161.64 68.8904 161.473C68.919 161.212 68.9445 160.98 68.98 160.736C69.0055 160.561 69.0327 160.38 69.0605 160.195C69.363 158.191 69.7436 155.668 68.8871 153.289C68.711 152.8 68.3682 152.068 67.5062 151.764C67.1705 151.646 66.8558 151.634 66.6774 151.631C66.6001 151.63 66.4393 151.632 66.3124 151.633C66.2418 151.634 66.1816 151.635 66.1523 151.635C65.1359 151.635 64.0812 152.064 63.4348 152.397C62.7146 152.767 62.0824 153.289 61.5999 153.687C61.5078 153.763 61.421 153.834 61.3402 153.899C61.041 154.14 60.7901 154.413 60.6194 154.599C60.6082 154.611 60.5973 154.623 60.5867 154.635C60.3892 154.849 60.2783 154.963 60.1692 155.048C60.148 155.064 60.1186 155.085 60.0412 155.139L60.0353 155.143C59.971 155.187 59.8696 155.257 59.7672 155.337C59.5677 155.493 59.2316 155.785 59.0166 156.252C59.0092 156.262 58.991 156.285 58.956 156.323C58.8825 156.402 58.7763 156.499 58.6278 156.622C58.5261 156.707 58.4317 156.781 58.3264 156.864C58.2689 156.91 58.2082 156.958 58.1412 157.011C57.9761 157.143 57.7693 157.312 57.5876 157.494C54.5525 160.529 52.4397 163.159 50.2589 166.975C49.5008 168.302 48.9892 170.308 48.9892 171.836C48.9892 172.643 48.9605 173.476 48.9306 174.344C48.9009 175.203 48.8701 176.097 48.8701 176.984C48.8701 178.018 48.9005 179.048 48.9302 180.051L48.9303 180.057C48.9602 181.069 48.9892 182.054 48.9892 183.032C48.9892 184.853 49.0332 186.701 49.3774 188.594C49.5163 189.358 49.9394 189.961 50.2473 190.349C50.4059 190.548 50.5716 190.736 50.7041 190.886L50.7144 190.898C50.8603 191.063 50.9605 191.177 51.0389 191.278C51.1204 191.383 51.203 191.496 51.2699 191.602C51.3029 191.654 51.327 191.696 51.3433 191.728C51.3512 191.743 51.3556 191.753 51.3576 191.757C51.3584 191.76 51.3593 191.763 51.3605 191.767C51.3638 191.779 51.3682 191.794 51.3737 191.815C51.385 191.857 51.3969 191.905 51.4132 191.97L51.4159 191.981C51.4472 192.105 51.492 192.284 51.5483 192.465C51.6038 192.643 51.6868 192.878 51.8123 193.111C51.9239 193.318 52.1343 193.647 52.5048 193.894C52.5126 193.905 52.5238 193.922 52.5381 193.946C52.5992 194.05 52.6688 194.207 52.7582 194.45C52.7796 194.508 52.8141 194.606 52.8533 194.717C52.9178 194.9 52.9952 195.12 53.0483 195.259C53.1556 195.54 53.3109 195.91 53.5439 196.247C53.9449 196.826 54.4771 197.31 54.9393 197.689C55.2136 197.914 55.5513 198.17 55.8347 198.385C55.9902 198.503 56.1293 198.609 56.2327 198.69C56.5018 198.901 56.7421 199.153 57.0701 199.496C57.1166 199.545 57.1649 199.595 57.2154 199.648C57.583 200.031 58.0648 200.522 58.6701 200.907C59.0183 201.128 59.3855 201.339 59.7197 201.532L59.7369 201.542C60.0871 201.743 60.4033 201.925 60.695 202.111C60.9381 202.266 61.1786 202.347 61.3299 202.392C61.4599 202.431 61.5984 202.463 61.6794 202.482C61.6875 202.484 61.6951 202.485 61.7021 202.487C62.0546 202.779 62.446 202.982 62.7625 203.122C63.1645 203.3 63.5685 203.43 63.8684 203.52C64.8615 203.818 65.8446 204.147 66.8503 204.483C67.0431 204.548 67.2368 204.612 67.4315 204.677C67.7379 204.779 68.0364 204.89 68.3571 205.008L68.4224 205.032C68.7594 205.157 69.123 205.291 69.4966 205.41C70.2526 205.651 71.1033 205.853 72.0747 205.853C72.6892 205.853 73.3933 205.852 74.2121 205.602C74.4269 205.537 74.6729 205.501 75.0257 205.468C75.0847 205.463 75.1497 205.457 75.2193 205.451C75.5173 205.425 75.9004 205.392 76.2679 205.327C79.8289 204.694 82.9678 203.375 85.9983 201.67C86.3008 201.5 86.5733 201.363 86.8745 201.212C87.0518 201.123 87.239 201.029 87.448 200.92C87.9699 200.649 88.5418 200.326 89.1087 199.886C89.5209 199.565 90.0066 199.3 90.6339 198.959L90.6414 198.955C91.2293 198.635 91.952 198.241 92.5984 197.712C92.7147 197.617 92.8661 197.519 93.0985 197.382C93.132 197.362 93.1685 197.34 93.2074 197.317C93.4032 197.202 93.6583 197.053 93.892 196.891C94.262 196.635 94.5662 196.322 94.7619 196.12C94.7773 196.104 94.792 196.089 94.806 196.075C95.0369 195.838 95.1493 195.735 95.2522 195.669C95.6773 195.395 95.9819 195.054 96.1917 194.796C96.2867 194.678 96.3773 194.559 96.4501 194.462L96.4728 194.432C96.5558 194.323 96.6177 194.242 96.6764 194.172C96.7472 194.088 96.8254 194.014 96.9655 193.883C97.0214 193.83 97.0871 193.768 97.1661 193.693C97.383 193.486 97.7297 193.147 97.98 192.709C98.1323 192.443 98.3238 192.188 98.5883 191.835L98.6138 191.801C98.8694 191.46 99.1953 191.023 99.4601 190.521C99.6346 190.191 99.8474 189.865 100.103 189.489C100.141 189.432 100.181 189.374 100.222 189.314C100.439 188.997 100.685 188.636 100.909 188.264C101.057 188.017 101.237 187.777 101.475 187.461C101.502 187.426 101.529 187.39 101.557 187.352C101.81 187.016 102.131 186.583 102.379 186.099C102.526 185.815 102.713 185.556 102.97 185.201C103.068 185.064 103.178 184.913 103.299 184.741C103.672 184.21 104.158 183.47 104.356 182.583C104.567 181.63 104.769 180.683 104.918 179.67C105.144 178.134 104.9 176.164 104.349 174.746C104.119 174.154 103.727 173.553 103.214 173.077C103.175 173.042 103.136 173.007 103.095 172.972C103.749 171.747 104.341 170.362 104.659 168.949C105.016 167.362 105.013 165.854 104.993 164.43C104.975 163.123 104.652 161.534 103.758 160.292C102.918 159.126 101.774 158.744 100.753 158.642C100.269 158.594 99.7898 158.605 99.3813 158.622C99.3496 158.623 99.3184 158.625 99.2877 158.626C99.3917 158.252 99.4834 157.859 99.5535 157.438C99.6683 156.749 99.6519 155.987 99.6397 155.422C99.6364 155.27 99.6335 155.132 99.6335 155.014C99.6335 153.521 99.2506 151.855 98.5265 150.389C97.8064 148.931 96.6759 147.529 95.0816 146.776C93.978 146.255 92.8962 146.584 92.2377 146.868C91.7862 147.063 91.2363 147.386 90.8944 147.587C90.7793 147.655 90.6877 147.709 90.6315 147.739C90.1465 148.001 89.7199 148.325 89.3481 148.646ZM68.4751 165.226C68.4751 165.226 68.4747 165.225 68.4741 165.223L68.4751 165.226ZM93.842 149.503L93.8398 149.502L93.842 149.503Z" fill="#1A2147"/>
<path fill-rule="evenodd" clip-rule="evenodd" d="M109.373 50.4014C109.318 50.8394 109.223 51.294 109.17 51.5482C109.156 51.6169 109.144 51.671 109.138 51.7062C109.013 52.3676 108.674 53.1414 108.251 53.6708C107.993 53.9924 107.819 54.4032 107.644 54.8168C107.496 55.1665 107.347 55.5181 107.146 55.8195C107.021 56.0064 106.891 56.1879 106.761 56.3691C106.529 56.6911 106.298 57.0122 106.102 57.3611C106.019 57.5093 105.936 57.6578 105.853 57.8063C105.649 58.1707 105.446 58.5351 105.236 58.8959C105.156 59.0339 105.038 59.1915 104.914 59.3585C104.657 59.7049 104.369 60.0912 104.322 60.4239C104.263 60.8378 104.036 61.2683 103.818 61.6829C103.696 61.9159 103.576 62.1439 103.49 62.3612C103.296 62.8491 103.044 63.2773 102.789 63.7109C102.643 63.96 102.495 64.2109 102.357 64.4758C101.887 65.3781 101.344 66.3369 100.761 67.1702C100.268 67.8741 99.8635 68.9322 99.6559 69.7624C99.5894 70.0285 99.4885 70.2871 99.3876 70.5459C99.2235 70.9666 99.0592 71.3878 99.042 71.8429C99.0267 72.2491 98.9786 72.6339 98.9318 73.0076C98.8074 74.0023 98.6929 74.9182 99.233 75.9493C99.6735 76.7903 100.4 77.995 101.348 78.3232C103.015 78.9004 105.236 78.2193 106.436 76.9725C106.849 76.5435 107.221 75.8324 107.523 75.2537C107.562 75.1783 107.6 75.1052 107.637 75.0353L107.883 75.2808C107.859 76.4956 107.547 77.6836 107.237 78.8642C107.095 79.4078 106.952 79.9499 106.839 80.4923C106.775 80.7964 106.692 81.1268 106.606 81.4689C106.394 82.3111 106.164 83.2245 106.164 83.9917C106.164 84.2254 106.098 84.4624 106.032 84.7C105.944 85.0196 105.855 85.3404 105.925 85.6561C106.007 86.0267 106.203 86.2831 106.399 86.5402C106.538 86.7226 106.678 86.9053 106.777 87.1295C106.93 87.4728 107.911 88.0278 108.278 88.1459C109.105 88.4116 110.242 88.3547 111.048 88.0504C111.901 87.7279 112.892 86.9704 113.531 86.3314C113.713 86.1494 113.902 85.9767 114.092 85.8038C114.371 85.5492 114.651 85.2941 114.909 85.0081C116.823 82.8812 118.559 80.3122 119.847 77.7365L120.161 77.4909C120.161 78.7796 119.986 79.9835 119.804 81.2446C119.782 81.3954 119.76 81.547 119.738 81.6997C119.665 82.2089 119.613 82.7238 119.56 83.2394C119.473 84.0945 119.386 84.9512 119.206 85.7856C118.997 86.7541 119.025 87.6209 119.486 88.5415C119.995 89.5599 120.923 89.7693 121.975 89.7693C123.955 89.7693 125.239 87.9396 126.311 86.4137C126.433 86.2404 126.552 86.0708 126.668 85.9084C127.921 84.1684 129.152 82.3199 130.291 80.5059C130.613 79.9924 130.975 79.5065 131.337 79.0205C131.674 78.5681 132.011 78.1156 132.317 77.6409C132.398 77.5149 132.483 77.3848 132.57 77.2517C132.964 76.6522 133.398 75.9926 133.64 75.3763L134.158 74.9123C134.315 76.5362 134.302 78.1708 134.288 79.8032C134.285 80.2581 134.281 80.7132 134.281 81.1675C134.281 81.2784 134.276 81.3968 134.271 81.519C134.247 82.0762 134.219 82.7132 134.656 83.0775C135.893 84.1082 138.576 84.043 139.806 83.1116C141.342 81.9494 142.471 80.4533 143.609 78.9445C144.184 78.1833 144.76 77.419 145.393 76.6927C146.737 75.1494 148.051 73.4751 148.886 71.5972C149.631 69.9204 150.426 68.0882 150.918 66.3174C151.078 65.7412 151.231 65.1606 151.384 64.5796C151.664 63.5174 151.944 62.4538 152.269 61.4129C152.809 59.6845 153.229 57.9606 153.466 56.2027C153.558 56.2502 153.651 56.2981 153.743 56.3463C153.796 56.7651 157.619 59.1475 158.178 59.4436C159.412 60.097 160.319 61.1217 161.225 62.1465C161.598 62.5682 161.971 62.99 162.367 63.3858C163.03 64.049 163.51 64.846 163.99 65.6431C164.451 66.4083 164.912 67.1736 165.535 67.8207C166.529 68.8535 167.43 69.9572 168.069 71.2349C168.886 72.8683 169.516 74.6593 170.15 76.4597C171.007 78.8943 171.87 81.3461 173.208 83.4484C175.315 86.7597 175.804 90.8769 176.271 94.7974C176.441 96.2311 176.608 97.6385 176.851 98.9706C177.628 103.247 178.452 108.08 178.452 112.416C178.452 114.506 176.517 114.009 174.795 113.567C174.385 113.462 173.987 113.36 173.63 113.296C171.687 112.951 169.341 112.733 167.365 112.733C166.238 112.733 165.152 112.812 164.062 112.89C162.965 112.97 161.863 113.05 160.713 113.05C158.197 113.05 155.702 113.287 153.204 113.524C150.701 113.762 148.196 114 145.666 114C144.579 114 143.506 114.081 142.442 114.16C141.397 114.239 140.362 114.317 139.33 114.317C139 114.317 139.56 118.291 140.072 121.926C140.425 124.435 140.756 126.782 140.756 127.551C140.756 128.704 140.997 129.845 141.238 130.98C141.454 132 141.668 133.015 141.706 134.027C141.785 136.154 141.758 138.29 141.732 140.425C141.719 141.491 141.706 142.556 141.706 143.619C141.706 144.571 141.783 145.558 141.861 146.558C141.942 147.581 142.023 148.616 142.023 149.638C142.023 150.441 132.65 150.432 130.132 150.43C130.015 150.43 129.912 150.43 129.827 150.43C126.59 150.43 123.414 150.631 120.241 150.832C118.949 150.913 117.658 150.995 116.364 151.063C116.134 151.075 115.895 151.084 115.649 151.093C114.641 151.131 113.537 151.172 112.633 151.45C112.353 151.536 112.045 151.65 111.728 151.767C111.031 152.023 110.29 152.296 109.711 152.33C109.306 152.354 107.013 152.489 107.001 152.858C106.897 155.967 107.397 159.309 107.88 162.538C108.057 163.72 108.232 164.887 108.374 166.022C108.787 169.331 109.078 173.068 109.078 176.405C109.078 178.306 109.315 180.196 109.552 182.088C109.79 183.984 110.028 185.881 110.028 187.792C110.028 188.152 110.005 188.54 109.981 188.937C109.93 189.793 109.877 190.693 110.046 191.452C110.237 192.314 110.873 192.287 111.586 192.256C111.722 192.25 111.86 192.244 111.999 192.244C112.898 192.244 113.785 192.324 114.671 192.403C115.555 192.482 116.438 192.561 117.332 192.561C119.252 192.561 121.155 192.641 123.053 192.72C124.938 192.799 126.817 192.878 128.7 192.878C129.932 192.878 131.125 193.038 132.312 193.197C133.489 193.354 134.662 193.512 135.863 193.512H139.031C139.479 193.512 139.912 193.433 140.349 193.355C140.792 193.275 141.238 193.195 141.706 193.195C143.026 193.195 143.012 193.677 142.982 194.714C142.976 194.924 142.969 195.156 142.973 195.412C143.009 198.009 143.387 200.597 143.765 203.184C144.161 205.897 144.557 208.608 144.557 211.322C144.557 212.653 144.793 213.977 145.03 215.305C145.268 216.639 145.507 217.977 145.507 219.329L145.813 238.148C144.118 238.192 142.425 238.343 140.732 238.494C137.805 238.754 134.879 239.015 131.944 238.721C130.549 238.582 129.193 238.69 127.828 238.799C127.226 238.847 126.622 238.895 126.012 238.922C125.226 238.957 124.421 239.171 123.63 239.38C123.283 239.472 122.94 239.563 122.602 239.638C121.508 239.882 120.109 239.909 118.883 239.933C118.581 239.939 118.29 239.945 118.017 239.954C116.514 240.001 115.016 240.099 113.518 240.196C111.415 240.333 109.31 240.469 107.186 240.469C106.198 240.469 105.222 240.405 104.246 240.34C103.271 240.276 102.296 240.212 101.311 240.212C100.079 240.212 98.8621 240.341 97.6452 240.47C96.5112 240.591 95.3776 240.712 94.2333 240.727C90.7913 240.774 87.3588 240.759 83.9226 240.743C82.203 240.735 80.4825 240.727 78.7594 240.727C78.2827 240.727 77.7784 240.699 77.2647 240.671C76.1074 240.606 74.9027 240.539 73.8594 240.785C72.8459 241.023 71.8044 241.008 70.7597 240.993C70.5035 240.989 70.2471 240.985 69.9909 240.985C68.9929 240.985 68.9882 240.964 68.9593 239.954C68.9487 239.582 68.8905 239.224 68.8321 238.864C68.7669 238.462 68.7014 238.058 68.7014 237.633C68.7014 236.071 68.4449 234.481 68.1877 232.887C67.9291 231.284 67.6698 229.677 67.6698 228.09V220.095C67.6698 215.543 67.6963 210.863 67.7232 206.106C67.7287 205.127 67.7343 204.145 67.7396 203.16C67.8338 203.191 67.9279 203.223 68.0221 203.254C68.3524 203.364 68.6726 203.483 68.9885 203.599C70.0298 203.985 71.0253 204.353 72.1909 204.353C72.8044 204.353 73.3075 204.345 73.8915 204.167C74.3354 204.032 74.7859 203.993 75.2379 203.953C75.5322 203.928 75.8275 203.902 76.1216 203.85C79.4706 203.254 82.4486 202.011 85.3791 200.362C85.7082 200.177 86.0362 200.012 86.3609 199.849C87.0285 199.514 87.6826 199.185 88.3039 198.701C88.814 198.305 89.3941 197.989 89.975 197.673C90.5993 197.333 91.2246 196.993 91.7647 196.551C92.0133 196.347 92.2971 196.181 92.5797 196.014C92.7758 195.899 92.9714 195.784 93.1544 195.658C93.3997 195.488 93.6095 195.273 93.8198 195.057C94.0493 194.821 94.2795 194.585 94.5572 194.407C94.888 194.194 95.1318 193.872 95.3712 193.556C95.4608 193.437 95.5498 193.32 95.6424 193.209C95.7757 193.05 95.9402 192.896 96.1068 192.74C96.3671 192.496 96.6329 192.247 96.7938 191.965C96.9939 191.615 97.2377 191.29 97.4819 190.965C97.7581 190.597 98.0349 190.228 98.2496 189.821C98.5014 189.344 98.8035 188.901 99.1058 188.459C99.3228 188.141 99.54 187.823 99.7385 187.492C99.9299 187.173 100.161 186.867 100.39 186.563C100.675 186.184 100.959 185.809 101.161 185.414C101.364 185.02 101.643 184.634 101.925 184.245C102.383 183.611 102.85 182.967 103.007 182.258C103.218 181.31 103.409 180.408 103.55 179.452C103.737 178.183 103.528 176.475 103.067 175.29C102.764 174.51 102.004 173.658 101.108 173.622L101.585 172.815C102.32 171.527 102.987 170.065 103.312 168.619C103.626 167.224 103.629 165.877 103.61 164.451C103.594 163.33 103.312 162.078 102.657 161.168C101.825 160.013 100.543 160.074 99.2439 160.135C98.9515 160.149 98.6579 160.163 98.3687 160.163L97.2703 160.255C97.3277 160.093 97.3847 159.935 97.4405 159.781C97.7522 158.917 98.0312 158.144 98.1901 157.191C98.2792 156.657 98.268 156.103 98.2569 155.555C98.2533 155.374 98.2496 155.193 98.2496 155.014C98.2496 152.501 96.942 149.259 94.5572 148.132C93.7154 147.735 92.7143 148.326 91.9129 148.799C91.7532 148.893 91.6014 148.983 91.4603 149.059C90.7906 149.42 90.2212 149.97 89.6552 150.516C89.3102 150.848 88.9662 151.18 88.6017 151.467L88.3653 151.652C88.3461 150.521 88.2139 149.221 87.7084 148.311C86.9121 146.878 84.623 146.952 83.2417 147.325C81.459 147.807 79.6413 149.471 79.0133 151.229C78.7575 151.945 78.4397 152.643 78.122 153.341C77.7768 154.099 77.4318 154.857 77.1671 155.636C76.772 156.8 76.7301 158.032 76.6885 159.257C76.6672 159.881 76.6461 160.504 76.5782 161.115C76.5033 161.789 76.3118 162.412 76.118 163.043C76.0069 163.405 75.8951 163.769 75.8039 164.146C75.5751 165.094 75.311 165.617 74.4276 166.059C74.1645 166.19 73.9124 166.386 73.6576 166.583C73.1938 166.943 72.7212 167.309 72.1578 167.309H69.7822C68.4089 167.309 67.9896 167.108 67.4106 166.149C67.3722 165.059 67.3301 163.973 67.284 162.891C67.3948 162.404 67.4537 161.869 67.5111 161.349C67.5424 161.065 67.5733 160.785 67.6118 160.52C67.6361 160.353 67.661 160.186 67.686 160.017L67.6861 160.016C67.9937 157.948 68.3132 155.8 67.5919 153.797C67.3803 153.209 67.1803 153.133 66.7413 153.13C66.7274 152.932 66.7134 152.733 66.6991 152.535V134.393C66.6991 133.196 66.5889 132.044 66.4786 130.891C66.3682 129.736 66.2578 128.582 66.2578 127.381V121.522C66.2578 119.037 66.3131 116.607 66.3684 114.181C66.4235 111.762 66.4785 109.347 66.4785 106.885C66.4785 106.063 66.5335 105.257 66.5886 104.45C66.6438 103.642 66.6991 102.834 66.6991 102.007C66.6991 100.9 66.778 99.5829 67.0914 98.5254C67.3173 97.7628 67.4573 96.9653 67.5974 96.1672C67.7086 95.5342 67.8198 94.9008 67.974 94.284C68.1163 93.7146 68.3726 93.1535 68.6284 92.5936C68.9227 91.9496 69.2162 91.3071 69.3346 90.6555C70.1004 86.4438 71.5689 82.0321 73.6495 78.2869C73.8168 77.9858 73.9836 77.6842 74.1504 77.3826C76.4099 73.2957 78.6755 69.198 82.4142 66.0409C83.0838 65.4755 83.6362 64.8712 84.1968 64.258C84.3925 64.044 84.5892 63.8288 84.7923 63.6138C85.0445 63.3467 85.3579 63.0793 85.6768 62.8072C86.2007 62.3601 86.7398 61.9001 87.0478 61.4073C87.2905 61.0189 87.7262 60.7429 88.1552 60.4711C88.4585 60.2789 88.7585 60.0889 88.9846 59.8628C89.5174 59.3299 90.1389 58.8971 90.7562 58.4672C91.0912 58.2339 91.425 58.0015 91.7427 57.7543C92.1936 57.4036 92.679 56.8761 93.1898 56.3209C94.1169 55.3133 95.1276 54.2147 96.1679 53.9175C96.5832 53.7988 97.5479 53.2406 97.8105 52.9123C97.9869 52.6919 98.3138 52.587 98.6434 52.4813C99.0294 52.3576 99.4191 52.2326 99.5757 51.9194C100.144 51.795 100.754 51.6704 101.403 51.5474C102.529 51.7918 103.933 51.5598 104.908 51.2424C105.226 51.1391 105.517 50.9962 105.795 50.8342C106.926 50.6779 108.122 50.532 109.373 50.4014Z" fill="#1A2147"/>
<path fill-rule="evenodd" clip-rule="evenodd" d="M127.462 60.7275C128.203 61.098 128.504 61.999 128.133 62.74L128.134 62.7384C128.134 62.7384 128.117 62.7853 128.073 63.0472C128.071 63.0602 128.068 63.0741 128.066 63.0888C128.03 63.3039 127.964 63.6993 127.79 64.099C127.786 64.1385 127.784 64.1728 127.781 64.2306C127.779 64.272 127.776 64.3255 127.771 64.4015C127.77 64.4092 127.769 64.4176 127.769 64.4265C127.752 64.6863 127.705 65.4212 127.173 66.0162C126.654 66.5965 126.321 67.2454 126.032 68.0233C125.884 68.4197 125.754 68.8319 125.61 69.2924L125.597 69.3345C125.459 69.7726 125.309 70.2527 125.132 70.7401C124.392 72.7731 123.335 74.7559 122.345 76.6124C121.94 77.3728 121.546 78.112 121.189 78.8248C119.843 81.517 118.031 84.1987 116.024 86.429C115.757 86.7259 115.48 86.9848 115.24 87.2047C115.188 87.2519 115.139 87.2968 115.092 87.34C114.905 87.5103 114.747 87.6543 114.592 87.8095C113.876 88.5252 112.71 89.4436 111.578 89.871C110.483 90.2847 108.997 90.3698 107.819 89.9914C107.462 89.8765 107.002 89.6332 106.645 89.4069C106.453 89.2851 106.24 89.1372 106.049 88.9727C105.902 88.8469 105.589 88.5659 105.407 88.1562C105.383 88.1022 105.362 88.0744 105.253 87.9305C105.217 87.8826 105.171 87.8218 105.112 87.7428C104.911 87.473 104.602 87.0325 104.461 86.3989C104.313 85.7331 104.474 85.1354 104.549 84.8533L104.55 84.851C104.569 84.7807 104.584 84.7268 104.597 84.6815C104.618 84.6043 104.633 84.5521 104.648 84.4865C104.66 84.4329 104.663 84.4073 104.664 84.4014C104.665 83.6835 104.813 82.9352 104.958 82.3104C105.034 81.9839 105.102 81.7142 105.165 81.4679C105.241 81.1647 105.309 80.897 105.371 80.6025C105.491 80.0302 105.653 79.4106 105.803 78.8374C105.884 78.5294 105.961 78.2348 106.026 77.9681C106.229 77.1372 106.369 76.3908 106.383 75.6694C106.399 74.8411 107.083 74.1826 107.912 74.1985C108.74 74.2145 109.399 74.8988 109.383 75.7271C109.362 76.7798 109.161 77.7791 108.94 78.6803C108.848 79.0569 108.759 79.3969 108.673 79.7213C108.539 80.2317 108.415 80.7031 108.307 81.2171C108.241 81.5323 108.14 81.9382 108.045 82.3178C107.983 82.563 107.925 82.7973 107.88 82.989C107.743 83.5788 107.664 84.0507 107.664 84.4091C107.664 84.7051 107.616 84.9662 107.571 85.1595C107.54 85.2931 107.498 85.4474 107.469 85.5517C107.46 85.5829 107.453 85.6097 107.447 85.6301C107.427 85.7059 107.415 85.7579 107.409 85.7909C107.425 85.8205 107.455 85.8653 107.516 85.9475C107.528 85.9642 107.545 85.9857 107.565 86.0113C107.673 86.1509 107.878 86.4154 108.048 86.7329C108.097 86.7703 108.165 86.8181 108.25 86.8723C108.364 86.9444 108.484 87.0121 108.589 87.0651C108.672 87.1073 108.721 87.1278 108.736 87.1342C108.742 87.1368 108.743 87.137 108.738 87.1353C109.214 87.2884 110.002 87.2597 110.518 87.0646C111.094 86.8471 111.908 86.2504 112.47 85.6882C112.679 85.479 112.901 85.2771 113.092 85.1032C113.134 85.0649 113.175 85.028 113.213 84.9926C113.442 84.7833 113.629 84.6055 113.794 84.4221C115.615 82.3987 117.276 79.9422 118.506 77.4831C118.94 76.6155 119.38 75.7906 119.81 74.9852C120.754 73.2158 121.648 71.5408 122.312 69.7149C122.466 69.2919 122.599 68.868 122.742 68.4129L122.747 68.395C122.889 67.9443 123.041 67.4588 123.22 66.9777C123.56 66.0629 124.016 65.1059 124.777 64.2001C124.778 64.1866 124.779 64.1678 124.781 64.1451C124.786 64.0459 124.796 63.8709 124.814 63.7247C124.838 63.5238 124.89 63.2189 125.04 62.9008" fill="#1A2147"/>
<path fill-rule="evenodd" clip-rule="evenodd" d="M138.041 67.5534C138.487 67.1094 138.621 66.4132 138.324 65.8197C137.953 65.0788 137.052 64.7784 136.311 65.1489C135.833 65.3883 135.582 65.7875 135.481 65.9624C135.357 66.1781 135.268 66.4008 135.209 66.5619C135.159 66.6977 135.113 66.841 135.078 66.9456C135.071 66.967 135.065 66.9868 135.059 67.0045C135.022 67.1175 135.008 67.154 135.008 67.154C135.008 67.154 135.009 67.1518 135.011 67.1479C134.775 67.6496 134.64 68.1677 134.542 68.5742C134.517 68.6768 134.494 68.7716 134.473 68.8603C134.401 69.1636 134.346 69.3957 134.27 69.6247C133.632 71.5399 132.975 73.385 132.244 75.2464C132.064 75.7038 131.742 76.1958 131.356 76.7849C131.259 76.9329 131.158 77.0871 131.055 77.2485C130.778 77.6788 130.468 78.0943 130.121 78.5602L130.097 78.5934C129.751 79.0578 129.368 79.5733 129.02 80.1269C127.895 81.9187 126.682 83.7404 125.451 85.4506C125.31 85.6462 125.175 85.8379 125.044 86.025C124.579 86.6863 124.155 87.2894 123.65 87.802C123.034 88.4279 122.509 88.688 121.975 88.688C121.524 88.688 121.264 88.6386 121.108 88.5732C121.005 88.5297 120.918 88.4717 120.827 88.2893C120.556 87.7465 120.516 87.2444 120.672 86.5213C120.834 85.7706 120.926 85.0218 120.999 84.3256C121.019 84.1407 121.037 83.9615 121.055 83.7864C121.107 83.2794 121.155 82.8069 121.223 82.3304C121.244 82.1802 121.266 82.0291 121.288 81.877C121.47 80.6274 121.661 79.3135 121.661 77.9095C121.661 77.0811 120.989 76.4095 120.161 76.4095C119.332 76.4095 118.661 77.0811 118.661 77.9095C118.661 79.0837 118.503 80.1783 118.318 81.4535C118.297 81.6018 118.275 81.7525 118.253 81.9062C118.175 82.4485 118.119 83.0069 118.066 83.5293C118.049 83.6933 118.033 83.8538 118.016 84.009C117.945 84.683 117.867 85.3004 117.74 85.8873C117.477 87.101 117.495 88.3327 118.144 89.6309C118.562 90.467 119.194 91.0229 119.945 91.3387C120.644 91.6326 121.374 91.688 121.975 91.688C123.646 91.688 124.895 90.8134 125.788 89.9068C126.486 89.1977 127.097 88.3251 127.574 87.6447C127.685 87.4856 127.79 87.337 127.886 87.2035C129.16 85.4338 130.408 83.5585 131.561 81.7222C131.836 81.2843 132.149 80.8597 132.502 80.3856C132.518 80.3648 132.534 80.3438 132.549 80.3228C132.879 79.8801 133.244 79.3902 133.578 78.8707C133.641 78.7737 133.712 78.665 133.79 78.547C134.182 77.9532 134.73 77.1226 135.036 76.3434C135.791 74.4222 136.465 72.5261 137.116 70.5734C137.239 70.2036 137.334 69.8024 137.409 69.4835C137.426 69.4112 137.442 69.3432 137.457 69.2807C137.551 68.8954 137.628 68.632 137.726 68.4253C137.772 68.3263 137.809 68.2304 137.835 68.1587C137.862 68.0839 137.887 68.0077 137.909 67.9428C137.919 67.9127 137.928 67.8846 137.937 67.8578C137.97 67.7561 137.996 67.6753 138.026 67.5941C138.032 67.5791 138.037 67.5656 138.041 67.5534Z" fill="#1A2147"/>
<path fill-rule="evenodd" clip-rule="evenodd" d="M126.279 30.9787C126.401 30.9788 126.522 30.9789 126.641 30.9789C127.29 30.9789 127.906 31.0319 128.467 31.0867C128.581 31.0978 128.691 31.1089 128.799 31.1197C129.243 31.1642 129.648 31.2047 130.063 31.2266C130.189 31.2332 130.312 31.2353 130.464 31.2379C130.489 31.2383 130.515 31.2388 130.541 31.2392C130.717 31.2424 130.931 31.2471 131.153 31.2656C131.609 31.3035 132.168 31.4036 132.738 31.7202L132.736 31.7189C132.736 31.7189 132.764 31.7324 132.833 31.7502C132.91 31.7703 133.012 31.789 133.14 31.8036C133.402 31.8336 133.689 31.8384 133.974 31.8384C134.382 31.8384 134.748 31.9112 135.004 31.9672C135.097 31.9876 135.174 32.0051 135.24 32.0202C135.39 32.0542 135.486 32.0762 135.598 32.0922C136.34 32.1982 136.985 32.4442 137.512 32.6664C137.686 32.7396 137.84 32.8072 137.984 32.8698C138.318 33.0156 138.592 33.135 138.903 33.2387C141.214 34.0091 143.449 35.0217 145.53 36.2107C146.145 36.562 146.942 37.1526 147.463 37.7082C147.537 37.7877 147.675 37.8939 147.962 38.0797C147.999 38.1035 148.04 38.1297 148.085 38.1581C148.32 38.3081 148.649 38.5181 148.928 38.7464C149.195 38.9649 149.515 39.1651 149.901 39.4068C150.014 39.4775 150.133 39.5517 150.257 39.631C150.704 39.9151 150.969 40.2661 151.112 40.4575C151.216 40.5977 151.251 40.6423 151.257 40.6514C151.741 41.0432 152.1 41.5386 152.359 41.9461C152.549 42.244 152.736 42.5791 152.882 42.8423C152.933 42.9335 152.979 43.016 153.019 43.0854C153.086 43.2024 153.162 43.3263 153.259 43.4825C153.279 43.5146 153.299 43.5481 153.321 43.5832C153.44 43.7759 153.579 44.0043 153.71 44.2461C153.958 44.7031 154.265 45.3581 154.318 46.0966C154.387 47.0673 154.542 48.0175 154.71 49.0455C154.739 49.2238 154.768 49.4045 154.798 49.5881C154.992 50.7975 155.181 52.1055 155.181 53.4751C155.181 56.5484 154.588 59.4386 153.701 62.2786C153.384 63.2913 153.121 64.2927 152.848 65.3295C152.694 65.9178 152.536 66.5176 152.364 67.1372C151.838 69.0295 150.998 70.9572 150.256 72.6247C149.327 74.7162 147.889 76.5291 146.524 78.0962C145.925 78.7845 145.403 79.4763 144.849 80.2106C144.56 80.594 144.263 80.9889 143.94 81.4011C143.042 82.5502 142.022 83.7342 140.712 84.7261C139.746 85.4569 138.406 85.744 137.24 85.7487C136.078 85.7533 134.693 85.4787 133.696 84.6482C132.972 84.0452 132.813 83.2294 132.773 82.723C132.753 82.4606 132.759 82.2119 132.766 82.0257C132.769 81.9515 132.771 81.8906 132.774 81.8379C132.778 81.7348 132.781 81.6632 132.781 81.5859C132.781 81.1032 132.785 80.63 132.789 80.164C132.801 78.5449 132.814 77.0131 132.665 75.4746C132.586 74.65 133.19 73.9171 134.014 73.8376C134.839 73.7581 135.572 74.3622 135.651 75.1868C135.816 76.8967 135.802 78.6354 135.788 80.2785C135.785 80.7221 135.781 81.1587 135.781 81.5859C135.781 81.7325 135.774 81.904 135.768 82.0335C135.766 82.0727 135.765 82.1081 135.764 82.1377C135.759 82.2699 135.758 82.3658 135.761 82.4418C136.051 82.6063 136.562 82.7513 137.228 82.7487C138.019 82.7455 138.636 82.5344 138.901 82.3339C139.901 81.5773 140.731 80.635 141.577 79.5533C141.831 79.2282 142.095 78.8781 142.369 78.5161C142.961 77.7318 143.596 76.8912 144.262 76.1259C145.585 74.6064 146.775 73.0707 147.515 71.4063C148.264 69.7204 149.015 67.9836 149.473 66.3343C149.622 65.8002 149.769 65.2398 149.92 64.6677C150.206 63.5816 150.503 62.4535 150.837 61.3838C151.666 58.7333 152.181 56.1554 152.181 53.4751C152.181 52.3631 152.028 51.2582 151.836 50.0638C151.809 49.8957 151.781 49.725 151.753 49.552C151.585 48.5294 151.405 47.4283 151.325 46.3104C151.319 46.2275 151.267 46.0335 151.074 45.6778C150.984 45.5134 150.882 45.3445 150.767 45.1571C150.75 45.1296 150.732 45.1013 150.714 45.0722C150.618 44.9163 150.509 44.7398 150.414 44.5739C150.342 44.4479 150.277 44.3315 150.216 44.2208C150.085 43.9858 149.969 43.7769 149.829 43.5578C149.63 43.2462 149.477 43.0697 149.367 42.9818C149.177 42.8292 149.033 42.671 148.928 42.5425C148.852 42.4488 148.773 42.3418 148.728 42.2795C148.718 42.2662 148.71 42.255 148.703 42.2463C148.662 42.1908 148.638 42.1623 148.627 42.1498C148.558 42.106 148.481 42.0581 148.399 42.0066C147.997 41.7559 147.46 41.421 147.029 41.0683C146.899 40.962 146.752 40.8679 146.524 40.7216C146.466 40.6843 146.402 40.6436 146.333 40.5984C146.045 40.4124 145.625 40.1344 145.274 39.76C144.998 39.4657 144.454 39.0508 144.042 38.8154C142.125 37.7203 140.07 36.7901 137.954 36.0848C137.505 35.9351 137.047 35.7353 136.673 35.572C136.555 35.5203 136.445 35.4723 136.346 35.4307C135.884 35.236 135.526 35.1123 135.174 35.0621C134.928 35.0269 134.662 34.9661 134.481 34.9247C134.436 34.9143 134.396 34.9052 134.363 34.898C134.15 34.8514 134.044 34.8384 133.974 34.8384C133.677 34.8384 133.243 34.835 132.799 34.7842C132.38 34.7362 131.801 34.6316 131.281 34.3427C131.219 34.308 131.124 34.2735 130.904 34.2552C130.789 34.2456 130.66 34.2418 130.488 34.2388C130.466 34.2384 130.444 34.238 130.42 34.2376C130.271 34.2351 130.089 34.2321 129.905 34.2224C129.412 34.1965 128.921 34.1471 128.471 34.1019C128.37 34.0918 128.272 34.0819 128.176 34.0725C127.631 34.0193 127.136 33.9789 126.641 33.9789C126.569 33.9789 126.498 33.9789 126.426 33.9789C123.94 33.9784 121.518 33.9779 119.403 34.5654C119.064 34.6595 118.732 34.7732 118.352 34.9032C118.28 34.9277 118.207 34.9528 118.132 34.9784C117.679 35.1325 117.162 35.3026 116.619 35.4234C116.367 35.4794 116.099 35.6055 115.626 35.8431C115.612 35.8503 115.597 35.8576 115.583 35.865C115.172 36.0713 114.584 36.3667 113.917 36.5148C113.303 36.6513 112.388 36.9985 111.865 37.2895C111.404 37.5456 110.868 37.6909 110.545 37.7786C110.499 37.7909 110.458 37.802 110.422 37.8122C110.025 37.9239 109.901 37.9867 109.847 38.0286C109.633 38.1954 109.405 38.3315 109.267 38.4134C109.25 38.4239 109.234 38.4335 109.219 38.4422C109.061 38.5374 109.01 38.5748 108.981 38.6007C108.962 38.6185 108.94 38.6386 108.915 38.6606C108.707 38.8498 108.341 39.183 107.949 39.4219C107.947 39.4233 107.945 39.4248 107.943 39.4265C107.914 39.4491 107.875 39.4821 107.826 39.5241C107.752 39.5885 107.684 39.65 107.624 39.7048C107.603 39.7242 107.582 39.7428 107.563 39.7604C107.376 39.9282 107.187 40.0966 106.997 40.2663C106.295 40.8913 105.576 41.5325 104.9 42.2184C104.069 43.062 103.405 43.8769 103.009 44.6511C102.883 45.0187 102.729 45.3848 102.599 45.6943C102.569 45.7678 102.539 45.8381 102.512 45.9044C102.341 46.3156 102.222 46.6348 102.156 46.9276C102.095 47.2002 102.052 47.4854 101.999 47.8341L101.997 47.8517C101.947 48.1787 101.889 48.5651 101.801 48.9551C101.756 49.1538 101.689 49.4069 101.633 49.6152C101.605 49.7189 101.581 49.8115 101.563 49.8809C101.501 50.1285 101.468 50.2986 101.458 50.4224C101.74 50.5312 102.178 50.5918 102.75 50.5577C103.349 50.522 103.964 50.3901 104.444 50.2338C104.811 50.1144 105.153 49.9002 105.663 49.5549C105.692 49.5352 105.722 49.5149 105.753 49.4941C106.204 49.1872 106.82 48.7687 107.547 48.5042C107.574 48.4945 107.601 48.4846 107.628 48.4747C108.03 48.3275 108.464 48.1684 109.172 48.1684C109.847 48.1684 110.335 48.5504 110.592 48.9541C110.802 49.2836 110.863 49.6211 110.888 49.8077C110.941 50.2049 110.906 50.6336 110.869 50.9439C110.805 51.4887 110.674 52.1079 110.627 52.3269C110.619 52.3648 110.614 52.3907 110.612 52.4022C110.445 53.2842 110.011 54.2891 109.422 55.0257C109.331 55.1396 109.235 55.3272 109.065 55.7265C109.051 55.7581 109.037 55.7918 109.022 55.8272C108.883 56.1584 108.678 56.6426 108.394 57.0694C108.253 57.2801 108.099 57.4955 107.964 57.6829C107.917 57.7482 107.873 57.81 107.832 57.8671C107.661 58.108 107.523 58.3121 107.41 58.5144C107.331 58.6546 107.25 58.7984 107.169 58.9443C106.963 59.313 106.749 59.6952 106.533 60.0677C106.426 60.2506 106.299 60.4255 106.207 60.5515C106.169 60.6021 106.136 60.6468 106.105 60.6883C106.045 60.7698 105.993 60.8391 105.938 60.9174C105.863 61.0228 105.818 61.0946 105.793 61.1425C105.697 61.6943 105.462 62.1831 105.298 62.5056C105.222 62.6565 105.158 62.7766 105.105 62.8783C105.006 63.0663 104.94 63.1913 104.884 63.3318C104.691 63.8194 104.458 64.242 104.25 64.6031C104.184 64.7172 104.122 64.8212 104.065 64.9196C103.926 65.1552 103.807 65.3581 103.687 65.5868C103.204 66.5152 102.627 67.5386 101.99 68.4483C101.64 68.9483 101.294 69.8147 101.111 70.544C101.018 70.9149 100.866 71.3029 100.763 71.5668C100.738 71.6308 100.716 71.6875 100.698 71.7349C100.581 72.0448 100.545 72.2025 100.541 72.3173C100.524 72.7597 100.475 73.17 100.432 73.5156C100.429 73.5453 100.425 73.5743 100.421 73.6028C100.381 73.9249 100.35 74.1777 100.335 74.4259C100.307 74.916 100.355 75.2766 100.562 75.6712C100.767 76.0629 101.007 76.4766 101.275 76.8138C101.561 77.1745 101.761 77.2969 101.838 77.3235C102.318 77.4894 102.969 77.4981 103.665 77.3045C104.36 77.1115 104.968 76.7529 105.356 76.3499C105.462 76.24 105.609 76.0333 105.794 75.7151C105.931 75.4791 106.054 75.2431 106.182 74.9977C106.224 74.9172 106.267 74.8358 106.31 74.753C106.707 74.0022 107.017 73.2385 107.36 72.3962C107.477 72.1089 107.598 71.8124 107.727 71.5041C108.154 70.4838 108.738 69.4643 109.355 68.5833C109.71 68.0759 109.899 67.5876 110.157 66.9216C110.269 66.6315 110.395 66.3076 110.553 65.9337C110.732 65.508 110.992 65.1544 111.152 64.9369L111.182 64.8954C111.356 64.6593 111.436 64.5502 111.494 64.4406C111.568 64.2997 111.647 64.1456 111.73 63.9825C112.039 63.3767 112.411 62.6475 112.85 62.0139C113.434 61.1703 113.981 60.0277 114.318 59.0168C114.58 58.2309 115.429 57.8061 116.215 58.0681C117.001 58.3301 117.426 59.1796 117.164 59.9655C116.751 61.2034 116.086 62.6099 115.316 63.7215C115.003 64.1742 114.756 64.6576 114.463 65.2286C114.365 65.421 114.261 65.6234 114.149 65.8378C113.978 66.162 113.757 66.4597 113.616 66.6495C113.599 66.6726 113.583 66.6942 113.569 66.7139C113.4 66.9437 113.342 67.0393 113.316 67.1006C113.239 67.2847 113.157 67.4953 113.069 67.7235C112.771 68.4973 112.394 69.4731 111.813 70.3037C111.3 71.0365 110.826 71.8689 110.494 72.6626C110.392 72.907 110.288 73.1629 110.181 73.4261C109.825 74.301 109.436 75.258 108.964 76.1532C108.933 76.2117 108.899 76.2767 108.862 76.3465C108.73 76.6012 108.563 76.9201 108.389 77.2202C108.17 77.5976 107.878 78.0559 107.517 78.4308C106.704 79.2746 105.602 79.8799 104.469 80.1949C103.338 80.5092 102.045 80.5698 100.857 80.1585C99.9858 79.8569 99.349 79.2129 98.9252 78.679C98.4826 78.1215 98.1396 77.5124 97.9043 77.0632C97.3679 76.0392 97.2922 75.0904 97.3403 74.2538C97.3607 73.8993 97.405 73.5457 97.443 73.2425C97.4472 73.2095 97.4512 73.1771 97.4552 73.1453C97.4977 72.8032 97.5317 72.5055 97.5431 72.2041C97.5665 71.584 97.75 71.0509 97.8898 70.6791C97.9389 70.5486 97.981 70.4406 98.0175 70.3468C98.1038 70.1252 98.1589 69.9839 98.2007 69.8164C98.4335 68.8854 98.8967 67.6357 99.5322 66.7279C100.062 65.9709 100.57 65.0766 101.027 64.2004C101.185 63.8981 101.362 63.5964 101.513 63.3391C101.563 63.2545 101.61 63.1746 101.653 63.1012C101.839 62.7786 101.984 62.5069 102.095 62.2263C102.214 61.926 102.397 61.5788 102.527 61.3326C102.564 61.2611 102.598 61.1981 102.623 61.1472C102.784 60.8308 102.828 60.6882 102.837 60.6296C102.929 59.9823 103.311 59.4365 103.488 59.1863C103.626 58.9905 103.716 58.8715 103.782 58.7851C103.853 58.6903 103.896 58.6347 103.939 58.5598C104.142 58.2107 104.336 57.8638 104.537 57.5044C104.621 57.3533 104.707 57.2001 104.795 57.0436C104.988 56.7005 105.199 56.3933 105.386 56.1295C105.447 56.0436 105.504 55.9649 105.558 55.8904C105.681 55.7187 105.788 55.5691 105.898 55.4053C106.018 55.2253 106.114 54.9989 106.288 54.5891L106.306 54.5487C106.46 54.1864 106.697 53.6302 107.08 53.1516C107.337 52.8294 107.581 52.2867 107.664 51.8459C107.665 51.838 107.667 51.8299 107.668 51.8215C107.569 51.8877 107.462 51.9601 107.345 52.0391L107.337 52.0442C106.854 52.3715 106.191 52.8204 105.372 53.0866C104.68 53.3118 103.813 53.4997 102.928 53.5524C102.066 53.6038 101.042 53.5357 100.135 53.1187C99.5527 52.8513 99.0722 52.4395 98.7729 51.8693C98.4857 51.3223 98.4372 50.7656 98.4584 50.322C98.4793 49.8856 98.5731 49.4687 98.6545 49.1465C98.697 48.978 98.7322 48.848 98.7634 48.7325C98.8048 48.5797 98.8393 48.4522 98.8749 48.2943C98.9366 48.0214 98.9803 47.7359 99.0325 47.3881L99.0362 47.3634C99.085 47.0388 99.1426 46.6557 99.2293 46.2699C99.3559 45.7064 99.5632 45.1834 99.7399 44.7565C99.7792 44.6617 99.8167 44.5723 99.8524 44.4869C99.9915 44.1547 100.104 43.8855 100.195 43.6083L100.227 43.51L100.272 43.417C100.874 42.1848 101.821 41.0688 102.763 40.1132C103.514 39.3501 104.33 38.6236 105.039 37.9924C105.219 37.832 105.392 37.6777 105.556 37.5305C105.565 37.5225 105.577 37.5113 105.592 37.4976C105.653 37.4427 105.758 37.3474 105.859 37.2591L105.861 37.2573C105.955 37.1763 106.175 36.9853 106.385 36.8614C106.513 36.7862 106.672 36.6435 106.972 36.3729L106.975 36.3708C107.235 36.136 107.505 35.9726 107.671 35.8723C107.686 35.8634 107.7 35.855 107.713 35.847C107.88 35.7469 107.944 35.7081 108.005 35.6606C108.572 35.2197 109.223 35.0331 109.61 34.9242C109.66 34.91 109.707 34.8969 109.751 34.8845C110.135 34.7769 110.286 34.7347 110.408 34.667C111.189 34.233 112.376 33.7842 113.267 33.5863C113.535 33.5266 113.814 33.3958 114.28 33.1619C114.299 33.1524 114.318 33.1427 114.338 33.1328C114.741 32.93 115.32 32.6388 115.968 32.4949C116.338 32.4126 116.72 32.2897 117.165 32.1383C117.229 32.1166 117.295 32.0941 117.362 32.0711C117.74 31.9415 118.168 31.7947 118.6 31.6748C121.121 30.9746 123.915 30.9768 126.279 30.9787ZM101.456 50.5462L101.456 50.545L101.456 50.5462Z" fill="#1A2147"/>
<path fill-rule="evenodd" clip-rule="evenodd" d="M87.7625 23.8823C82.7743 18.9066 76.8382 16.0376 70.6942 17.5207C70.1627 17.6489 69.628 17.6278 69.318 17.6156C69.2934 17.6146 69.2702 17.6137 69.2485 17.6129C68.8623 17.599 68.7563 17.611 68.7043 17.6264C67.8136 17.8903 66.7226 17.9753 65.9269 17.9753C65.8468 17.9753 65.7443 17.9946 65.4177 18.0838C65.4046 18.0874 65.391 18.0912 65.3768 18.095C65.1029 18.1703 64.6366 18.2984 64.1141 18.2984C64.0249 18.2984 63.7994 18.3216 63.5078 18.3806C63.2161 18.4397 62.9999 18.5059 62.9194 18.5398C62.3533 18.7781 61.7695 18.9257 61.3014 19.0439L61.2884 19.0472C60.7904 19.1728 60.4086 19.2692 60.057 19.4068C59.8656 19.4817 59.6773 19.5642 59.4569 19.6607C59.3105 19.7248 59.15 19.7952 58.9649 19.8736C58.5648 20.0432 58.0583 20.2461 57.5743 20.3537C57.0285 20.475 56.4044 20.8165 55.6347 21.3502C55.41 21.5059 55.1509 21.6956 54.8764 21.8963C54.3504 22.2812 53.7683 22.707 53.2658 23.0141C51.0596 24.3624 49.328 26.5424 47.755 28.902C46.3711 30.9778 45.2332 34.1363 45.097 36.5888C45.0647 37.169 44.995 37.7312 44.9327 38.2335C44.9218 38.3213 44.9112 38.4074 44.901 38.4913C44.8299 39.0767 44.7762 39.5978 44.7762 40.1312C44.7762 40.8598 44.6837 41.5724 44.6056 42.1743L44.6022 42.2007C44.5189 42.843 44.4531 43.3623 44.4531 43.8554C44.4531 46.0148 45.0517 48.1546 45.7236 50.506C46.1093 51.856 46.529 53.1903 47.0185 54.4629C47.2029 54.9423 47.3611 55.4765 47.4952 55.929C47.5384 56.0751 47.5792 56.2126 47.6175 56.3371C47.6453 56.4276 47.7047 56.546 47.867 56.8195C47.8779 56.8378 47.8895 56.8572 47.9017 56.8777C48.0382 57.1063 48.2545 57.4686 48.4012 57.872C48.444 57.9897 48.5516 58.1671 48.8083 58.5144C48.8345 58.5499 48.8633 58.5883 48.894 58.6295C49.1032 58.9091 49.4043 59.3117 49.6177 59.7267C49.7246 59.9347 49.8327 60.0657 49.9875 60.2163C50.0692 60.2959 50.1548 60.3723 50.2744 60.4791C50.2892 60.4924 50.3045 60.506 50.3204 60.5203C50.4564 60.6418 50.6215 60.7907 50.7982 60.9674C51.4749 61.6441 52.1625 62.2334 52.9098 62.8738C53.1979 63.1207 53.4948 63.3753 53.8035 63.6453C54.4799 64.2372 55.2737 64.7519 56.1737 65.312C56.2737 65.3743 56.3754 65.4373 56.4783 65.501C57.2684 65.9906 58.1355 66.5279 58.9289 67.141C59.3747 67.4855 59.8697 67.7393 60.4547 67.9828C60.7429 68.1028 61.038 68.2143 61.3631 68.3373L61.3895 68.3472C61.7171 68.4711 62.0738 68.6063 62.4347 68.7583C63.4761 69.1967 64.0336 69.4125 64.8411 69.4125C65.389 69.4125 65.9513 69.3759 66.5668 69.335L66.6014 69.3327C67.1895 69.2936 67.8311 69.2509 68.4666 69.2509H78.0061C78.8345 69.2509 79.5061 69.9225 79.5061 70.7509C79.5061 71.5794 78.8345 72.2509 78.0061 72.2509H68.4666C67.9359 72.2509 67.3834 72.2874 66.7658 72.3284L66.7551 72.3291C66.1584 72.3688 65.5011 72.4125 64.8411 72.4125C63.3821 72.4125 62.3263 71.9678 61.314 71.5415L61.2706 71.5232C60.968 71.3958 60.6607 71.2789 60.3286 71.1534L60.2855 71.1371C59.9734 71.0191 59.6368 70.8919 59.3019 70.7525C58.5939 70.4578 57.832 70.0847 57.0946 69.5149C56.4322 69.003 55.7043 68.5515 54.898 68.0512C54.7961 67.988 54.693 67.9241 54.5886 67.8591C53.6904 67.3001 52.7075 66.6726 51.8279 65.903C51.5709 65.6781 51.305 65.4503 51.0343 65.2182C50.2581 64.5531 49.4417 63.8535 48.6769 63.0887C48.6115 63.0233 48.5236 62.9456 48.4205 62.8544C48.0163 62.4969 47.3789 61.9331 46.9498 61.0988C46.8595 60.9231 46.7262 60.7433 46.499 60.437C46.4666 60.3932 46.4322 60.3469 46.3958 60.2977C46.1568 59.9742 45.7922 59.4759 45.5818 58.8972C45.5383 58.7775 45.4645 58.6495 45.287 58.3504L45.2796 58.3379C45.132 58.0893 44.8949 57.6897 44.7501 57.2193C44.6912 57.0277 44.6381 56.8485 44.5876 56.6784C44.4642 56.2618 44.3567 55.8993 44.2184 55.5398C43.685 54.153 43.2378 52.7258 42.839 51.3302L42.8205 51.2654C42.1735 49.0012 41.4531 46.4801 41.4531 43.8554C41.4531 43.1546 41.5435 42.4588 41.6203 41.867L41.6271 41.8147C41.7099 41.1769 41.7762 40.645 41.7762 40.1312C41.7762 39.4052 41.8496 38.7326 41.9229 38.1296C41.9346 38.0327 41.9463 37.9381 41.9578 37.8455C42.0201 37.3412 42.0755 36.8926 42.1016 36.4224C42.2709 33.3748 43.6132 29.7063 45.2588 27.2379C46.8795 24.8068 48.9097 22.1604 51.7015 20.4543C52.1177 20.1999 52.4942 19.9226 52.9285 19.6027C53.2238 19.3852 53.5458 19.1479 53.9254 18.8848C54.7489 18.3138 55.7755 17.6802 56.9235 17.4251C57.1156 17.3824 57.4014 17.278 57.794 17.1116C57.9044 17.0648 58.0323 17.0089 58.167 16.9501C58.4332 16.8339 58.726 16.7061 58.9638 16.6131C59.4962 16.4047 60.0437 16.2669 60.4868 16.1554C60.514 16.1485 60.5409 16.1418 60.5673 16.1351C61.0598 16.0108 61.4294 15.9121 61.7552 15.7749C62.1018 15.629 62.5397 15.5158 62.9125 15.4403C63.2854 15.3648 63.7347 15.2984 64.1141 15.2984C64.1975 15.2984 64.3027 15.2785 64.627 15.1899C64.6407 15.1862 64.6551 15.1822 64.67 15.1781C64.9424 15.1032 65.4075 14.9753 65.9269 14.9753C66.5795 14.9753 67.3494 14.8989 67.852 14.75C68.4244 14.5804 68.9946 14.6015 69.3195 14.6135C69.3322 14.614 69.3446 14.6144 69.3565 14.6149C69.7655 14.6296 69.8967 14.627 69.9902 14.6044C77.5852 12.7711 84.5402 16.4307 89.8812 21.7584C95.2356 27.0994 99.2423 34.3621 101.054 40.4768C101.171 40.8731 101.287 41.3987 101.392 41.8704C101.445 42.1148 101.496 42.3447 101.542 42.5348C101.71 43.2259 101.869 43.6702 102.031 43.9118C102.49 44.6011 102.304 45.5324 101.615 45.992C100.925 46.4515 99.9939 46.2652 99.5344 45.5759C99.0529 44.8537 98.7976 43.946 98.6268 43.242C98.5425 42.8944 98.4782 42.5983 98.4204 42.3326C98.3389 41.9573 98.2705 41.6426 98.1777 41.3291C96.498 35.6604 92.7374 28.8448 87.7625 23.8823Z" fill="#1A2147"/>
<path fill-rule="evenodd" clip-rule="evenodd" d="M61.4604 39.0056C62.162 38.9395 63.2466 38.8375 64.1926 39.0537C64.2669 39.0707 64.3346 39.0761 64.5062 39.0899C64.5599 39.0942 64.6237 39.0994 64.7011 39.1059C64.9592 39.1278 65.3911 39.1693 65.8374 39.3478C65.8557 39.3551 65.8742 39.3625 65.8928 39.3699C66.249 39.5121 66.6696 39.68 67.1392 39.9818C67.1712 40.0024 67.2096 40.0263 67.2533 40.0536C67.5069 40.2115 67.937 40.4795 68.2913 40.824C68.294 40.826 68.297 40.8282 68.3005 40.8306C68.3298 40.8515 68.3513 40.8661 68.3829 40.8874C68.4069 40.9036 68.4367 40.9238 68.4801 40.9536C68.5557 41.0055 68.6724 41.0871 68.7885 41.1849C68.8738 41.2567 69.0086 41.3779 69.1367 41.548C69.144 41.5533 69.1524 41.5595 69.1621 41.5665L69.1709 41.573C69.2265 41.6136 69.3406 41.6967 69.4531 41.7976C69.5786 41.9101 69.7434 42.0797 69.8828 42.3167C69.9783 42.479 70.1591 42.7316 70.3228 42.9421C70.5866 43.2813 70.7478 43.646 70.8471 43.884C70.896 44.001 70.9307 44.0878 70.9589 44.1582C71.004 44.2711 71.0323 44.3418 71.075 44.4271C71.34 44.9571 71.6611 45.722 71.7165 46.5531C71.8299 48.2543 71.5815 49.77 70.7756 51.3817C70.739 51.4549 70.718 51.5075 70.6823 51.5968C70.658 51.6577 70.6268 51.7357 70.5792 51.849C70.4866 52.0694 70.3387 52.3972 70.09 52.717C69.9905 52.8449 69.915 52.938 69.8527 53.0148C69.7501 53.1413 69.6833 53.2236 69.6042 53.3446C69.409 53.6431 69.1963 53.9601 68.9737 54.2672C68.9693 54.2751 68.9606 54.2908 68.9471 54.3168C68.9434 54.324 68.9356 54.3392 68.9253 54.3594C68.8945 54.4201 68.8408 54.5256 68.8041 54.5936C68.743 54.7068 68.6489 54.8717 68.5208 55.0373C68.3948 55.2001 68.1885 55.4263 67.8798 55.5979C67.7694 55.6592 67.6755 55.7183 67.5479 55.7987C67.5009 55.8283 67.4493 55.8608 67.3907 55.8973C67.1936 56.02 66.9411 56.1718 66.6401 56.3073C65.8184 56.677 64.9141 56.9282 64.1892 57.1296L64.1767 57.1331C63.6587 57.277 63.1624 57.333 62.7576 57.3713C62.6589 57.3806 62.5673 57.3888 62.4809 57.3966C62.182 57.4234 61.9458 57.4446 61.6985 57.4867C59.0132 57.9437 55.4897 57.1842 53.4632 54.9325C53.0704 54.4961 52.7498 53.8347 52.6096 53.3985C52.4869 53.0167 52.4125 52.6364 52.3558 52.3387C52.3501 52.3089 52.3446 52.28 52.3393 52.2518C52.2859 51.9711 52.2465 51.7637 52.1922 51.566C52.1596 51.4476 52.1121 51.3166 52.0381 51.1227C52.0315 51.1055 52.0246 51.0876 52.0175 51.069C51.9532 50.9011 51.8684 50.6799 51.7982 50.4522C51.7969 50.4501 51.7841 50.424 51.7149 50.2836C51.6398 50.1312 51.5018 49.8445 51.437 49.4699C51.4235 49.392 51.4109 49.318 51.3989 49.247C51.3581 49.0068 51.3232 48.8017 51.2788 48.5972C51.1291 47.9088 51.1308 47.2377 51.1321 46.727C51.1322 46.6816 51.1323 46.6375 51.1323 46.5947C51.1323 45.8705 51.1966 44.9661 51.4312 44.1453C51.437 44.1248 51.4445 44.0974 51.4536 44.0643C51.4965 43.9075 51.5737 43.6257 51.6685 43.375C51.7785 43.0847 52.0005 42.5766 52.4575 42.1899C52.5724 42.0927 52.6948 41.9872 52.8226 41.8772C53.1524 41.593 53.5178 41.2781 53.8818 40.9951C54.2571 40.7032 54.6557 40.5027 54.9715 40.3571C55.1502 40.2746 55.2774 40.2195 55.3877 40.1717C55.5214 40.1137 55.6305 40.0665 55.7768 39.9942C55.8516 39.9573 55.9385 39.9125 56.0351 39.8627C56.4639 39.6416 57.0845 39.3216 57.6996 39.1475C58.0348 39.0527 58.3557 39.021 58.5855 39.0039C58.6465 38.9994 58.6984 38.9959 58.7439 38.993C58.8484 38.9699 58.9571 38.9578 59.0686 38.9578C59.1101 38.9578 59.1505 38.959 59.1895 38.9613C59.4576 38.9426 59.7151 38.996 59.9425 39.1054C60.3275 39.0976 60.7099 39.0687 61.1526 39.0332C61.2437 39.026 61.3471 39.0162 61.4604 39.0056ZM59.0024 41.9834C59.1533 42.033 59.4232 42.1075 59.7421 42.1075C60.3322 42.1075 60.8796 42.0647 61.3918 42.0237C61.5489 42.0111 61.6971 41.9983 61.8375 41.9862C62.5692 41.9232 63.0876 41.8785 63.5241 41.9783C63.8357 42.0495 64.1731 42.0746 64.3637 42.0887C64.3963 42.0911 64.4247 42.0933 64.4478 42.0952C64.5537 42.1042 64.6196 42.1121 64.669 42.121C64.7061 42.1276 64.722 42.1329 64.7241 42.1336C65.1197 42.2918 65.2994 42.3655 65.5169 42.5054C65.6059 42.5626 65.6823 42.6111 65.7486 42.6532C65.997 42.811 66.1041 42.879 66.2029 42.9778C66.3373 43.1122 66.4769 43.2149 66.5587 43.2732C66.6155 43.3137 66.6924 43.3659 66.7423 43.3997C66.7591 43.4111 66.7728 43.4204 66.7817 43.4265C66.7892 43.4317 66.7961 43.4364 66.8023 43.4408C66.9107 43.5816 67.0217 43.6895 67.1114 43.7683C67.2184 43.8623 67.3279 43.942 67.3812 43.9808C67.3832 43.9823 67.3852 43.9838 67.3871 43.9851C67.5694 44.2737 67.7925 44.5753 67.9547 44.7839C67.9547 44.7839 67.9664 44.7997 67.9888 44.8424C68.013 44.8887 68.0414 44.9504 68.0789 45.0401C68.1044 45.1014 68.1221 45.1455 68.1427 45.1969C68.1599 45.2399 68.1792 45.2879 68.2068 45.3553C68.2554 45.4738 68.317 45.6194 68.3917 45.7687C68.5965 46.1784 68.7074 46.5173 68.7231 46.7527C68.8048 47.9775 68.6358 48.953 68.0923 50.0401C68.0228 50.1792 67.9666 50.3116 67.9231 50.4174C67.8986 50.4772 67.8819 50.5188 67.8673 50.5551C67.8496 50.5991 67.8351 50.6353 67.8135 50.6866C67.7831 50.7591 67.7616 50.8046 67.7445 50.8368C67.7282 50.8674 67.7205 50.877 67.7219 50.8752C67.6963 50.9081 67.661 50.9517 67.6193 51.0035C67.4769 51.1797 67.2591 51.4493 67.0933 51.7028C66.9062 51.989 66.719 52.2669 66.5328 52.5229C66.4176 52.6813 66.3322 52.8428 66.285 52.9337C66.2596 52.9826 66.2323 53.0366 66.2143 53.0721C66.2079 53.0847 66.202 53.0962 66.1965 53.1069C66.0883 53.1721 65.9873 53.2359 65.9028 53.2892C65.8668 53.3118 65.8339 53.3326 65.8047 53.3508C65.6396 53.4536 65.5233 53.5201 65.409 53.5715C64.8256 53.8341 64.1382 54.0302 63.3737 54.2425C63.1238 54.312 62.8469 54.3494 62.4751 54.3846C62.4122 54.3906 62.3444 54.3966 62.2726 54.4029C61.9598 54.4307 61.572 54.4651 61.1951 54.5292C59.2461 54.861 56.8671 54.2249 55.6976 52.9306C55.6954 52.9277 55.6858 52.9153 55.6696 52.8907C55.6457 52.8545 55.6171 52.8066 55.587 52.7503C55.5221 52.6291 55.4799 52.5247 55.4657 52.4805C55.4056 52.2937 55.3601 52.0781 55.3028 51.7772C55.2972 51.7478 55.2914 51.7172 55.2854 51.6857C55.2361 51.4243 55.1736 51.0933 55.0848 50.7705C55.0095 50.4967 54.9134 50.2431 54.8407 50.0527C54.8352 50.0381 54.8297 50.0238 54.8244 50.0099C54.7529 49.8227 54.7039 49.6944 54.6647 49.5671C54.6162 49.4096 54.5597 49.2772 54.5131 49.1769C54.4823 49.1104 54.4418 49.0294 54.4194 48.9846C54.4135 48.9728 54.4089 48.9636 54.406 48.9577C54.3967 48.9389 54.3901 48.925 54.3856 48.9151C54.3784 48.8728 54.3709 48.8285 54.3631 48.7828C54.3208 48.5333 54.2709 48.2388 54.2103 47.96C54.1322 47.6006 54.1322 47.238 54.1323 46.6419C54.1323 46.6263 54.1323 46.6106 54.1323 46.5947C54.1323 46.0084 54.1887 45.4141 54.3157 44.9695C54.3297 44.9205 54.3439 44.869 54.3563 44.8239C54.3579 44.8181 54.3595 44.8125 54.361 44.8069C54.3753 44.7551 54.3883 44.7083 54.4016 44.6623C54.4285 44.569 54.4519 44.4963 54.4742 44.4373C54.4795 44.4232 54.4843 44.4111 54.4886 44.4009C54.6133 44.2947 54.7308 44.1935 54.844 44.0959C55.1483 43.8336 55.4218 43.5979 55.7236 43.3631C55.8262 43.2833 55.9782 43.1964 56.2278 43.0813C56.2841 43.0554 56.3697 43.0177 56.4688 42.974C56.669 42.8858 56.9244 42.7734 57.1049 42.6842C57.2777 42.5989 57.4288 42.5217 57.5648 42.4523C57.9527 42.2542 58.2182 42.1186 58.5166 42.0341C58.5555 42.0231 58.6349 42.0085 58.8079 41.9957C58.8381 41.9934 58.8856 41.9905 58.943 41.987C58.9619 41.9859 58.9817 41.9847 59.0024 41.9834Z" fill="#1A2147"/>
<path d="M62.672 53.8167C61.1258 55.8383 57.9356 55.9959 55.5464 54.1687C53.1571 52.3414 52.4737 49.2213 54.0198 47.1996C55.5659 45.1779 58.7562 45.0203 61.1454 46.8476C63.5347 48.6749 64.2181 51.795 62.672 53.8167Z" fill="#1A2147"/>
<path d="M78.6954 44.6175C77.1493 46.6391 73.959 46.7967 71.5698 44.9695C69.1806 43.1422 68.4971 40.022 70.0432 38.0004C71.5894 35.9787 74.7796 35.8211 77.1689 37.6484C79.5581 39.4756 80.2416 42.5958 78.6954 44.6175Z" fill="#1A2147"/>
<path fill-rule="evenodd" clip-rule="evenodd" d="M78.3363 32.3015C76.7328 31.8597 75.2631 31.8132 73.8522 32.344C73.144 32.6104 72.672 33.1173 71.9375 33.906C71.7798 34.0754 71.6099 34.2577 71.4231 34.4535C71.3339 34.5469 71.2301 34.7135 71.1098 35.0367C71.0509 35.1946 70.9965 35.3659 70.9344 35.568C70.9252 35.5981 70.9156 35.6294 70.9058 35.6616C70.8539 35.8314 70.7941 36.0269 70.7305 36.2134C70.6039 36.584 70.5196 36.986 70.4372 37.4652C70.4172 37.5811 70.3967 37.7065 70.3751 37.8382C70.3141 38.2109 70.2448 38.6344 70.1571 39.0368C70.0844 39.3703 70.0685 39.7508 70.0832 40.2342C70.0875 40.3729 70.0962 40.5484 70.1057 40.7406C70.1175 40.979 70.1306 41.2429 70.138 41.4936C70.5292 41.6774 70.8337 42.0267 70.9503 42.4629C70.9531 42.4664 70.956 42.47 70.9591 42.4739L70.966 42.4825C70.9856 42.5069 71.0119 42.5397 71.0383 42.5734C71.069 42.6126 71.1047 42.6593 71.1424 42.7116C71.2004 42.7922 71.2481 42.8666 71.2843 42.9249C71.3042 42.9571 71.334 43.0064 71.3528 43.0374C71.3599 43.0491 71.3654 43.0582 71.3682 43.0629C71.3872 43.094 71.3979 43.1103 71.4024 43.1169C71.4918 43.2198 71.581 43.3317 71.6435 43.4102C71.6578 43.4282 71.6708 43.4445 71.682 43.4585C71.7594 43.5548 71.7995 43.6006 71.8275 43.6286C72.1351 43.9362 72.3223 44.2731 72.4295 44.4728C72.4727 44.5532 72.5043 44.6133 72.529 44.6601C72.5825 44.7617 72.603 44.8006 72.6363 44.8482C72.6566 44.8772 72.6888 44.9143 72.7651 44.972C72.8574 45.0418 72.9679 45.1092 73.1772 45.2348C73.7817 45.5975 74.4132 45.7705 75.2759 45.8801C75.5039 45.909 75.7688 45.9069 76.125 45.8871C76.1996 45.8829 76.283 45.8775 76.3725 45.8718C76.6578 45.8534 77.0053 45.8311 77.3264 45.8311C78.0372 45.8311 78.7448 45.62 79.4884 45.2222C79.7832 45.0645 80.0651 44.9182 80.3367 44.7773C81.0462 44.409 81.6861 44.077 82.3054 43.672C82.7068 43.4096 83.1756 42.6896 83.369 41.9684C83.3993 41.8556 83.4289 41.7464 83.4576 41.6404C83.7239 40.6566 83.916 39.9467 83.916 39.1462C83.916 38.192 83.6283 37.3682 83.016 36.5348C82.9994 36.5121 82.9825 36.4892 82.9654 36.4659C82.6913 36.0933 82.3612 35.6445 82.0836 35.1511C82.0712 35.129 82.0597 35.1085 82.049 35.0894C81.9983 34.9991 81.9653 34.9403 81.9283 34.8815C81.9068 34.8475 81.8937 34.8295 81.8889 34.8231C81.6443 34.5755 81.4624 34.3036 81.3441 34.1193C81.2786 34.0172 81.2332 33.944 81.1962 33.8843C81.1451 33.8018 81.1101 33.7454 81.0604 33.6748C80.9325 33.4931 80.8099 33.3859 80.5398 33.15C80.464 33.0837 80.3766 33.0073 80.2741 32.9162C80.1871 32.8388 80.0089 32.7379 79.6373 32.6277C79.4588 32.5748 79.2671 32.5282 79.0434 32.4756C79.0176 32.4696 78.9911 32.4634 78.964 32.4571C78.771 32.412 78.548 32.3598 78.3363 32.3015ZM68.0447 43.2271C68.1243 43.6049 68.2853 43.8925 68.4271 44.0975C68.4988 44.2012 68.5723 44.2929 68.615 44.3461L68.6188 44.3508C68.6701 44.4148 68.6903 44.4402 68.7078 44.4645C68.7193 44.4805 68.7255 44.4907 68.7522 44.5348C68.765 44.556 68.7827 44.5851 68.8079 44.6265C68.8692 44.7269 68.9779 44.9019 69.135 45.0814C69.178 45.1305 69.2153 45.1772 69.2733 45.2499C69.2936 45.2753 69.3164 45.3039 69.3429 45.3369C69.4296 45.4448 69.5553 45.599 69.7062 45.7499C69.7011 45.7449 69.6983 45.7415 69.6983 45.7415C69.6983 45.7415 69.7234 45.7746 69.7864 45.8919C69.803 45.9229 69.8192 45.9537 69.839 45.9914L69.8509 46.0141C69.8748 46.0595 69.9034 46.1137 69.9341 46.1699C69.9953 46.2817 70.0761 46.4222 70.1786 46.5686C70.6251 47.2064 71.2185 47.5599 71.5718 47.7704C71.5934 47.7832 71.614 47.7955 71.6337 47.8073C72.7273 48.4635 73.8108 48.7181 74.898 48.8562C75.4076 48.9209 75.8962 48.9045 76.2921 48.8824C76.4246 48.875 76.5429 48.8674 76.652 48.8604C76.9053 48.8442 77.1092 48.8311 77.3264 48.8311C78.6575 48.8311 79.8519 48.43 80.9034 47.8676C81.1237 47.7497 81.3592 47.6276 81.604 47.5006C82.3536 47.1118 83.1908 46.6775 83.9472 46.1829C85.1769 45.3789 85.9591 43.8917 86.2666 42.7458C86.2957 42.6371 86.3262 42.5258 86.3574 42.4119C86.6134 41.4773 86.916 40.3722 86.916 39.1462C86.916 37.4861 86.3827 36.0503 85.4337 34.7586L85.4226 34.7435C85.1159 34.326 84.8841 34.0105 84.6984 33.6804C84.6915 33.6681 84.6831 33.6528 84.6732 33.6349C84.5774 33.4605 84.3437 33.0354 84.0228 32.7145C84.0228 32.7145 84.019 32.7107 84.0109 32.7011C84.0029 32.6916 83.9919 32.678 83.9779 32.6592C83.9487 32.6201 83.914 32.5692 83.8688 32.4989C83.8373 32.4497 83.8101 32.406 83.7781 32.3548C83.7597 32.3253 83.7398 32.2933 83.7166 32.2563C83.6604 32.1669 83.5909 32.0579 83.5139 31.9484C83.1561 31.44 82.7099 31.0561 82.4132 30.8009C82.3591 30.7543 82.3099 30.712 82.2672 30.674C81.6913 30.1621 81.0144 29.9069 80.4903 29.7515C80.2208 29.6716 79.9544 29.6079 79.7288 29.555C79.7002 29.5483 79.6724 29.5418 79.6453 29.5354C79.4452 29.4886 79.2841 29.4508 79.1331 29.4093C77.1202 28.8547 74.9697 28.7182 72.7958 29.5362C71.3596 30.0765 70.3308 31.2051 69.6035 32.0029C69.4779 32.1407 69.3612 32.2687 69.253 32.3821C68.7571 32.9016 68.4793 33.5038 68.2984 33.9896C68.2066 34.2361 68.1305 34.4794 68.0666 34.6873C68.0549 34.7255 68.0437 34.7622 68.0328 34.7976C67.9809 34.9672 67.938 35.1077 67.8914 35.244C67.6863 35.8447 67.5703 36.4352 67.4806 36.9567C67.4517 37.1248 67.4261 37.2809 67.4018 37.4296C67.3455 37.7735 67.2957 38.0775 67.2259 38.3979C67.0753 39.0891 67.0673 39.7572 67.0846 40.3255C67.0931 40.6047 67.1051 40.8299 67.1161 41.036C67.1309 41.3142 67.1439 41.5576 67.1439 41.8515C67.1439 42.467 67.5145 42.9958 68.0447 43.2271Z" fill="#1A2147"/>
<path fill-rule="evenodd" clip-rule="evenodd" d="M72.9641 83.3015C73.4013 84.0051 73.1852 84.93 72.4815 85.3671C71.3085 86.0958 70.1838 86.8798 69.0205 87.6908C68.4863 88.0632 67.944 88.4413 67.3851 88.8223C65.647 90.0072 63.8065 91.1776 61.8031 92.0679C60.9403 92.4514 60.1303 92.8555 59.2823 93.2785C58.8543 93.4921 58.4166 93.7104 57.9575 93.9334C57.523 94.1445 57.1187 94.3589 56.6823 94.5904C56.3349 94.7746 55.9671 94.9697 55.5477 95.1824C54.6853 95.6196 53.7223 96.0657 52.7504 96.3357C51.225 96.7594 49.7824 97.4571 48.2155 98.2347C48.1408 98.2718 48.0658 98.3091 47.9904 98.3465C46.5262 99.0741 44.9394 99.8625 43.2375 100.386C42.4603 100.625 41.6855 101.021 40.7702 101.495L40.7142 101.524C39.8597 101.966 38.8689 102.479 37.8229 102.798C37.0863 103.023 36.3496 103.359 35.5393 103.755C35.3888 103.828 35.2343 103.905 35.0765 103.983C34.4185 104.308 33.7035 104.661 32.9842 104.954C32.1495 105.294 31.2098 105.708 30.5575 106.119C28.2617 107.564 25.6205 108.794 23.1344 109.682C22.9687 109.741 22.8024 109.8 22.6362 109.859C21.3775 110.304 20.1282 110.746 19.2359 111.308C18.4375 111.81 17.4351 111.984 16.7847 112.096C16.739 112.104 16.6951 112.112 16.6531 112.119C15.816 112.267 15.473 112.364 15.3092 112.483C14.6645 112.952 13.9874 113.225 13.4484 113.42C13.2521 113.491 13.0868 113.548 12.9428 113.597C12.6349 113.703 12.4249 113.776 12.2202 113.877C12.0995 113.937 12.0456 113.979 12.0252 113.997C12.0233 113.999 12.0206 114.001 12.0206 114.001L12.0201 114.003C12.0186 114.007 12.0163 114.015 12.0138 114.027C12.0088 114.05 12.0026 114.091 12.0006 114.153C11.9965 114.28 12.011 114.482 12.0781 114.784C12.2625 115.614 12.6524 116.532 13.1512 117.547C13.3228 117.896 13.5178 118.276 13.7178 118.666C14.053 119.319 14.4022 120 14.6787 120.608C15.0523 121.43 15.4636 122.287 15.8862 123.167C16.9183 125.318 18.0186 127.61 18.8059 129.884C19.1219 130.797 19.6662 131.619 20.3596 132.54C20.4928 132.718 20.6346 132.902 20.7813 133.092C21.3542 133.837 22.0029 134.68 22.517 135.58C23.5059 137.31 25.3537 139.18 26.9926 140.819C27.7341 141.561 28.4359 142.317 29.1126 143.046L29.1135 143.047C29.7961 143.782 30.4527 144.489 31.1334 145.17C31.5912 145.628 32.0138 146.12 32.3984 146.567L32.4273 146.601C32.8322 147.072 33.2013 147.5 33.5969 147.895C34.173 148.472 34.8017 149.003 35.4876 149.576C35.5276 149.61 35.5678 149.643 35.6082 149.677C36.2457 150.21 36.932 150.783 37.5868 151.414C39.6426 153.395 41.9725 155.56 44.2351 156.852C45.7264 157.705 47.1356 158.705 48.4642 159.649C48.616 159.757 48.7667 159.864 48.9164 159.97C50.4051 161.024 51.8024 161.983 53.2556 162.71C53.9966 163.08 54.297 163.981 53.9265 164.722C53.556 165.463 52.655 165.764 51.914 165.393C50.232 164.552 48.6656 163.468 47.1828 162.418C47.0324 162.312 46.8829 162.205 46.7342 162.1C45.3878 161.144 44.1017 160.232 42.7467 159.457C40.1105 157.951 37.5263 155.522 35.5051 153.574C34.9296 153.02 34.3191 152.51 33.6631 151.961L33.5636 151.878C32.8847 151.311 32.1588 150.7 31.4756 150.017C30.9885 149.53 30.5489 149.018 30.1549 148.559L30.1519 148.556C29.7444 148.082 29.3868 147.666 29.0121 147.291C28.2919 146.571 27.6034 145.829 26.9332 145.108L26.9141 145.087C26.2318 144.352 25.5672 143.637 24.8713 142.941L24.8322 142.902C23.2771 141.347 21.1304 139.2 19.9123 137.068C19.5099 136.364 19.0261 135.734 18.4726 135.013C18.3085 134.8 18.1384 134.578 17.9625 134.344C17.2328 133.375 16.4477 132.243 15.9709 130.866C15.2422 128.761 14.2644 126.725 13.2649 124.643C12.8235 123.724 12.3779 122.796 11.9476 121.849C11.6911 121.285 11.411 120.741 11.1083 120.153C10.9022 119.752 10.6855 119.331 10.4587 118.87C9.93852 117.811 9.415 116.629 9.14953 115.435C8.94082 114.496 8.92092 113.586 9.28216 112.775C9.65729 111.933 10.3207 111.47 10.8883 111.189C11.2793 110.995 11.7603 110.83 12.1355 110.701C12.2442 110.663 12.344 110.629 12.4302 110.598C12.891 110.432 13.248 110.273 13.5447 110.057C14.342 109.477 15.3888 109.294 16.0409 109.181C16.0725 109.175 16.1032 109.17 16.1329 109.165C16.9718 109.017 17.3886 108.926 17.6375 108.769C18.8389 108.012 20.4447 107.448 21.6545 107.023C21.8195 106.965 21.9771 106.91 22.1254 106.857C24.4365 106.031 26.8749 104.892 28.959 103.58C29.8564 103.015 31.0157 102.517 31.8523 102.176C32.4617 101.928 33.0536 101.635 33.702 101.315C33.8713 101.232 34.0445 101.146 34.2228 101.059C35.0519 100.654 35.9682 100.228 36.9463 99.9291C37.7086 99.6961 38.4749 99.3045 39.3918 98.8302L39.4421 98.8041C40.2995 98.3605 41.2966 97.8446 42.3553 97.5189C43.8173 97.069 45.2056 96.3797 46.7294 95.6231C46.7801 95.598 46.8309 95.5728 46.8818 95.5475C48.4252 94.7815 50.1088 93.9559 51.9475 93.4451C52.6236 93.2573 53.3715 92.9222 54.191 92.5067C54.4931 92.3535 54.8347 92.1731 55.1845 91.9884C55.6861 91.7235 56.2044 91.4498 56.6468 91.2349C57.0446 91.0417 57.4515 90.8388 57.865 90.6326C58.7483 90.1922 59.6623 89.7365 60.5847 89.3265C62.3353 88.5485 63.9968 87.5014 65.6953 86.3435C66.1974 86.0012 66.7089 85.6447 67.2273 85.2834C68.4232 84.4499 69.6564 83.5904 70.8984 82.8188C71.6021 82.3817 72.527 82.5978 72.9641 83.3015Z" fill="#1A2147"/>
<path fill-rule="evenodd" clip-rule="evenodd" d="M213.783 3.89305C213.699 3.93214 213.512 4.01931 213.342 4.0679C209.298 5.22343 205.501 7.02341 201.651 9.02105C200.658 9.5365 199.657 10.0675 198.647 10.6033C195.781 12.1229 192.843 13.6812 189.802 15.0331C189.086 15.3514 188.443 15.8585 187.629 16.5168C187.607 16.5345 187.585 16.5523 187.563 16.5703C186.816 17.1745 185.901 17.9146 184.809 18.3996C184.352 18.6029 183.918 18.7875 183.498 18.9658C182.49 19.3941 181.569 19.7855 180.625 20.3103C179.609 20.8748 178.612 21.4864 177.576 22.1217C177.447 22.201 177.317 22.2807 177.186 22.3607C176.022 23.0741 174.809 23.8075 173.537 24.4772C171.192 25.7111 169.082 27.0556 166.794 28.5132C166.617 28.6258 166.439 28.7391 166.26 28.853C163.123 30.8492 160.088 32.6376 156.868 34.4267C156.01 34.9032 155.219 35.4365 154.406 35.9982C154.305 36.0676 154.204 36.1376 154.102 36.2082C153.396 36.6972 152.656 37.2097 151.889 37.6698C150.086 38.752 148.034 39.6078 145.294 39.6078C144.466 39.6078 143.794 38.9363 143.794 38.1078C143.794 37.2794 144.466 36.6078 145.294 36.6078C147.329 36.6078 148.847 35.9968 150.346 35.0973C151.023 34.6915 151.675 34.2396 152.389 33.7455C152.491 33.6744 152.595 33.6025 152.701 33.5297C153.522 32.9624 154.416 32.357 155.411 31.8042C158.587 30.0399 161.57 28.2819 164.649 26.322C164.834 26.2048 165.017 26.0878 165.201 25.971C167.469 24.5256 169.68 23.1168 172.139 21.8225C173.317 21.2027 174.456 20.5149 175.619 19.8025C175.748 19.7234 175.878 19.644 176.008 19.5643C177.036 18.9332 178.091 18.2859 179.168 17.6879C180.26 17.0812 181.401 16.5959 182.463 16.1445C182.852 15.9793 183.23 15.8186 183.591 15.6582C184.292 15.3467 184.925 14.8449 185.743 14.1837L185.794 14.1427C186.547 13.5335 187.472 12.7856 188.583 12.2917C191.522 10.9857 194.324 9.49946 197.161 7.99465C198.19 7.44903 199.223 6.90096 200.27 6.35816C204.143 4.34835 208.136 2.44279 212.455 1.20149C212.469 1.19497 212.491 1.18506 212.522 1.17084C212.613 1.12836 212.738 1.06751 212.891 0.991216C213.195 0.839474 213.577 0.642602 213.957 0.445101C214.254 0.290968 214.545 0.138952 214.791 0.0100983C214.86 -0.0258158 214.925 -0.0599307 214.986 -0.0917905C215.125 -0.164147 215.243 -0.226047 215.328 -0.269851C215.37 -0.291216 215.409 -0.311449 215.441 -0.327266C215.455 -0.334133 215.479 -0.346134 215.505 -0.35825C215.515 -0.362711 215.548 -0.378118 215.59 -0.394587C215.605 -0.400705 215.665 -0.424095 215.741 -0.445467C215.773 -0.454176 215.872 -0.48148 216.004 -0.493758C216.075 -0.498736 216.257 -0.495962 216.368 -0.48346C216.545 -0.445587 216.976 -0.24784 217.204 -0.0609141C217.641 0.375449 217.929 0.910975 218.132 1.35965C218.314 1.76138 218.474 2.20129 218.611 2.57802C218.629 2.62709 218.647 2.6751 218.664 2.7218C218.824 3.15946 218.958 3.50931 219.104 3.79534C219.252 4.08754 219.357 4.19714 219.395 4.22786C220.093 4.78638 220.418 5.50128 220.591 6.09801C220.71 6.50647 220.785 6.98909 220.835 7.31319C220.849 7.40673 220.862 7.48706 220.873 7.5486C220.991 8.21835 221.29 8.9546 221.71 9.78134C221.917 10.1891 222.141 10.5963 222.375 11.0177L222.419 11.0978C222.635 11.4866 222.859 11.8916 223.063 12.2878C223.308 12.7645 223.533 13.3294 223.74 13.8672C223.805 14.0372 223.868 14.2051 223.931 14.3716C224.078 14.7592 224.222 15.1392 224.377 15.5212C224.597 16.0609 224.814 16.5376 225.038 16.9269C225.27 17.3283 225.461 17.5502 225.593 17.6556C225.898 17.8996 226.091 18.2007 226.209 18.4153C226.336 18.6475 226.438 18.8961 226.521 19.1296C226.685 19.5966 226.817 20.1308 226.921 20.6296C227.105 21.5106 227.233 22.4246 227.302 22.9151C227.311 22.9819 227.319 23.0408 227.326 23.0907C227.386 23.5048 227.435 23.9027 227.485 24.3019C227.556 24.8643 227.626 25.4294 227.724 26.0462C227.884 27.0553 228.081 27.9286 228.352 28.5739C230.123 32.7785 230.119 37.4657 230.115 41.6794C230.115 41.8671 230.115 42.0538 230.115 42.2395C230.115 46.2544 230.453 50.1894 230.798 54.1884L230.803 54.2447C231.145 58.2056 231.492 62.2313 231.492 66.3406L231.492 66.4701C231.492 68.5288 231.493 70.6357 230.931 72.8827C230.796 73.4232 230.636 74.0011 230.477 74.578L230.467 74.6131C230.309 75.1849 230.15 75.7597 230.003 76.3332C229.7 77.5191 229.474 78.6087 229.424 79.5073C229.259 82.4837 229.083 85.5343 228.707 88.5429C228.593 89.4534 228.383 90.3135 228.196 91.0787C228.176 91.1618 228.156 91.2438 228.136 91.3246C227.929 92.1785 227.759 92.9356 227.701 93.7278C227.547 95.8009 226.898 97.7751 226.303 99.5584L226.256 99.699C225.659 101.487 225.123 103.092 224.941 104.724C224.73 106.627 223.874 108.481 223.139 110.071C223.073 110.215 223.008 110.356 222.944 110.495C222.117 112.301 221.507 113.794 221.507 115.231C221.507 116.06 220.836 116.731 220.007 116.731C219.179 116.731 218.507 116.06 218.507 115.231C218.507 113.044 219.422 110.98 220.217 109.245C220.267 109.136 220.316 109.028 220.365 108.922C221.153 107.208 221.804 105.789 221.96 104.392C222.177 102.435 222.805 100.558 223.373 98.8583C223.401 98.7746 223.429 98.6913 223.457 98.6085C224.066 96.7828 224.587 95.1507 224.709 93.5062C224.788 92.4451 225.012 91.4773 225.221 90.6171C225.24 90.5375 225.259 90.4589 225.278 90.3813C225.47 89.592 225.639 88.9 225.73 88.1708C226.092 85.2798 226.263 82.3287 226.429 79.3409C226.496 78.1359 226.785 76.8115 227.097 75.59C227.251 74.988 227.417 74.389 227.572 73.8251L227.585 73.7786C227.747 73.1948 227.896 72.6532 228.021 72.1551C228.49 70.2758 228.492 68.4945 228.492 66.3406C228.492 62.3623 228.154 58.4461 227.809 54.4463L227.809 54.443C227.465 50.4642 227.115 46.4032 227.115 42.2395C227.115 42.129 227.115 42.0188 227.115 41.9086C227.116 37.5067 227.117 33.3703 225.588 29.7381C225.17 28.7474 224.93 27.5808 224.761 26.5158C224.661 25.8882 224.573 25.1905 224.494 24.5657C224.445 24.1753 224.399 23.8134 224.357 23.515C224.348 23.4575 224.339 23.3928 224.329 23.3219C224.259 22.823 224.146 22.0167 223.985 21.2435C223.892 20.8002 223.792 20.4137 223.692 20.1285C223.654 20.0217 223.622 19.9469 223.599 19.8988C223.11 19.4735 222.734 18.9353 222.44 18.4256C222.115 17.8632 221.839 17.2419 221.599 16.6525C221.428 16.2341 221.263 15.7975 221.111 15.3958C221.051 15.2379 220.994 15.0853 220.938 14.9413C220.732 14.4029 220.558 13.9759 220.395 13.6598C220.213 13.3067 220.01 12.9401 219.789 12.54L219.751 12.4715C219.519 12.053 219.27 11.6019 219.035 11.1398C218.572 10.227 218.114 9.17757 217.918 8.06995C217.898 7.95619 217.871 7.78469 217.848 7.63849C217.834 7.54687 217.821 7.46518 217.812 7.41387C217.779 7.21708 217.748 7.06345 217.71 6.9334C217.637 6.68162 217.567 6.607 217.521 6.57046C217.004 6.15686 216.665 5.61788 216.43 5.15627C216.192 4.68849 216.002 4.17929 215.846 3.75168C215.828 3.70221 215.81 3.65379 215.793 3.60637C215.711 3.38082 215.637 3.17785 215.564 2.99112C215.49 3.02958 215.415 3.0685 215.34 3.10753C214.957 3.30666 214.557 3.51248 214.231 3.67525C214.069 3.75622 213.917 3.83058 213.79 3.88948L213.783 3.89305Z" fill="#1A2147"/>
<path fill-rule="evenodd" clip-rule="evenodd" d="M220.302 113.531C221.051 113.884 221.373 114.777 221.02 115.527C220.669 116.272 220.229 117.027 219.832 117.705C219.683 117.96 219.54 118.205 219.41 118.435C218.901 119.337 218.526 120.117 218.354 120.894C217.766 123.537 216.339 126.378 215.112 128.524C213.804 130.814 212.082 132.791 210.48 134.631L210.39 134.734C208.727 136.644 207.201 138.412 206.093 140.406C205.046 142.291 203.449 143.874 201.889 145.257C201.29 145.789 200.71 146.28 200.152 146.753C199.182 147.575 198.28 148.339 197.464 149.155C196.9 149.718 196.398 150.3 195.855 150.929C195.559 151.271 195.251 151.627 194.915 152.002C194.012 153.008 192.978 154.055 191.7 154.868C190.092 155.891 188.719 157.276 187.21 158.797C187.07 158.938 186.929 159.08 186.786 159.223C185.162 160.855 183.352 162.609 181.083 163.743C180.342 164.114 179.441 163.814 179.071 163.073C178.7 162.332 179.001 161.431 179.742 161.06C181.519 160.171 183.02 158.754 184.66 157.107C184.807 156.959 184.956 156.808 185.106 156.657C186.572 155.177 188.182 153.551 190.089 152.337C191.017 151.747 191.833 150.944 192.682 149.998C192.938 149.713 193.207 149.402 193.485 149.081C194.075 148.4 194.706 147.67 195.343 147.033C196.237 146.139 197.314 145.225 198.354 144.342C198.889 143.888 199.414 143.443 199.899 143.013C201.409 141.673 202.682 140.368 203.47 138.949C204.755 136.636 206.496 134.638 208.124 132.768L208.127 132.764C209.793 130.852 211.348 129.066 212.507 127.036C213.703 124.943 214.94 122.426 215.425 120.244C215.698 119.016 216.258 117.917 216.798 116.96C216.976 116.644 217.148 116.35 217.313 116.067C217.682 115.437 218.015 114.867 218.306 114.249C218.658 113.5 219.552 113.178 220.302 113.531Z" fill="#1A2147"/>
<path fill-rule="evenodd" clip-rule="evenodd" d="M213.809 127.504C214.638 127.504 215.309 128.175 215.309 129.004C215.309 132.927 215.801 137.364 216.893 141.049C217.142 141.892 217.05 142.792 216.993 143.35C216.987 143.401 216.982 143.45 216.978 143.495C216.91 144.199 216.928 144.456 216.99 144.604C217.319 145.385 217.394 146.178 217.407 146.844C217.414 147.18 217.405 147.51 217.395 147.805C217.394 147.841 217.393 147.877 217.391 147.912C217.383 148.174 217.375 148.404 217.375 148.629V158.27C217.375 161.419 217.79 164.587 218.223 167.875L218.228 167.912C218.655 171.154 219.097 174.514 219.097 177.895C219.097 179.937 219.683 182.371 220.244 184.699C220.334 185.074 220.424 185.447 220.51 185.814C221.043 188.079 221.162 190.49 221.162 192.7C221.162 195.855 221.332 198.979 221.505 202.143L221.507 202.181C221.678 205.319 221.851 208.499 221.851 211.713C221.851 213.516 221.935 215.348 222.022 217.227L222.022 217.229C222.107 219.097 222.195 221.011 222.195 222.922C222.195 223.175 222.204 223.388 222.214 223.626C222.221 223.802 222.229 223.991 222.235 224.221C222.245 224.678 222.241 225.241 222.125 225.786C222.004 226.351 221.74 227.002 221.153 227.512C220.565 228.023 219.828 228.241 219.057 228.283C218.302 228.325 217.487 228.311 216.749 228.297C216.412 228.291 216.091 228.286 215.799 228.286C214.097 228.286 212.397 228.197 210.748 228.112C209.086 228.025 207.475 227.941 205.89 227.941C204.357 227.941 202.907 227.682 201.596 227.437C201.527 227.424 201.458 227.411 201.389 227.398C200.124 227.162 198.993 226.95 197.839 226.907C196.811 226.869 195.883 226.689 195.032 226.491C194.723 226.419 194.437 226.348 194.16 226.28C193.635 226.15 193.145 226.03 192.601 225.925C191.97 225.804 191.257 225.782 190.445 225.8C190.165 225.806 189.843 225.819 189.507 225.832C188.973 225.853 188.404 225.876 187.91 225.876H181.445C176.869 225.876 172.828 225.213 168.693 223.023C167.597 222.443 166.977 221.442 166.636 220.53C166.293 219.612 166.173 218.634 166.173 217.834C166.173 216.736 166.177 215.764 166.349 214.826C166.529 213.839 166.881 212.944 167.489 211.909C168.539 210.124 170.371 208.335 172.386 206.994C174.384 205.665 176.788 204.628 179.035 204.628C180.911 204.628 182.826 204.543 184.789 204.457L184.797 204.457C186.752 204.371 188.752 204.283 190.741 204.283C191.848 204.283 192.819 204.457 193.663 204.62C193.744 204.636 193.823 204.651 193.901 204.666C194.665 204.814 195.302 204.938 195.984 204.974C196.271 204.989 196.583 205.039 196.816 205.077V203.373C196.816 201.265 196.528 199.15 196.203 196.926C196.18 196.771 196.158 196.615 196.135 196.459C195.833 194.406 195.517 192.255 195.439 190.075C195.406 189.148 195.37 188.218 195.333 187.285C195.214 184.29 195.094 181.27 195.094 178.239C195.094 176.366 194.929 174.5 194.756 172.557L194.753 172.526C194.583 170.614 194.406 168.626 194.406 166.609C194.406 165.18 194.323 163.773 194.236 162.316L194.235 162.293C194.15 160.856 194.061 159.37 194.061 157.849C194.061 156.774 193.907 155.7 193.733 154.497L193.727 154.46C193.559 153.301 193.373 152.021 193.373 150.695C193.373 149.867 194.044 149.195 194.873 149.195C195.701 149.195 196.373 149.867 196.373 150.695C196.373 151.783 196.527 152.864 196.701 154.065L196.709 154.119C196.877 155.271 197.061 156.541 197.061 157.849C197.061 159.275 197.144 160.68 197.231 162.138L197.232 162.156C197.317 163.594 197.406 165.083 197.406 166.609C197.406 168.482 197.571 170.348 197.744 172.291L197.747 172.321C197.917 174.233 198.094 176.221 198.094 178.239C198.094 181.205 198.211 184.143 198.329 187.125C198.366 188.067 198.404 189.015 198.438 189.968C198.509 191.976 198.802 193.971 199.108 196.058C199.129 196.202 199.15 196.347 199.172 196.492C199.495 198.705 199.816 201.02 199.816 203.373V206.128C199.816 206.449 199.75 206.816 199.546 207.168C199.338 207.527 199.043 207.771 198.744 207.924C198.216 208.193 197.658 208.186 197.359 208.17C197.024 208.152 196.676 208.095 196.426 208.054L196.409 208.051C196.112 208.002 195.945 207.976 195.827 207.97C194.923 207.922 194.079 207.758 193.342 207.614C193.258 207.597 193.176 207.581 193.095 207.566C192.272 207.407 191.541 207.283 190.741 207.283C188.829 207.283 186.894 207.368 184.929 207.454L184.887 207.456C182.947 207.541 180.977 207.628 179.035 207.628C177.625 207.628 175.809 208.321 174.048 209.492C172.304 210.652 170.837 212.134 170.075 213.43C169.608 214.223 169.405 214.788 169.3 215.365C169.185 215.991 169.173 216.687 169.173 217.834C169.173 218.368 169.257 218.974 169.446 219.48C169.638 219.993 169.878 220.257 170.096 220.372C173.674 222.266 177.194 222.876 181.445 222.876H187.91C188.378 222.876 188.806 222.858 189.268 222.839C189.61 222.825 189.97 222.81 190.379 222.801C191.254 222.782 192.219 222.798 193.166 222.979C193.785 223.097 194.411 223.252 194.98 223.392C195.237 223.455 195.483 223.516 195.712 223.569C196.49 223.75 197.203 223.882 197.95 223.909C199.335 223.961 200.671 224.211 201.887 224.439C201.974 224.456 202.061 224.472 202.147 224.488C203.47 224.735 204.668 224.941 205.89 224.941C207.554 224.941 209.229 225.028 210.865 225.114L210.903 225.116C212.565 225.202 214.188 225.286 215.799 225.286C216.211 225.286 216.592 225.293 216.956 225.3C217.627 225.312 218.242 225.324 218.891 225.288C219.036 225.28 219.123 225.261 219.168 225.246C219.175 225.227 219.183 225.198 219.191 225.159C219.23 224.975 219.245 224.706 219.236 224.291C219.233 224.175 219.227 224.025 219.221 223.862C219.209 223.561 219.195 223.21 219.195 222.922C219.195 221.092 219.111 219.246 219.025 217.367L219.023 217.33C218.938 215.474 218.851 213.585 218.851 211.713C218.851 208.582 218.681 205.471 218.509 202.306L218.509 202.305C218.337 199.154 218.162 195.95 218.162 192.7C218.162 190.571 218.044 188.431 217.59 186.502C217.512 186.171 217.428 185.823 217.34 185.461C216.785 183.17 216.097 180.328 216.097 177.895C216.097 174.731 215.681 171.554 215.249 168.267L215.241 168.208C214.815 164.973 214.375 161.628 214.375 158.27V148.629C214.375 148.35 214.385 148.067 214.393 147.811C214.394 147.776 214.395 147.741 214.397 147.707C214.406 147.414 214.413 147.153 214.408 146.903C214.398 146.397 214.34 146.042 214.225 145.768C213.833 144.837 213.93 143.844 213.988 143.251L213.992 143.205C214.065 142.452 214.086 142.136 214.016 141.901C212.822 137.871 212.309 133.134 212.309 129.004C212.309 128.175 212.981 127.504 213.809 127.504Z" fill="#1A2147"/>
<path fill-rule="evenodd" clip-rule="evenodd" d="M52.7181 206.057C52.9331 206.075 53.1468 206.093 53.359 206.109C54.8909 206.229 56.5995 206.394 58.2082 206.762C58.6281 206.858 59.0672 206.907 59.5907 206.958C59.645 206.963 59.7005 206.968 59.7571 206.973C60.219 207.017 60.7545 207.067 61.2903 207.165C62.7422 207.429 64.1817 207.813 65.5781 208.187C65.9777 208.294 66.3738 208.4 66.7657 208.502C67.5675 208.71 68.0484 209.529 67.84 210.331C67.6315 211.133 66.8126 211.614 66.0108 211.405C65.5721 211.291 65.1457 211.177 64.728 211.065C63.3542 210.698 62.0735 210.356 60.7537 210.116C60.3527 210.043 59.9495 210.005 59.4708 209.96C59.4165 209.955 59.3613 209.949 59.305 209.944C58.7783 209.894 58.1674 209.83 57.5398 209.687C56.1612 209.372 54.6407 209.219 53.1245 209.1C52.9391 209.085 52.7566 209.071 52.5769 209.056C50.0453 208.854 48.0471 208.694 45.944 209.395C45.0278 209.7 44.179 210.113 43.2929 210.589C43.0044 210.744 42.699 210.913 42.3831 211.088C41.7755 211.424 41.129 211.782 40.4888 212.102C39.2051 212.744 37.6621 214.084 36.4747 215.271C36.1714 215.574 35.8577 215.825 35.6106 216.02C35.5926 216.034 35.5749 216.048 35.5577 216.061C35.318 216.251 35.1556 216.379 35.0145 216.513C34.776 216.74 34.7194 216.864 34.7111 217.088C34.69 217.656 34.612 218.192 34.5363 218.66C34.5171 218.779 34.4985 218.891 34.4806 218.998C34.4237 219.341 34.3745 219.637 34.3403 219.942C34.2564 220.693 34.2967 221.262 34.5864 221.842C35.4917 223.652 37.2589 224.488 39.6228 225.002L39.659 225.01C42.5888 225.647 45.205 226.216 48.0305 226.216C48.8001 226.216 49.5466 226.296 50.2064 226.367L50.2442 226.371C50.9387 226.446 51.544 226.509 52.1489 226.509C52.8485 226.509 53.5373 226.475 54.2698 226.438L54.2848 226.437C55.0015 226.401 55.7609 226.363 56.5447 226.363C57.2304 226.363 57.8749 226.325 58.5701 226.284C58.9083 226.264 59.2584 226.243 59.6311 226.226C59.954 226.211 60.3392 226.233 60.6151 226.248C60.6953 226.253 60.7663 226.257 60.8238 226.26C61.171 226.274 61.33 226.258 61.406 226.237C61.9359 226.091 62.4271 226.091 62.7504 226.094C62.7979 226.095 62.8418 226.095 62.8827 226.095C63.1652 226.099 63.3015 226.1 63.4444 226.078C63.586 226.056 63.7267 226.025 63.9236 225.98C63.9834 225.966 64.0485 225.951 64.1202 225.935C64.3859 225.876 64.7515 225.799 65.1307 225.778C65.3583 225.765 65.6138 225.745 65.8857 225.724C66.4556 225.679 67.0979 225.629 67.7094 225.629C68.5378 225.629 69.2094 226.3 69.2094 227.129C69.2094 227.957 68.5378 228.629 67.7094 228.629C67.2028 228.629 66.7823 228.663 66.2992 228.702C66.0008 228.726 65.6784 228.752 65.2971 228.773C65.186 228.779 65.0308 228.806 64.7733 228.864C64.7343 228.872 64.6912 228.882 64.6448 228.893C64.435 228.941 64.1587 229.004 63.9006 229.043C63.4907 229.106 63.0819 229.1 62.8224 229.095C62.7853 229.095 62.7512 229.094 62.7206 229.094C62.424 229.091 62.2975 229.103 62.2038 229.129C61.6416 229.284 61.0765 229.273 60.6952 229.257C60.5321 229.25 60.4001 229.242 60.2872 229.236C60.0725 229.223 59.9273 229.215 59.7705 229.222C59.4775 229.236 59.1698 229.254 58.8527 229.273C58.1119 229.316 57.3198 229.363 56.5447 229.363C55.8432 229.363 55.1534 229.397 54.4211 229.434L54.4034 229.435C53.6876 229.471 52.93 229.509 52.1489 229.509C51.3679 229.509 50.6143 229.428 49.9506 229.357L49.9234 229.354C49.2276 229.279 48.6271 229.216 48.0305 229.216C44.8802 229.216 41.9921 228.588 39.1537 227.97C39.0976 227.958 39.0416 227.946 38.9855 227.934C36.3747 227.366 33.4373 226.252 31.9031 223.183C31.2526 221.883 31.2417 220.656 31.359 219.608C31.4029 219.216 31.4699 218.813 31.5292 218.457C31.5451 218.361 31.5605 218.269 31.5748 218.181C31.6463 217.738 31.6992 217.352 31.7131 216.977C31.759 215.74 32.3333 214.923 32.9472 214.339C33.195 214.103 33.4679 213.889 33.6829 213.719C33.7065 213.701 33.7294 213.683 33.7515 213.665C33.997 213.471 34.1867 213.316 34.3534 213.15C35.5777 211.926 37.4053 210.29 39.1472 209.419C39.7384 209.123 40.2766 208.825 40.842 208.511C41.1713 208.329 41.5099 208.141 41.8734 207.946C42.8183 207.438 43.841 206.933 44.9953 206.549C47.7046 205.645 50.297 205.858 52.7181 206.057Z" fill="#1A2147"/>
<path d="M143.636 181.026C143.636 178.127 143.477 175.285 143.349 172.399C142.997 164.433 140.196 156.497 141.189 148.509C145.43 148.509 149.704 147.688 153.966 147.688C159.222 147.688 164.333 148.782 169.583 148.782H175.171C176.489 148.782 178.976 148.073 178.976 149.739C178.976 152.539 179.248 155.331 179.248 158.077C179.248 163.449 180.138 168.911 180.336 174.267C180.454 177.478 180.064 180.674 180.064 183.896V189.303C180.064 191.162 178.899 190.609 177.285 190.609C174.25 190.609 171.172 191.703 168.102 191.703C162.647 191.703 157.312 191.794 151.927 192.265C149.87 192.445 148.061 192.654 146.083 193.206C145.513 193.365 142.777 194.861 142.549 194.573C141.488 193.24 142.82 189.829 142.82 188.286C142.82 185.81 143.636 183.519 143.636 181.026Z" fill="#1A2147"/>
</g>
<defs>
<clipPath id="clip0_424_2622">
<rect width="240" height="240" fill="white"/>
</clipPath>
</defs>
</svg>
