<svg width="106" height="33" viewBox="0 0 106 33" fill="none" xmlns="http://www.w3.org/2000/svg">
<path fill-rule="evenodd" clip-rule="evenodd" d="M0 13.8051C0 7.18086 5.37166 1.80615 12 1.80615C18.6283 1.80615 23.9999 7.18086 23.9999 13.7999H18V19.802H12V25.8041H18V31.8062H0V13.8051ZM18 19.8075H24V25.8096H18V19.8075Z" fill="#1A2147"/>
<path fill-rule="evenodd" clip-rule="evenodd" d="M66.1555 29.6152V17.8062H68.281V22.2761H68.5851C68.7206 22.0067 68.9695 21.7451 69.3351 21.4914C69.7006 21.2378 70.2536 21.1117 70.9973 21.1117C71.6496 21.1117 72.22 21.2614 72.71 21.5592C73.1984 21.857 73.5781 22.2682 73.8491 22.7913C74.1186 23.3144 74.2541 23.9242 74.2541 24.6221V29.6152H72.1286V24.7907C72.1286 24.1605 71.9742 23.6878 71.6654 23.3743C71.3566 23.0592 70.9138 22.9016 70.3403 22.9016C69.688 22.9016 69.1822 23.119 68.8214 23.5507C68.4606 23.984 68.281 24.5875 68.281 25.3642V29.6152H66.1555ZM39.7551 29.6152L42.859 17.8062H46.7397L49.8436 29.6152H47.5496L46.9083 27.0171H42.6904L42.0492 29.6152H39.7551ZM43.2135 24.9593H46.3852L44.9514 19.2069H44.6473L43.2135 24.9593ZM51.0741 29.6156V21.2476H53.1665V22.193H53.4706C53.5934 21.8558 53.7999 21.6084 54.0866 21.4509C54.3734 21.2933 54.7074 21.2145 55.0903 21.2145H56.1018V23.1037H55.0556C54.5152 23.1037 54.0709 23.247 53.7226 23.5338C53.3744 23.8206 53.1996 24.2617 53.1996 24.8589V29.6156H51.0741ZM58.5912 29.3457C59.2482 29.6829 59.9824 29.8515 60.7923 29.8515V29.8452C61.5895 29.8452 62.2765 29.7034 62.85 29.4229C63.4235 29.1424 63.8867 28.7564 64.2413 28.268C64.5942 27.7796 64.8447 27.236 64.9912 26.6404L62.9335 26.152C62.8421 26.6924 62.631 27.1273 62.3001 27.4597C61.9693 27.7922 61.4824 27.9576 60.8411 27.9576C60.1999 27.9576 59.6626 27.748 59.2293 27.3258C58.796 26.9035 58.5802 26.3001 58.5802 25.5123V25.3437C58.5802 24.5465 58.796 23.9383 59.2293 23.5223C59.6626 23.1064 60.1999 22.8984 60.8411 22.8984C61.4824 22.8984 61.9661 23.0701 62.2922 23.4136C62.6184 23.7555 62.8153 24.1809 62.8831 24.6867L64.9408 24.2487C64.8289 23.6295 64.5958 23.0749 64.2413 22.5864C63.8867 22.098 63.4235 21.7136 62.85 21.4315C62.2765 21.1495 61.6021 21.0093 60.7923 21.0093C59.9824 21.0093 59.2498 21.1779 58.5912 21.515C57.9342 21.8538 57.4142 22.3422 57.0314 22.9835C56.6485 23.6247 56.4579 24.4015 56.4579 25.3122V25.5485C56.4579 26.4608 56.6485 27.236 57.0314 27.8772C57.4127 28.5185 57.9342 29.0085 58.5912 29.3457ZM75.4515 21.2468L76.6316 29.6148H80.1578L81.2371 22.6806H81.5411L82.6204 29.6148H86.1466L87.3267 21.2468H85.2186L84.4765 28.181H84.1724L83.0931 21.2468H79.6851L78.6058 28.181H78.3017L77.5596 21.2468H75.4515ZM91.1917 29.8515C90.5961 29.8515 90.062 29.7475 89.5893 29.5395C89.1166 29.3315 88.7432 29.0274 88.4675 28.6288C88.1918 28.2302 88.0547 27.7433 88.0547 27.1698C88.0547 26.3032 88.3588 25.6509 88.9654 25.2129C89.572 24.7749 90.3487 24.5543 91.2941 24.5543H93.5881V24.0817C93.5881 23.6878 93.4637 23.3648 93.2163 23.1111C92.9689 22.8574 92.575 22.7314 92.0346 22.7314C91.4942 22.7314 91.1129 22.8527 90.8545 23.0938C90.5961 23.3364 90.4275 23.6484 90.3487 24.0297L88.3918 23.3711C88.5274 22.9441 88.7432 22.5533 89.041 22.1988C89.3388 21.8443 89.739 21.5576 90.2384 21.3386C90.7379 21.1196 91.3492 21.0093 92.0693 21.0093C93.1706 21.0093 94.0435 21.285 94.6847 21.8365C95.326 22.3879 95.6459 23.1867 95.6459 24.2313V27.3526C95.6459 27.6898 95.8034 27.8583 96.1185 27.8583H96.7929V29.6135H95.3764C94.9605 29.6135 94.617 29.5127 94.3476 29.3095C94.0781 29.1078 93.9426 28.8368 93.9426 28.4996V28.4823H93.6228C93.5771 28.6178 93.4763 28.7942 93.3187 29.0132C93.1611 29.2323 92.9138 29.426 92.5766 29.5946C92.2394 29.7632 91.7778 29.8483 91.1932 29.8483L91.1917 29.8515ZM91.5635 28.1309C92.1591 28.1309 92.6459 27.9655 93.0225 27.633C93.3991 27.3022 93.5881 26.8594 93.5881 26.3095V26.141H91.4453C91.0514 26.141 90.7426 26.226 90.5173 26.3946C90.292 26.5632 90.1801 26.7995 90.1801 27.1036C90.1801 27.4077 90.2983 27.6551 90.5346 27.8457C90.771 28.0364 91.1145 28.1325 91.5635 28.1325V28.1309ZM97.2813 31.1998V32.9881L97.2829 32.9897H99.1389C99.848 32.9897 100.363 32.8652 100.683 32.6178C101.003 32.3705 101.264 31.9813 101.468 31.4535L105.414 21.2468H103.12L101.028 27.2183H100.724L98.6316 21.2468H96.3375L99.8464 30.3222L99.6778 30.694C99.599 30.8626 99.5124 30.9887 99.4162 31.0738C99.3201 31.1573 99.1484 31.1998 98.901 31.1998H97.2813Z" fill="#1A2147"/>
<path d="M40.6731 11V4.07636H43.4714C43.5387 4.07636 43.6221 4.07957 43.7215 4.08598C43.8208 4.08919 43.9154 4.0988 44.0051 4.11483C44.3898 4.17573 44.7103 4.30715 44.9667 4.50909C45.2264 4.71103 45.4203 4.96586 45.5485 5.27358C45.6767 5.58129 45.7408 5.92106 45.7408 6.29289C45.7408 6.66792 45.6767 7.00929 45.5485 7.31701C45.4203 7.62473 45.2264 7.87956 44.9667 8.08149C44.7103 8.28343 44.3898 8.41486 44.0051 8.47576C43.9154 8.48858 43.8192 8.4982 43.7166 8.50461C43.6173 8.51102 43.5355 8.51422 43.4714 8.51422H41.678V11H40.6731ZM41.678 7.56222H43.433C43.4971 7.56222 43.5676 7.55902 43.6445 7.55261C43.7247 7.5462 43.8 7.53498 43.8705 7.51895C44.0756 7.47087 44.2407 7.38272 44.3657 7.2545C44.4907 7.12308 44.5805 6.97243 44.635 6.80255C44.6895 6.63266 44.7167 6.46277 44.7167 6.29289C44.7167 6.123 44.6895 5.95472 44.635 5.78804C44.5805 5.61815 44.4907 5.4691 44.3657 5.34089C44.2407 5.20947 44.0756 5.11972 43.8705 5.07164C43.8 5.0524 43.7247 5.03958 43.6445 5.03317C43.5676 5.02676 43.4971 5.02356 43.433 5.02356H41.678V7.56222ZM48.8913 11.1442C48.372 11.1442 47.9216 11.0272 47.5402 10.7933C47.1588 10.5593 46.8639 10.2371 46.6555 9.82683C46.4504 9.41333 46.3478 8.93733 46.3478 8.39883C46.3478 7.85712 46.4536 7.38112 46.6651 6.97083C46.8767 6.55733 47.1732 6.23679 47.5546 6.00921C47.9361 5.77842 48.3816 5.66303 48.8913 5.66303C49.4105 5.66303 49.8609 5.78003 50.2423 6.01402C50.6238 6.24801 50.9187 6.57015 51.127 6.98044C51.3354 7.39073 51.4396 7.86353 51.4396 8.39883C51.4396 8.94054 51.3338 9.41814 51.1222 9.83164C50.9139 10.2419 50.619 10.5641 50.2375 10.7981C49.8561 11.0288 49.4073 11.1442 48.8913 11.1442ZM48.8913 10.1971C49.3881 10.1971 49.7583 10.0304 50.0019 9.69701C50.2487 9.36044 50.3722 8.92772 50.3722 8.39883C50.3722 7.85712 50.2471 7.42439 49.9971 7.10065C49.7503 6.7737 49.3817 6.61022 48.8913 6.61022C48.5547 6.61022 48.2774 6.68715 48.0595 6.84101C47.8415 6.99166 47.6796 7.20162 47.5739 7.47087C47.4681 7.73692 47.4152 8.04624 47.4152 8.39883C47.4152 8.94374 47.5402 9.37968 47.7902 9.70663C48.0402 10.0336 48.4073 10.1971 48.8913 10.1971ZM53.4142 11L51.8275 5.80246L52.8228 5.80727L53.9094 9.37006L55.0056 5.80727H55.8711L56.9673 9.37006L58.054 5.80727H59.0444L57.4578 11H56.65L55.4384 7.24008L54.2219 11H53.4142ZM62.0207 11.1442C61.5046 11.1442 61.0511 11.0321 60.66 10.8077C60.2722 10.5801 59.9693 10.2644 59.7513 9.86048C59.5365 9.4534 59.4292 8.98221 59.4292 8.44691C59.4292 7.87956 59.5349 7.38753 59.7465 6.97083C59.9612 6.55413 60.2593 6.23199 60.6408 6.0044C61.0222 5.77682 61.4662 5.66303 61.9726 5.66303C62.5015 5.66303 62.9519 5.78644 63.3237 6.03325C63.6955 6.27686 63.9728 6.62465 64.1555 7.07661C64.3414 7.52857 64.4151 8.06547 64.3767 8.68731H63.3718V8.3219C63.3654 7.71929 63.25 7.27374 63.0256 6.98525C62.8044 6.69677 62.4663 6.55253 62.0111 6.55253C61.5078 6.55253 61.1296 6.71119 60.8764 7.02853C60.6232 7.34586 60.4965 7.80423 60.4965 8.40364C60.4965 8.9742 60.6232 9.41654 60.8764 9.73067C61.1296 10.0416 61.495 10.1971 61.9726 10.1971C62.2868 10.1971 62.5576 10.1265 62.7852 9.98549C63.016 9.84125 63.1955 9.63611 63.3237 9.37006L64.3094 9.68259C64.1074 10.1474 63.8013 10.508 63.391 10.7644C62.9807 11.0176 62.524 11.1442 62.0207 11.1442ZM60.1696 8.68731V7.9036H63.8766V8.68731H60.1696ZM65.4554 11V5.80727H66.3497V7.06699L66.2247 6.90351C66.2888 6.73683 66.3721 6.58458 66.4747 6.44675C66.5773 6.30571 66.6959 6.19032 66.8305 6.10057C66.9619 6.0044 67.1078 5.93068 67.2681 5.87939C67.4315 5.8249 67.5982 5.79285 67.7681 5.78323C67.938 5.77041 68.1015 5.77842 68.2585 5.80727V6.74966C68.0886 6.70478 67.8995 6.69196 67.6912 6.71119C67.486 6.73042 67.2969 6.79613 67.1238 6.90832C66.9603 7.0141 66.8305 7.14232 66.7344 7.29297C66.6414 7.44362 66.5741 7.61191 66.5324 7.79782C66.4907 7.98053 66.4699 8.17445 66.4699 8.3796V11H65.4554ZM71.3833 11.1442C70.8673 11.1442 70.4137 11.0321 70.0226 10.8077C69.6348 10.5801 69.3319 10.2644 69.1139 9.86048C68.8991 9.4534 68.7918 8.98221 68.7918 8.44691C68.7918 7.87956 68.8975 7.38753 69.1091 6.97083C69.3239 6.55413 69.622 6.23199 70.0034 6.0044C70.3848 5.77682 70.8288 5.66303 71.3352 5.66303C71.8641 5.66303 72.3145 5.78644 72.6863 6.03325C73.0581 6.27686 73.3354 6.62465 73.5181 7.07661C73.704 7.52857 73.7777 8.06547 73.7393 8.68731H72.7344V8.3219C72.728 7.71929 72.6126 7.27374 72.3882 6.98525C72.167 6.69677 71.8289 6.55253 71.3737 6.55253C70.8705 6.55253 70.4922 6.71119 70.239 7.02853C69.9858 7.34586 69.8592 7.80423 69.8592 8.40364C69.8592 8.9742 69.9858 9.41654 70.239 9.73067C70.4922 10.0416 70.8576 10.1971 71.3352 10.1971C71.6494 10.1971 71.9202 10.1265 72.1478 9.98549C72.3786 9.84125 72.5581 9.63611 72.6863 9.37006L73.672 9.68259C73.47 10.1474 73.1639 10.508 72.7536 10.7644C72.3433 11.0176 71.8866 11.1442 71.3833 11.1442ZM69.5322 8.68731V7.9036H73.2392V8.68731H69.5322ZM76.8807 11.1442C76.3967 11.1442 75.9784 11.024 75.6258 10.7836C75.2764 10.5432 75.0055 10.2163 74.8132 9.80279C74.6241 9.38609 74.5295 8.9181 74.5295 8.39883C74.5295 7.87635 74.6257 7.40997 74.818 6.99968C75.0103 6.58618 75.2828 6.26083 75.6354 6.02364C75.9912 5.78323 76.4127 5.66303 76.8999 5.66303C77.3903 5.66303 77.8022 5.78323 78.1356 6.02364C78.4722 6.26083 78.7254 6.58618 78.8953 6.99968C79.0684 7.41317 79.1549 7.87956 79.1549 8.39883C79.1549 8.9181 79.0684 9.38448 78.8953 9.79798C78.7222 10.2115 78.4674 10.54 78.1308 10.7836C77.7942 11.024 77.3775 11.1442 76.8807 11.1442ZM77.0201 10.2355C77.3503 10.2355 77.6195 10.157 77.8279 9.99992C78.0362 9.84286 78.1885 9.62649 78.2846 9.35083C78.3808 9.07516 78.4289 8.75783 78.4289 8.39883C78.4289 8.03982 78.3792 7.72249 78.2798 7.44683C78.1837 7.17116 78.033 6.9564 77.8279 6.80255C77.6259 6.64869 77.3679 6.57176 77.0538 6.57176C76.7204 6.57176 76.4464 6.65349 76.2316 6.81697C76.0168 6.98044 75.8566 7.20001 75.7508 7.47568C75.6482 7.75134 75.5969 8.05906 75.5969 8.39883C75.5969 8.7418 75.6482 9.05273 75.7508 9.3316C75.8566 9.60726 76.0136 9.82683 76.222 9.9903C76.4335 10.1538 76.6996 10.2355 77.0201 10.2355ZM78.4289 11V7.26412H78.3135V4.07636H79.3232V11H78.4289ZM85.0313 11.1442C84.5344 11.1442 84.1177 11.024 83.7812 10.7836C83.4446 10.54 83.1898 10.2115 83.0167 9.79798C82.8436 9.38448 82.7571 8.9181 82.7571 8.39883C82.7571 7.87956 82.842 7.41317 83.0119 6.99968C83.185 6.58618 83.4382 6.26083 83.7716 6.02364C84.1081 5.78323 84.5216 5.66303 85.0121 5.66303C85.4993 5.66303 85.9192 5.78323 86.2718 6.02364C86.6276 6.26083 86.9016 6.58618 87.094 6.99968C87.2863 7.40997 87.3824 7.87635 87.3824 8.39883C87.3824 8.9181 87.2863 9.38609 87.094 9.80279C86.9048 10.2163 86.634 10.5432 86.2814 10.7836C85.932 11.024 85.5153 11.1442 85.0313 11.1442ZM82.5888 11V4.07636H83.5985V7.26412H83.4831V11H82.5888ZM84.8918 10.2355C85.2124 10.2355 85.4768 10.1538 85.6852 9.9903C85.8967 9.82683 86.0538 9.60726 86.1564 9.3316C86.2622 9.05273 86.315 8.7418 86.315 8.39883C86.315 8.05906 86.2622 7.75134 86.1564 7.47568C86.0538 7.20001 85.8951 6.98044 85.6804 6.81697C85.4656 6.65349 85.1916 6.57176 84.8582 6.57176C84.5441 6.57176 84.2844 6.64869 84.0793 6.80255C83.8773 6.9564 83.7267 7.17116 83.6273 7.44683C83.5312 7.72249 83.4831 8.03982 83.4831 8.39883C83.4831 8.75783 83.5312 9.07516 83.6273 9.35083C83.7235 9.62649 83.8757 9.84286 84.0841 9.99992C84.2924 10.157 84.5617 10.2355 84.8918 10.2355ZM88.8267 13.3079L89.8316 10.5721L89.8461 11.3798L87.5814 5.80727H88.6296L90.322 10.1105H90.0143L91.6298 5.80727H92.6492L89.7835 13.3079H88.8267Z" fill="#1A2147"/>
</svg>
