<svg width="128" height="92" viewBox="0 0 128 92" fill="none" xmlns="http://www.w3.org/2000/svg">
<path fill-rule="evenodd" clip-rule="evenodd" d="M47.8921 19.9986C47.8921 11.1663 55.0543 4 63.892 4C72.7298 4 79.892 11.1663 79.892 19.9916H71.892V27.9944H63.892V35.9972H71.892V44H47.8921V19.9986ZM71.8921 28.0017H79.8921V36.0045H71.8921V28.0017Z" fill="#1A2147"/>
<path fill-rule="evenodd" clip-rule="evenodd" d="M12 82.6659L16.9062 64H23.0401L27.9463 82.6659H24.3202L23.3066 78.5591H16.6397L15.6261 82.6659H12ZM17.4665 75.3066H22.4798L20.2135 66.214H19.7328L17.4665 75.3066ZM29.8913 82.6664V69.4397H33.1986V70.934H33.6793C33.8735 70.401 34.1998 70.01 34.653 69.761C35.1063 69.5119 35.6343 69.3874 36.2394 69.3874H37.8383V72.3734H36.1846C35.3304 72.3734 34.6281 72.6001 34.0777 73.0533C33.5273 73.5066 33.2509 74.2039 33.2509 75.1478V82.6664H29.8913ZM41.7732 82.2399C42.8117 82.7729 43.9723 83.0394 45.2523 83.0394V83.0294C46.5125 83.0294 47.5983 82.8053 48.5049 82.362C49.4114 81.9187 50.1436 81.3085 50.7039 80.5365C51.2618 79.7644 51.6578 78.9052 51.8894 77.9639L48.6369 77.1918C48.4924 78.046 48.1587 78.7334 47.6357 79.2589C47.1127 79.7844 46.3432 80.0459 45.3295 80.0459C44.3159 80.0459 43.4667 79.7146 42.7818 79.0472C42.097 78.3798 41.7558 77.4259 41.7558 76.1807V75.9142C41.7558 74.6541 42.097 73.6927 42.7818 73.0353C43.4667 72.3778 44.3159 72.0491 45.3295 72.0491C46.3432 72.0491 47.1077 72.3205 47.6232 72.8634C48.1388 73.4039 48.4501 74.0763 48.5572 74.8757L51.8097 74.1834C51.6329 73.2046 51.2643 72.328 50.7039 71.5559C50.1436 70.7839 49.4114 70.1762 48.5049 69.7304C47.5983 69.2847 46.5324 69.063 45.2523 69.063C43.9723 69.063 42.8142 69.3295 41.7732 69.8624C40.7347 70.3979 39.9128 71.1699 39.3077 72.1835C38.7025 73.1971 38.4011 74.4249 38.4011 75.8644V76.238C38.4011 77.6799 38.7025 78.9052 39.3077 79.9188C39.9103 80.9325 40.7347 81.707 41.7732 82.2399ZM53.7298 82.6659V64H57.0894V71.0654H57.57C57.7842 70.6395 58.1777 70.2261 58.7555 69.8251C59.3333 69.4242 60.2074 69.2249 61.3829 69.2249C62.4139 69.2249 63.3155 69.4615 64.09 69.9322C64.862 70.4029 65.4622 71.0529 65.8906 71.8798C66.3165 72.7066 66.5306 73.6704 66.5306 74.7737V82.6659H63.171V75.0401C63.171 74.044 62.927 73.2968 62.4388 72.8012C61.9507 72.3031 61.2509 72.0541 60.3444 72.0541C59.3133 72.0541 58.5139 72.3978 57.9436 73.0802C57.3733 73.765 57.0894 74.7189 57.0894 75.9467V82.6659H53.7298ZM68.4233 69.4385L70.2887 82.6653H75.8623L77.5682 71.7048H78.0489L79.7548 82.6653H85.3285L87.1938 69.4385H83.8616L82.6886 80.399H82.2079L80.502 69.4385H75.1151L73.4092 80.399H72.9285L71.7555 69.4385H68.4233ZM93.303 83.0394C92.3616 83.0394 91.5173 82.875 90.7702 82.5463C90.0231 82.2175 89.4328 81.7369 88.997 81.1068C88.5612 80.4767 88.3445 79.7072 88.3445 78.8006C88.3445 77.4309 88.8252 76.3999 89.784 75.7075C90.7428 75.0152 91.9706 74.6665 93.4649 74.6665H97.091V73.9194C97.091 73.2968 96.8942 72.7862 96.5032 72.3853C96.1122 71.9843 95.4896 71.7851 94.6354 71.7851C93.7811 71.7851 93.1785 71.9768 92.77 72.3579C92.3616 72.7414 92.0951 73.2345 91.9706 73.8372L88.8775 72.7962C89.0916 72.1213 89.4328 71.5036 89.9035 70.9433C90.3742 70.3829 91.0068 69.9297 91.7963 69.5835C92.5857 69.2373 93.552 69.063 94.6902 69.063C96.431 69.063 97.8107 69.4988 98.8243 70.3705C99.8379 71.2421 100.343 72.5048 100.343 74.156V79.0895C100.343 79.6225 100.593 79.889 101.091 79.889H102.157V82.6633H99.9176C99.2601 82.6633 98.7172 82.5039 98.2913 82.1827C97.8655 81.8639 97.6513 81.4355 97.6513 80.9026V80.8752H97.1457C97.0735 81.0894 96.9141 81.3683 96.6651 81.7145C96.416 82.0606 96.025 82.367 95.4921 82.6334C94.9591 82.8999 94.2294 83.0344 93.3055 83.0344L93.303 83.0394ZM93.8907 80.3198C94.8321 80.3198 95.6017 80.0583 96.1969 79.5328C96.7921 79.0098 97.091 78.31 97.091 77.4409V77.1744H93.7039C93.0813 77.1744 92.5932 77.3089 92.2371 77.5753C91.8809 77.8418 91.7041 78.2154 91.7041 78.696C91.7041 79.1767 91.8909 79.5677 92.2645 79.869C92.638 80.1704 93.181 80.3223 93.8907 80.3223V80.3198ZM102.929 85.1706V87.9973L102.931 87.9998H105.865C106.986 87.9998 107.8 87.803 108.305 87.412C108.811 87.021 109.224 86.4059 109.546 85.5716L115.784 69.4385H112.158L108.851 78.8773H108.37L105.063 69.4385H101.437L106.983 83.7835L106.717 84.3712C106.592 84.6377 106.455 84.8369 106.303 84.9714C106.151 85.1034 105.88 85.1706 105.489 85.1706H102.929Z" fill="#1A2147"/>
</svg>
