<svg width="176" height="48" viewBox="0 0 176 48" fill="none" xmlns="http://www.w3.org/2000/svg">
<path fill-rule="evenodd" clip-rule="evenodd" d="M12 19.9986C12 11.1663 19.1622 4 27.9999 4C36.8377 4 43.9999 11.1663 43.9999 19.9916H35.9999V27.9944H27.9999V35.9972H35.9999V44H12V19.9986ZM36 28.0017H44V36.0045H36V28.0017Z" fill="#1A2147"/>
<path fill-rule="evenodd" clip-rule="evenodd" d="M66 33.1659L70.9062 14.5H77.0401L81.9463 33.1659H78.3202L77.3066 29.0591H70.6397L69.6261 33.1659H66ZM71.4665 25.8066H76.4798L74.2135 16.714H73.7328L71.4665 25.8066ZM83.8913 33.1664V19.9397H87.1986V21.434H87.6793C87.8735 20.901 88.1998 20.51 88.653 20.261C89.1063 20.0119 89.6343 19.8874 90.2394 19.8874H91.8383V22.8734H90.1846C89.3304 22.8734 88.6281 23.1001 88.0777 23.5533C87.5273 24.0066 87.2509 24.7039 87.2509 25.6478V33.1664H83.8913ZM95.7732 32.7399C96.8117 33.2729 97.9723 33.5394 99.2523 33.5394V33.5294C100.513 33.5294 101.598 33.3053 102.505 32.862C103.411 32.4187 104.144 31.8085 104.704 31.0365C105.262 30.2644 105.658 29.4052 105.889 28.4639L102.637 27.6918C102.492 28.546 102.159 29.2334 101.636 29.7589C101.113 30.2844 100.343 30.5459 99.3295 30.5459C98.3159 30.5459 97.4667 30.2146 96.7818 29.5472C96.097 28.8798 95.7558 27.9259 95.7558 26.6807V26.4142C95.7558 25.1541 96.097 24.1927 96.7818 23.5353C97.4667 22.8778 98.3159 22.5491 99.3295 22.5491C100.343 22.5491 101.108 22.8205 101.623 23.3634C102.139 23.9039 102.45 24.5763 102.557 25.3757L105.81 24.6834C105.633 23.7046 105.264 22.828 104.704 22.0559C104.144 21.2839 103.411 20.6762 102.505 20.2304C101.598 19.7847 100.532 19.563 99.2523 19.563C97.9723 19.563 96.8142 19.8295 95.7732 20.3624C94.7347 20.8979 93.9128 21.6699 93.3077 22.6835C92.7025 23.6971 92.4011 24.9249 92.4011 26.3644V26.738C92.4011 28.1799 92.7025 29.4052 93.3077 30.4188C93.9103 31.4325 94.7347 32.207 95.7732 32.7399ZM107.73 33.1659V14.5H111.089V21.5654H111.57C111.784 21.1395 112.178 20.7261 112.755 20.3251C113.333 19.9242 114.207 19.7249 115.383 19.7249C116.414 19.7249 117.315 19.9615 118.09 20.4322C118.862 20.9029 119.462 21.5529 119.891 22.3798C120.316 23.2066 120.531 24.1704 120.531 25.2737V33.1659H117.171V25.5401C117.171 24.544 116.927 23.7968 116.439 23.3012C115.951 22.8031 115.251 22.5541 114.344 22.5541C113.313 22.5541 112.514 22.8978 111.944 23.5802C111.373 24.265 111.089 25.2189 111.089 26.4467V33.1659H107.73ZM122.423 19.9385L124.289 33.1653H129.862L131.568 22.2048H132.049L133.755 33.1653H139.328L141.194 19.9385H137.862L136.689 30.899H136.208L134.502 19.9385H129.115L127.409 30.899H126.929L125.756 19.9385H122.423ZM147.303 33.5394C146.362 33.5394 145.517 33.375 144.77 33.0463C144.023 32.7175 143.433 32.2369 142.997 31.6068C142.561 30.9767 142.345 30.2072 142.345 29.3006C142.345 27.9309 142.825 26.8999 143.784 26.2075C144.743 25.5152 145.971 25.1665 147.465 25.1665H151.091V24.4194C151.091 23.7968 150.894 23.2862 150.503 22.8853C150.112 22.4843 149.49 22.2851 148.635 22.2851C147.781 22.2851 147.178 22.4768 146.77 22.8579C146.362 23.2414 146.095 23.7345 145.971 24.3372L142.877 23.2962C143.092 22.6213 143.433 22.0036 143.904 21.4433C144.374 20.8829 145.007 20.4297 145.796 20.0835C146.586 19.7373 147.552 19.563 148.69 19.563C150.431 19.563 151.811 19.9988 152.824 20.8705C153.838 21.7421 154.343 23.0048 154.343 24.656V29.5895C154.343 30.1225 154.593 30.389 155.091 30.389H156.157V33.1633H153.918C153.26 33.1633 152.717 33.0039 152.291 32.6827C151.865 32.3639 151.651 31.9355 151.651 31.4026V31.3752H151.146C151.074 31.5894 150.914 31.8683 150.665 32.2145C150.416 32.5606 150.025 32.867 149.492 33.1334C148.959 33.3999 148.229 33.5344 147.305 33.5344L147.303 33.5394ZM147.891 30.8198C148.832 30.8198 149.602 30.5583 150.197 30.0328C150.792 29.5098 151.091 28.81 151.091 27.9409V27.6744H147.704C147.081 27.6744 146.593 27.8089 146.237 28.0753C145.881 28.3418 145.704 28.7154 145.704 29.196C145.704 29.6767 145.891 30.0677 146.264 30.369C146.638 30.6704 147.181 30.8223 147.891 30.8223V30.8198ZM156.929 35.6706V38.4973L156.931 38.4998H159.865C160.986 38.4998 161.8 38.303 162.305 37.912C162.811 37.521 163.224 36.9059 163.546 36.0716L169.784 19.9385H166.158L162.851 29.3773H162.37L159.063 19.9385H155.437L160.983 34.2835L160.717 34.8712C160.592 35.1377 160.455 35.3369 160.303 35.4714C160.151 35.6034 159.88 35.6706 159.489 35.6706H156.929Z" fill="#1A2147"/>
</svg>
